%TF.GenerationSoftware,KiCad,Pcbnew,10.0.2*%
%TF.CreationDate,2026-05-12T13:53:03-04:00*%
%TF.ProjectId,dex0000_mains_filter,64657830-3030-4305-9f6d-61696e735f66,rev?*%
%TF.SameCoordinates,Original*%
%TF.FileFunction,Soldermask,Top*%
%TF.FilePolarity,Negative*%
%FSLAX46Y46*%
G04 Gerber Fmt 4.6, Leading zero omitted, Abs format (unit mm)*
G04 Created by KiCad (PCBNEW 10.0.2) date 2026-05-12 13:53:03*
%MOMM*%
%LPD*%
G01*
G04 APERTURE LIST*
G04 Aperture macros list*
%AMRoundRect*
0 Rectangle with rounded corners*
0 $1 Rounding radius*
0 $2 $3 $4 $5 $6 $7 $8 $9 X,Y pos of 4 corners*
0 Add a 4 corners polygon primitive as box body*
4,1,4,$2,$3,$4,$5,$6,$7,$8,$9,$2,$3,0*
0 Add four circle primitives for the rounded corners*
1,1,$1+$1,$2,$3*
1,1,$1+$1,$4,$5*
1,1,$1+$1,$6,$7*
1,1,$1+$1,$8,$9*
0 Add four rect primitives between the rounded corners*
20,1,$1+$1,$2,$3,$4,$5,0*
20,1,$1+$1,$4,$5,$6,$7,0*
20,1,$1+$1,$6,$7,$8,$9,0*
20,1,$1+$1,$8,$9,$2,$3,0*%
G04 Aperture macros list end*
%ADD10C,2.400000*%
%ADD11C,2.000000*%
%ADD12C,4.000000*%
%ADD13RoundRect,0.150000X0.150000X0.150000X-0.150000X0.150000X-0.150000X-0.150000X0.150000X-0.150000X0*%
%ADD14R,5.100000X4.800000*%
%ADD15C,0.600000*%
%ADD16RoundRect,0.300000X-1.200000X-1.200000X1.200000X-1.200000X1.200000X1.200000X-1.200000X1.200000X0*%
%ADD17C,3.000000*%
%ADD18O,2.400000X2.400000*%
%ADD19R,2.500000X2.500000*%
%ADD20C,2.500000*%
%ADD21C,4.300000*%
%ADD22C,1.800000*%
%ADD23C,0.900000*%
%ADD24C,8.600000*%
G04 APERTURE END LIST*
D10*
%TO.C,C4*%
X150500000Y-72500000D03*
X150500000Y-87500000D03*
%TD*%
D11*
%TO.C,C2*%
X135000000Y-54500000D03*
X135000000Y-64500000D03*
%TD*%
D10*
%TO.C,C1*%
X122500000Y-72500000D03*
X122500000Y-87500000D03*
%TD*%
D12*
%TO.C,J1*%
X99690000Y-89750000D03*
X99690000Y-58290000D03*
D13*
X108890000Y-82070000D03*
X115790000Y-82070000D03*
X111190000Y-82070000D03*
X106590000Y-84020000D03*
X111190000Y-85970000D03*
X106590000Y-82070000D03*
X115790000Y-84020000D03*
D14*
X108690000Y-84020000D03*
D13*
X108890000Y-85970000D03*
D14*
X113690000Y-84020000D03*
D13*
X113490000Y-82070000D03*
X115790000Y-85970000D03*
X113490000Y-85970000D03*
X111190000Y-84020000D03*
X106590000Y-85970000D03*
D15*
X113490000Y-75970000D03*
X106590000Y-74020000D03*
X111190000Y-74020000D03*
X106590000Y-72070000D03*
X115790000Y-75970000D03*
X111190000Y-72070000D03*
D14*
X108690000Y-74020000D03*
D15*
X113490000Y-72070000D03*
X106590000Y-75970000D03*
X108890000Y-75970000D03*
X115790000Y-74020000D03*
X111190000Y-75970000D03*
D14*
X113690000Y-74020000D03*
D15*
X115790000Y-72070000D03*
X108890000Y-72070000D03*
X111190000Y-65970000D03*
X108890000Y-65970000D03*
X113490000Y-62070000D03*
X106590000Y-64020000D03*
D14*
X108690000Y-64020000D03*
D15*
X108890000Y-62070000D03*
X111190000Y-64020000D03*
X106590000Y-62070000D03*
X111190000Y-62070000D03*
X113490000Y-65970000D03*
X115790000Y-64020000D03*
X115790000Y-62070000D03*
X115790000Y-65970000D03*
D14*
X113690000Y-64020000D03*
D15*
X106590000Y-65970000D03*
%TD*%
D16*
%TO.C,L1*%
X130500000Y-75000000D03*
D17*
X142500000Y-75000000D03*
X142500000Y-85000000D03*
X130500000Y-85000000D03*
%TD*%
D10*
%TO.C,R1*%
X150500000Y-53000000D03*
D18*
X150500000Y-68240000D03*
%TD*%
D19*
%TO.C,J2*%
X164800000Y-83700000D03*
D20*
X164800000Y-76200000D03*
%TD*%
D21*
%TO.C,H2*%
X165000000Y-111000000D03*
%TD*%
%TO.C,H3*%
X165000000Y-50000000D03*
%TD*%
D19*
%TO.C,F1*%
X122174324Y-99802497D03*
D20*
X112174324Y-99802497D03*
%TD*%
D21*
%TO.C,H1*%
X100000000Y-111000000D03*
%TD*%
D22*
%TO.C,RV1*%
X157000000Y-56800000D03*
X155366670Y-64300000D03*
%TD*%
D11*
%TO.C,C3*%
X142500000Y-54500000D03*
X142500000Y-64500000D03*
%TD*%
D23*
%TO.C,PE1*%
X102280419Y-52280419D03*
D24*
X100000000Y-50000000D03*
D23*
X100000000Y-53225000D03*
X96775000Y-50000000D03*
X103225000Y-50000000D03*
X102280419Y-47719581D03*
X97719581Y-47719581D03*
X100000000Y-46775000D03*
X97719581Y-52280419D03*
%TD*%
M02*
