%TF.GenerationSoftware,KiCad,Pcbnew,10.0.2*%
%TF.CreationDate,2026-05-12T13:53:03-04:00*%
%TF.ProjectId,dex0000_mains_filter,64657830-3030-4305-9f6d-61696e735f66,rev?*%
%TF.SameCoordinates,Original*%
%TF.FileFunction,Copper,L1,Top*%
%TF.FilePolarity,Positive*%
%FSLAX46Y46*%
G04 Gerber Fmt 4.6, Leading zero omitted, Abs format (unit mm)*
G04 Created by KiCad (PCBNEW 10.0.2) date 2026-05-12 13:53:03*
%MOMM*%
%LPD*%
G01*
G04 APERTURE LIST*
G04 Aperture macros list*
%AMRoundRect*
0 Rectangle with rounded corners*
0 $1 Rounding radius*
0 $2 $3 $4 $5 $6 $7 $8 $9 X,Y pos of 4 corners*
0 Add a 4 corners polygon primitive as box body*
4,1,4,$2,$3,$4,$5,$6,$7,$8,$9,$2,$3,0*
0 Add four circle primitives for the rounded corners*
1,1,$1+$1,$2,$3*
1,1,$1+$1,$4,$5*
1,1,$1+$1,$6,$7*
1,1,$1+$1,$8,$9*
0 Add four rect primitives between the rounded corners*
20,1,$1+$1,$2,$3,$4,$5,0*
20,1,$1+$1,$4,$5,$6,$7,0*
20,1,$1+$1,$6,$7,$8,$9,0*
20,1,$1+$1,$8,$9,$2,$3,0*%
G04 Aperture macros list end*
%TA.AperFunction,ComponentPad*%
%ADD10C,2.400000*%
%TD*%
%TA.AperFunction,ComponentPad*%
%ADD11C,2.000000*%
%TD*%
%TA.AperFunction,ComponentPad*%
%ADD12C,4.000000*%
%TD*%
%TA.AperFunction,ComponentPad*%
%ADD13RoundRect,0.150000X0.150000X0.150000X-0.150000X0.150000X-0.150000X-0.150000X0.150000X-0.150000X0*%
%TD*%
%TA.AperFunction,ComponentPad*%
%ADD14R,5.100000X4.800000*%
%TD*%
%TA.AperFunction,ComponentPad*%
%ADD15C,0.600000*%
%TD*%
%TA.AperFunction,ComponentPad*%
%ADD16RoundRect,0.300000X-1.200000X-1.200000X1.200000X-1.200000X1.200000X1.200000X-1.200000X1.200000X0*%
%TD*%
%TA.AperFunction,ComponentPad*%
%ADD17C,3.000000*%
%TD*%
%TA.AperFunction,ComponentPad*%
%ADD18O,2.400000X2.400000*%
%TD*%
%TA.AperFunction,ComponentPad*%
%ADD19R,2.500000X2.500000*%
%TD*%
%TA.AperFunction,ComponentPad*%
%ADD20C,2.500000*%
%TD*%
%TA.AperFunction,ComponentPad*%
%ADD21C,1.800000*%
%TD*%
%TA.AperFunction,ComponentPad*%
%ADD22C,0.900000*%
%TD*%
%TA.AperFunction,ComponentPad*%
%ADD23C,8.600000*%
%TD*%
%TA.AperFunction,Conductor*%
%ADD24C,3.500000*%
%TD*%
%TA.AperFunction,Conductor*%
%ADD25C,3.000000*%
%TD*%
%TA.AperFunction,Conductor*%
%ADD26C,2.500000*%
%TD*%
G04 APERTURE END LIST*
D10*
%TO.P,C4,1*%
%TO.N,/N_OUT*%
X150500000Y-72500000D03*
%TO.P,C4,2*%
%TO.N,/L_OUT*%
X150500000Y-87500000D03*
%TD*%
D11*
%TO.P,C2,1*%
%TO.N,Earth*%
X135000000Y-54500000D03*
%TO.P,C2,2*%
%TO.N,/L_OUT*%
X135000000Y-64500000D03*
%TD*%
D10*
%TO.P,C1,1*%
%TO.N,/N*%
X122500000Y-72500000D03*
%TO.P,C1,2*%
%TO.N,/L2*%
X122500000Y-87500000D03*
%TD*%
D12*
%TO.P,J1,*%
%TO.N,Earth*%
X99690000Y-89750000D03*
X99690000Y-58290000D03*
D13*
%TO.P,J1,1,Pin_1*%
%TO.N,/L*%
X108890000Y-82070000D03*
X115790000Y-82070000D03*
X111190000Y-82070000D03*
X106590000Y-84020000D03*
X111190000Y-85970000D03*
X106590000Y-82070000D03*
X115790000Y-84020000D03*
D14*
X108690000Y-84020000D03*
D13*
X108890000Y-85970000D03*
D14*
X113690000Y-84020000D03*
D13*
X113490000Y-82070000D03*
X115790000Y-85970000D03*
X113490000Y-85970000D03*
X111190000Y-84020000D03*
X106590000Y-85970000D03*
D15*
%TO.P,J1,2,Pin_2*%
%TO.N,Earth*%
X113490000Y-75970000D03*
X106590000Y-74020000D03*
X111190000Y-74020000D03*
X106590000Y-72070000D03*
X115790000Y-75970000D03*
X111190000Y-72070000D03*
D14*
X108690000Y-74020000D03*
D15*
X113490000Y-72070000D03*
X106590000Y-75970000D03*
X108890000Y-75970000D03*
X115790000Y-74020000D03*
X111190000Y-75970000D03*
D14*
X113690000Y-74020000D03*
D15*
X115790000Y-72070000D03*
X108890000Y-72070000D03*
%TO.P,J1,3,Pin_3*%
%TO.N,/N*%
X111190000Y-65970000D03*
X108890000Y-65970000D03*
X113490000Y-62070000D03*
X106590000Y-64020000D03*
D14*
X108690000Y-64020000D03*
D15*
X108890000Y-62070000D03*
X111190000Y-64020000D03*
X106590000Y-62070000D03*
X111190000Y-62070000D03*
X113490000Y-65970000D03*
X115790000Y-64020000D03*
X115790000Y-62070000D03*
X115790000Y-65970000D03*
D14*
X113690000Y-64020000D03*
D15*
X106590000Y-65970000D03*
%TD*%
D16*
%TO.P,L1,1,1*%
%TO.N,/N*%
X130500000Y-75000000D03*
D17*
%TO.P,L1,2,2*%
%TO.N,/N_OUT*%
X142500000Y-75000000D03*
%TO.P,L1,3,3*%
%TO.N,/L_OUT*%
X142500000Y-85000000D03*
%TO.P,L1,4,4*%
%TO.N,/L2*%
X130500000Y-85000000D03*
%TD*%
D10*
%TO.P,R1,1*%
%TO.N,/L_OUT*%
X150500000Y-53000000D03*
D18*
%TO.P,R1,2*%
%TO.N,/N_OUT*%
X150500000Y-68240000D03*
%TD*%
D19*
%TO.P,J2,1,Pin_1*%
%TO.N,/L_OUT*%
X164800000Y-83700000D03*
D20*
%TO.P,J2,2,Pin_2*%
%TO.N,/N_OUT*%
X164800000Y-76200000D03*
%TD*%
D19*
%TO.P,F1,1*%
%TO.N,/L2*%
X122174324Y-99802497D03*
D20*
%TO.P,F1,2*%
%TO.N,/L*%
X112174324Y-99802497D03*
%TD*%
D21*
%TO.P,RV1,1*%
%TO.N,/L_OUT*%
X157000000Y-56800000D03*
%TO.P,RV1,2*%
%TO.N,/N_OUT*%
X155366670Y-64300000D03*
%TD*%
D11*
%TO.P,C3,1*%
%TO.N,Earth*%
X142500000Y-54500000D03*
%TO.P,C3,2*%
%TO.N,/N_OUT*%
X142500000Y-64500000D03*
%TD*%
D22*
%TO.P,PE1,1,1*%
%TO.N,Earth*%
X102280419Y-52280419D03*
D23*
X100000000Y-50000000D03*
D22*
X100000000Y-53225000D03*
X96775000Y-50000000D03*
X103225000Y-50000000D03*
X102280419Y-47719581D03*
X97719581Y-47719581D03*
X100000000Y-46775000D03*
X97719581Y-52280419D03*
%TD*%
%TO.N,/L*%
D24*
X112174324Y-85535676D02*
X113690000Y-84020000D01*
X112174324Y-99802497D02*
X112174324Y-85535676D01*
%TO.N,/L2*%
X122174324Y-99802497D02*
X122174324Y-87825676D01*
X125000000Y-85000000D02*
X122500000Y-87500000D01*
X122174324Y-87825676D02*
X122500000Y-87500000D01*
X130500000Y-85000000D02*
X125000000Y-85000000D01*
%TO.N,/N*%
X122500000Y-72500000D02*
X125000000Y-75000000D01*
X125000000Y-75000000D02*
X130500000Y-75000000D01*
X122500000Y-72500000D02*
X122500000Y-67600000D01*
X118920000Y-64020000D02*
X113690000Y-64020000D01*
X122500000Y-67600000D02*
X118920000Y-64020000D01*
%TO.N,/L_OUT*%
D25*
X158300000Y-56800000D02*
X157000000Y-56800000D01*
X162200000Y-60700000D02*
X158300000Y-56800000D01*
X150500000Y-81200000D02*
X162200000Y-69500000D01*
X152000000Y-83700000D02*
X150500000Y-85200000D01*
X150500000Y-87500000D02*
X150500000Y-81200000D01*
X164800000Y-83700000D02*
X152000000Y-83700000D01*
D26*
X142500000Y-85000000D02*
X136500000Y-79000000D01*
D25*
X162200000Y-69500000D02*
X162200000Y-60700000D01*
X150500000Y-85200000D02*
X150500000Y-87500000D01*
X148100000Y-85100000D02*
X142600000Y-85100000D01*
D26*
X136500000Y-79000000D02*
X136500000Y-66000000D01*
D25*
X150500000Y-87500000D02*
X148100000Y-85100000D01*
D26*
X136500000Y-66000000D02*
X135000000Y-64500000D01*
D25*
X142600000Y-85100000D02*
X142500000Y-85000000D01*
%TO.N,/N_OUT*%
X150500000Y-72500000D02*
X150500000Y-68240000D01*
X142500000Y-75000000D02*
X142500000Y-64500000D01*
X150500000Y-72500000D02*
X148000000Y-75000000D01*
D26*
X142500000Y-75000000D02*
X142500000Y-74900000D01*
D25*
X150500000Y-68240000D02*
X152960000Y-68240000D01*
X152960000Y-68240000D02*
X155366670Y-65833330D01*
X148000000Y-75000000D02*
X142500000Y-75000000D01*
X155366670Y-65833330D02*
X155366670Y-64300000D01*
%TD*%
%TA.AperFunction,Conductor*%
%TO.N,Earth*%
G36*
X145202097Y-45520950D02*
G01*
X145394961Y-45581461D01*
X145571697Y-45679557D01*
X145725068Y-45811222D01*
X145848796Y-45971065D01*
X145937814Y-46152542D01*
X145988480Y-46348224D01*
X146000000Y-46499500D01*
X146000000Y-62821897D01*
X145979550Y-63022994D01*
X145919039Y-63215858D01*
X145820943Y-63392594D01*
X145689278Y-63545965D01*
X145529435Y-63669693D01*
X145347958Y-63758711D01*
X145152276Y-63809377D01*
X144950401Y-63819615D01*
X144750598Y-63789006D01*
X144561046Y-63718804D01*
X144389506Y-63611882D01*
X144243001Y-63472618D01*
X144193637Y-63407579D01*
X144193497Y-63407687D01*
X144013315Y-63172867D01*
X144013314Y-63172866D01*
X144013311Y-63172862D01*
X143827138Y-62986689D01*
X143827133Y-62986685D01*
X143827132Y-62986684D01*
X143770674Y-62943363D01*
X143618257Y-62826410D01*
X143471189Y-62741500D01*
X143390244Y-62694766D01*
X143147002Y-62594012D01*
X143147001Y-62594011D01*
X143146997Y-62594010D01*
X142892680Y-62525866D01*
X142892677Y-62525865D01*
X142892678Y-62525865D01*
X142740453Y-62505825D01*
X142631644Y-62491500D01*
X142368356Y-62491500D01*
X142246887Y-62507491D01*
X142107323Y-62525865D01*
X142022547Y-62548580D01*
X141853003Y-62594010D01*
X141853000Y-62594011D01*
X141852997Y-62594012D01*
X141609755Y-62694766D01*
X141381746Y-62826408D01*
X141381743Y-62826410D01*
X141338702Y-62859436D01*
X141172867Y-62986684D01*
X140986684Y-63172867D01*
X140826408Y-63381746D01*
X140694766Y-63609755D01*
X140594012Y-63852997D01*
X140525865Y-64107323D01*
X140519431Y-64156198D01*
X140491500Y-64368356D01*
X140491500Y-74868356D01*
X140491500Y-75131644D01*
X140525866Y-75392680D01*
X140594010Y-75646997D01*
X140594011Y-75647001D01*
X140594012Y-75647002D01*
X140694766Y-75890244D01*
X140780175Y-76038175D01*
X140826410Y-76118257D01*
X140986689Y-76327138D01*
X141172862Y-76513311D01*
X141381743Y-76673590D01*
X141609757Y-76805234D01*
X141853003Y-76905990D01*
X142107320Y-76974134D01*
X142368356Y-77008500D01*
X145001000Y-77008500D01*
X145202097Y-77028950D01*
X145394961Y-77089461D01*
X145571697Y-77187557D01*
X145725068Y-77319222D01*
X145848796Y-77479065D01*
X145937814Y-77660542D01*
X145988480Y-77856224D01*
X146000000Y-78007500D01*
X146000000Y-82092500D01*
X145997432Y-82117748D01*
X145998718Y-82143099D01*
X145987226Y-82218113D01*
X145979550Y-82293597D01*
X145971952Y-82317811D01*
X145968109Y-82342902D01*
X145941753Y-82414065D01*
X145919039Y-82486461D01*
X145906722Y-82508650D01*
X145897907Y-82532454D01*
X145857767Y-82596852D01*
X145820943Y-82663197D01*
X145804410Y-82682455D01*
X145790985Y-82703994D01*
X145738707Y-82758989D01*
X145689278Y-82816568D01*
X145669205Y-82832105D01*
X145651721Y-82850499D01*
X145589447Y-82893843D01*
X145529435Y-82940296D01*
X145506646Y-82951474D01*
X145485817Y-82965972D01*
X145416084Y-82995896D01*
X145347958Y-83029314D01*
X145323389Y-83035675D01*
X145300064Y-83045685D01*
X145225737Y-83060959D01*
X145152276Y-83079980D01*
X145121939Y-83082290D01*
X145102067Y-83086374D01*
X145001000Y-83091500D01*
X143492195Y-83091500D01*
X143291098Y-83071050D01*
X143098234Y-83010539D01*
X142921498Y-82912443D01*
X142785795Y-82798900D01*
X138551100Y-78564205D01*
X138423363Y-78407547D01*
X138329776Y-78228384D01*
X138274169Y-78034048D01*
X138258500Y-77857805D01*
X138258500Y-65884740D01*
X138228412Y-65656209D01*
X138228411Y-65656201D01*
X138228411Y-65656198D01*
X138226917Y-65650620D01*
X138168749Y-65433535D01*
X138142911Y-65371158D01*
X138142911Y-65371157D01*
X138142911Y-65371156D01*
X138142907Y-65371149D01*
X138080535Y-65220567D01*
X137991564Y-65066465D01*
X137991564Y-65066464D01*
X137965281Y-65020940D01*
X137965277Y-65020934D01*
X137829359Y-64843802D01*
X137824947Y-64838052D01*
X137094215Y-64107320D01*
X136161952Y-63175056D01*
X135979068Y-63034725D01*
X135979062Y-63034721D01*
X135779432Y-62919465D01*
X135779425Y-62919461D01*
X135566472Y-62831253D01*
X135566463Y-62831250D01*
X135343806Y-62771590D01*
X135343804Y-62771589D01*
X135343802Y-62771589D01*
X135343799Y-62771588D01*
X135343796Y-62771588D01*
X135203305Y-62753091D01*
X135115258Y-62741500D01*
X134884742Y-62741500D01*
X134821181Y-62749868D01*
X134656203Y-62771588D01*
X134656193Y-62771590D01*
X134433536Y-62831250D01*
X134433527Y-62831253D01*
X134220574Y-62919461D01*
X134220567Y-62919465D01*
X134020937Y-63034721D01*
X134020931Y-63034725D01*
X133838051Y-63175053D01*
X133675053Y-63338051D01*
X133534725Y-63520931D01*
X133534721Y-63520937D01*
X133419465Y-63720567D01*
X133419461Y-63720574D01*
X133331253Y-63933527D01*
X133331250Y-63933536D01*
X133271590Y-64156193D01*
X133271588Y-64156203D01*
X133241500Y-64384742D01*
X133241500Y-64615257D01*
X133271588Y-64843796D01*
X133271590Y-64843806D01*
X133331250Y-65066463D01*
X133331253Y-65066472D01*
X133419461Y-65279425D01*
X133419465Y-65279432D01*
X133534721Y-65479062D01*
X133534725Y-65479068D01*
X133675053Y-65661948D01*
X134448900Y-66435795D01*
X134576637Y-66592453D01*
X134670224Y-66771616D01*
X134725831Y-66965952D01*
X134741500Y-67142195D01*
X134741500Y-79115257D01*
X134771588Y-79343797D01*
X134771592Y-79343817D01*
X134831246Y-79566451D01*
X134831254Y-79566474D01*
X134919463Y-79779430D01*
X134919465Y-79779435D01*
X135034722Y-79979063D01*
X135175054Y-80161949D01*
X140406765Y-85393660D01*
X140486354Y-85483439D01*
X140583294Y-85607005D01*
X140594010Y-85646997D01*
X140694766Y-85890243D01*
X140826410Y-86118257D01*
X140986689Y-86327138D01*
X141086688Y-86427137D01*
X141086689Y-86427138D01*
X141272862Y-86613311D01*
X141423821Y-86729145D01*
X141481743Y-86773590D01*
X141709757Y-86905234D01*
X141953003Y-87005990D01*
X142207320Y-87074134D01*
X142468356Y-87108500D01*
X142731644Y-87108500D01*
X145001000Y-87108500D01*
X145202097Y-87128950D01*
X145394961Y-87189461D01*
X145571697Y-87287557D01*
X145725068Y-87419222D01*
X145848796Y-87579065D01*
X145937814Y-87760542D01*
X145988480Y-87956224D01*
X146000000Y-88107500D01*
X146000000Y-91586200D01*
X145996152Y-91624035D01*
X145997116Y-91662057D01*
X145985951Y-91724347D01*
X145979550Y-91787297D01*
X145968164Y-91823584D01*
X145961455Y-91861021D01*
X145937981Y-91919785D01*
X145919039Y-91980161D01*
X145900582Y-92013412D01*
X145886474Y-92048734D01*
X145851650Y-92101572D01*
X145820943Y-92156897D01*
X145793839Y-92189290D01*
X145775241Y-92217510D01*
X145707400Y-92292600D01*
X145292600Y-92707400D01*
X145135942Y-92835137D01*
X144956779Y-92928724D01*
X144762443Y-92984331D01*
X144586200Y-93000000D01*
X125431824Y-93000000D01*
X125230727Y-92979550D01*
X125037863Y-92919039D01*
X124861127Y-92820943D01*
X124707756Y-92689278D01*
X124584028Y-92529435D01*
X124495010Y-92347958D01*
X124444344Y-92152276D01*
X124432824Y-92001000D01*
X124432824Y-89174978D01*
X124453274Y-88973881D01*
X124513785Y-88781017D01*
X124611881Y-88604281D01*
X124725424Y-88468578D01*
X125642902Y-87551100D01*
X125799560Y-87423363D01*
X125978723Y-87329776D01*
X126173059Y-87274169D01*
X126349302Y-87258500D01*
X130648030Y-87258500D01*
X130807185Y-87237546D01*
X130941544Y-87219858D01*
X130941548Y-87219857D01*
X130941557Y-87219856D01*
X130941563Y-87219854D01*
X130941570Y-87219853D01*
X131227522Y-87143233D01*
X131227522Y-87143232D01*
X131227529Y-87143231D01*
X131501052Y-87029933D01*
X131757448Y-86881903D01*
X131992328Y-86701674D01*
X132201674Y-86492328D01*
X132381903Y-86257448D01*
X132529933Y-86001052D01*
X132643231Y-85727529D01*
X132664809Y-85646997D01*
X132719853Y-85441570D01*
X132719854Y-85441563D01*
X132719856Y-85441557D01*
X132758500Y-85148030D01*
X132758500Y-84851970D01*
X132719856Y-84558443D01*
X132719854Y-84558438D01*
X132719853Y-84558429D01*
X132643233Y-84272477D01*
X132643231Y-84272474D01*
X132643231Y-84272471D01*
X132529933Y-83998948D01*
X132381903Y-83742552D01*
X132381898Y-83742545D01*
X132381896Y-83742542D01*
X132201682Y-83507683D01*
X132201674Y-83507672D01*
X131992328Y-83298326D01*
X131948480Y-83264680D01*
X131757457Y-83118103D01*
X131757452Y-83118100D01*
X131757448Y-83118097D01*
X131501052Y-82970067D01*
X131227529Y-82856769D01*
X131227522Y-82856766D01*
X130941570Y-82780146D01*
X130941544Y-82780141D01*
X130648035Y-82741500D01*
X130648030Y-82741500D01*
X125148038Y-82741500D01*
X125148030Y-82741499D01*
X124851970Y-82741499D01*
X124592592Y-82775648D01*
X124558443Y-82780144D01*
X124272471Y-82856769D01*
X124135709Y-82913418D01*
X124033540Y-82955737D01*
X124033537Y-82955738D01*
X123998943Y-82970067D01*
X123836402Y-83063910D01*
X123836399Y-83063913D01*
X123826172Y-83069818D01*
X123742561Y-83118091D01*
X123742543Y-83118103D01*
X123535239Y-83277171D01*
X123535240Y-83277172D01*
X123507673Y-83298324D01*
X123507670Y-83298327D01*
X120861539Y-85944456D01*
X120861521Y-85944476D01*
X120798326Y-86007672D01*
X120798323Y-86007674D01*
X120681997Y-86124000D01*
X120681996Y-86124002D01*
X120472650Y-86333348D01*
X120292421Y-86568228D01*
X120257623Y-86628500D01*
X120212134Y-86707288D01*
X120212132Y-86707291D01*
X120144389Y-86824624D01*
X120144389Y-86824626D01*
X120101367Y-86928492D01*
X120101364Y-86928500D01*
X120031093Y-87098145D01*
X119954467Y-87384119D01*
X119954465Y-87384131D01*
X119915824Y-87677640D01*
X119915824Y-92001000D01*
X119895374Y-92202097D01*
X119834863Y-92394961D01*
X119736767Y-92571697D01*
X119605102Y-92725068D01*
X119445259Y-92848796D01*
X119263782Y-92937814D01*
X119068100Y-92988480D01*
X118916824Y-93000000D01*
X115431824Y-93000000D01*
X115230727Y-92979550D01*
X115037863Y-92919039D01*
X114861127Y-92820943D01*
X114707756Y-92689278D01*
X114584028Y-92529435D01*
X114495010Y-92347958D01*
X114444344Y-92152276D01*
X114432824Y-92001000D01*
X114432824Y-87927500D01*
X114453274Y-87726403D01*
X114513785Y-87533539D01*
X114611881Y-87356803D01*
X114743546Y-87203432D01*
X114903389Y-87079704D01*
X115084866Y-86990686D01*
X115280548Y-86940020D01*
X115431824Y-86928500D01*
X116288636Y-86928500D01*
X116288638Y-86928500D01*
X116349201Y-86921989D01*
X116486204Y-86870889D01*
X116603261Y-86783261D01*
X116690889Y-86666204D01*
X116741989Y-86529201D01*
X116748500Y-86468638D01*
X116748500Y-81571362D01*
X116741989Y-81510799D01*
X116690889Y-81373796D01*
X116603261Y-81256739D01*
X116603257Y-81256736D01*
X116486205Y-81169111D01*
X116349201Y-81118011D01*
X116349198Y-81118010D01*
X116288642Y-81111500D01*
X116288638Y-81111500D01*
X111288638Y-81111500D01*
X106091362Y-81111500D01*
X106091357Y-81111500D01*
X106030801Y-81118010D01*
X106030798Y-81118011D01*
X105893794Y-81169111D01*
X105776742Y-81256736D01*
X105776736Y-81256742D01*
X105689111Y-81373794D01*
X105638011Y-81510798D01*
X105638010Y-81510801D01*
X105631500Y-81571357D01*
X105631500Y-86468642D01*
X105638010Y-86529198D01*
X105638011Y-86529201D01*
X105689111Y-86666205D01*
X105719868Y-86707291D01*
X105776739Y-86783261D01*
X105776742Y-86783263D01*
X105893794Y-86870888D01*
X105893795Y-86870888D01*
X105893796Y-86870889D01*
X106030799Y-86921989D01*
X106091362Y-86928500D01*
X108916824Y-86928500D01*
X109117921Y-86948950D01*
X109310785Y-87009461D01*
X109487521Y-87107557D01*
X109640892Y-87239222D01*
X109764620Y-87399065D01*
X109853638Y-87580542D01*
X109904304Y-87776224D01*
X109915824Y-87927500D01*
X109915824Y-92001000D01*
X109895374Y-92202097D01*
X109834863Y-92394961D01*
X109736767Y-92571697D01*
X109605102Y-92725068D01*
X109445259Y-92848796D01*
X109263782Y-92937814D01*
X109068100Y-92988480D01*
X108916824Y-93000000D01*
X96499500Y-93000000D01*
X96298403Y-92979550D01*
X96105539Y-92919039D01*
X95928803Y-92820943D01*
X95775432Y-92689278D01*
X95651704Y-92529435D01*
X95562686Y-92347958D01*
X95512020Y-92152276D01*
X95500500Y-92001000D01*
X95500500Y-61571357D01*
X105631500Y-61571357D01*
X105631500Y-66468642D01*
X105638010Y-66529198D01*
X105638011Y-66529201D01*
X105689111Y-66666205D01*
X105768022Y-66771616D01*
X105776739Y-66783261D01*
X105776742Y-66783263D01*
X105893794Y-66870888D01*
X105893795Y-66870888D01*
X105893796Y-66870889D01*
X106030799Y-66921989D01*
X106091362Y-66928500D01*
X106091364Y-66928500D01*
X116288636Y-66928500D01*
X116288638Y-66928500D01*
X116349201Y-66921989D01*
X116486204Y-66870889D01*
X116603261Y-66783261D01*
X116681444Y-66678820D01*
X116686919Y-66672871D01*
X116691199Y-66666006D01*
X116755308Y-66598562D01*
X116818328Y-66530089D01*
X116824892Y-66525360D01*
X116830463Y-66519501D01*
X116906823Y-66466352D01*
X116982349Y-66411957D01*
X116989729Y-66408647D01*
X116996367Y-66404028D01*
X117081880Y-66367331D01*
X117166793Y-66329260D01*
X117174687Y-66327504D01*
X117182120Y-66324315D01*
X117273259Y-66305585D01*
X117364108Y-66285384D01*
X117374550Y-66284770D01*
X117380117Y-66283626D01*
X117481184Y-66278500D01*
X117570698Y-66278500D01*
X117771795Y-66298950D01*
X117964659Y-66359461D01*
X118141395Y-66457557D01*
X118277097Y-66571100D01*
X119948899Y-68242901D01*
X120076637Y-68399558D01*
X120170224Y-68578722D01*
X120225831Y-68773057D01*
X120241500Y-68949301D01*
X120241500Y-72648035D01*
X120280141Y-72941544D01*
X120280143Y-72941556D01*
X120356770Y-73227533D01*
X120395826Y-73321821D01*
X120395830Y-73321831D01*
X120405642Y-73345517D01*
X120470066Y-73501052D01*
X120512791Y-73575053D01*
X120532676Y-73609495D01*
X120532679Y-73609501D01*
X120538138Y-73618956D01*
X120618097Y-73757448D01*
X120618102Y-73757454D01*
X120618107Y-73757462D01*
X120756008Y-73937178D01*
X120798326Y-73992328D01*
X123298326Y-76492328D01*
X123298325Y-76492328D01*
X123479588Y-76673590D01*
X123507672Y-76701674D01*
X123564791Y-76745503D01*
X123742545Y-76881899D01*
X123742552Y-76881903D01*
X123831129Y-76933043D01*
X123998948Y-77029934D01*
X124135709Y-77086582D01*
X124272471Y-77143231D01*
X124558443Y-77219856D01*
X124592592Y-77224351D01*
X124851970Y-77258501D01*
X125148030Y-77258501D01*
X125148038Y-77258500D01*
X130648030Y-77258500D01*
X130807185Y-77237546D01*
X130941544Y-77219858D01*
X130941548Y-77219857D01*
X130941557Y-77219856D01*
X130941563Y-77219854D01*
X130941570Y-77219853D01*
X131227522Y-77143233D01*
X131227522Y-77143232D01*
X131227529Y-77143231D01*
X131369211Y-77084543D01*
X131562822Y-77026481D01*
X131717517Y-77011739D01*
X131717424Y-77010071D01*
X131745386Y-77008500D01*
X131745406Y-77008500D01*
X131881047Y-76993217D01*
X132053015Y-76933043D01*
X132207281Y-76836111D01*
X132336111Y-76707281D01*
X132433043Y-76553015D01*
X132493217Y-76381047D01*
X132508500Y-76245406D01*
X132508500Y-76245386D01*
X132510071Y-76217424D01*
X132511955Y-76217529D01*
X132528950Y-76050413D01*
X132584545Y-75869207D01*
X132643231Y-75727529D01*
X132719856Y-75441557D01*
X132726291Y-75392680D01*
X132743500Y-75261968D01*
X132743500Y-75261965D01*
X132758500Y-75148030D01*
X132758500Y-74851970D01*
X132743500Y-74738034D01*
X132743500Y-74738030D01*
X132719858Y-74558455D01*
X132719853Y-74558429D01*
X132643233Y-74272477D01*
X132584545Y-74130793D01*
X132526481Y-73937178D01*
X132511739Y-73782482D01*
X132510071Y-73782576D01*
X132508500Y-73754612D01*
X132508500Y-73754594D01*
X132493217Y-73618953D01*
X132433043Y-73446985D01*
X132336111Y-73292719D01*
X132207281Y-73163889D01*
X132207278Y-73163887D01*
X132207277Y-73163886D01*
X132053016Y-73066957D01*
X131972735Y-73038866D01*
X131881047Y-73006783D01*
X131881045Y-73006782D01*
X131881043Y-73006782D01*
X131745422Y-72991501D01*
X131745407Y-72991500D01*
X131745406Y-72991500D01*
X131745404Y-72991500D01*
X131717424Y-72989929D01*
X131717529Y-72988044D01*
X131550413Y-72971050D01*
X131369211Y-72915456D01*
X131227529Y-72856769D01*
X131227526Y-72856768D01*
X131227521Y-72856766D01*
X131227522Y-72856766D01*
X130941570Y-72780146D01*
X130941544Y-72780141D01*
X130648035Y-72741500D01*
X130648030Y-72741500D01*
X126349302Y-72741500D01*
X126311466Y-72737652D01*
X126273445Y-72738616D01*
X126211154Y-72727451D01*
X126148205Y-72721050D01*
X126111917Y-72709664D01*
X126074481Y-72702955D01*
X126015716Y-72679481D01*
X125955341Y-72660539D01*
X125922089Y-72642082D01*
X125886768Y-72627974D01*
X125833929Y-72593150D01*
X125778605Y-72562443D01*
X125746211Y-72535339D01*
X125717992Y-72516741D01*
X125642902Y-72448900D01*
X125051100Y-71857098D01*
X124923363Y-71700440D01*
X124829776Y-71521277D01*
X124774169Y-71326941D01*
X124758500Y-71150698D01*
X124758500Y-67783498D01*
X124758501Y-67783469D01*
X124758501Y-67451969D01*
X124719857Y-67158445D01*
X124715503Y-67142195D01*
X124691809Y-67053770D01*
X124643231Y-66872471D01*
X124557792Y-66666204D01*
X124529934Y-66598948D01*
X124436086Y-66436399D01*
X124381903Y-66342552D01*
X124201674Y-66107672D01*
X124201665Y-66107663D01*
X123972810Y-65878807D01*
X123972771Y-65878770D01*
X122250194Y-64156193D01*
X120412328Y-62318326D01*
X120394500Y-62304646D01*
X120394497Y-62304643D01*
X120177453Y-62138100D01*
X120177450Y-62138098D01*
X120083605Y-62083916D01*
X120083600Y-62083913D01*
X119921052Y-61990066D01*
X119784297Y-61933420D01*
X119784290Y-61933417D01*
X119784290Y-61933418D01*
X119647530Y-61876769D01*
X119361556Y-61800143D01*
X119361544Y-61800141D01*
X119068035Y-61761500D01*
X119068030Y-61761500D01*
X117481184Y-61761500D01*
X117280087Y-61741050D01*
X117087223Y-61680539D01*
X116910487Y-61582443D01*
X116757116Y-61450778D01*
X116681444Y-61361179D01*
X116603263Y-61256742D01*
X116603261Y-61256739D01*
X116603257Y-61256736D01*
X116486205Y-61169111D01*
X116349201Y-61118011D01*
X116349198Y-61118010D01*
X116288642Y-61111500D01*
X116288638Y-61111500D01*
X111288638Y-61111500D01*
X106091362Y-61111500D01*
X106091357Y-61111500D01*
X106030801Y-61118010D01*
X106030798Y-61118011D01*
X105893794Y-61169111D01*
X105776742Y-61256736D01*
X105776736Y-61256742D01*
X105689111Y-61373794D01*
X105638011Y-61510798D01*
X105638010Y-61510801D01*
X105631500Y-61571357D01*
X95500500Y-61571357D01*
X95500500Y-50021794D01*
X95501451Y-49978219D01*
X95515719Y-49651424D01*
X95523314Y-49564606D01*
X95555642Y-49319047D01*
X95563166Y-49261896D01*
X95578292Y-49176111D01*
X95644384Y-48877992D01*
X95666926Y-48793864D01*
X95758738Y-48502672D01*
X95788539Y-48420794D01*
X95905386Y-48138702D01*
X95942198Y-48059758D01*
X96083189Y-47788918D01*
X96126736Y-47713491D01*
X96290797Y-47455966D01*
X96340767Y-47384602D01*
X96526645Y-47142361D01*
X96582650Y-47075619D01*
X96788912Y-46850523D01*
X96850523Y-46788912D01*
X97075624Y-46582645D01*
X97142361Y-46526645D01*
X97384602Y-46340767D01*
X97455966Y-46290797D01*
X97713491Y-46126736D01*
X97788918Y-46083189D01*
X98059758Y-45942198D01*
X98138702Y-45905386D01*
X98420794Y-45788539D01*
X98502672Y-45758738D01*
X98793864Y-45666926D01*
X98877992Y-45644384D01*
X99176111Y-45578292D01*
X99261896Y-45563166D01*
X99564610Y-45523313D01*
X99651419Y-45515719D01*
X99903092Y-45504731D01*
X99978220Y-45501451D01*
X100021795Y-45500500D01*
X145001000Y-45500500D01*
X145202097Y-45520950D01*
G37*
%TD.AperFunction*%
%TD*%
M02*
