G04 EAGLE Gerber RS-274X export*
G75*
%MOMM*%
%FSLAX34Y34*%
%LPD*%
%INSilkscreen Bottom*%
%IPPOS*%
%AMOC8*
5,1,8,0,0,1.08239X$1,22.5*%
G01*
G04 Define Apertures*
%ADD10C,0.508000*%
D10*
X639191Y749300D02*
X639193Y749178D01*
X639199Y749056D01*
X639209Y748934D01*
X639222Y748813D01*
X639240Y748692D01*
X639261Y748572D01*
X639287Y748452D01*
X639316Y748334D01*
X639348Y748216D01*
X639385Y748099D01*
X639425Y747984D01*
X639469Y747870D01*
X639517Y747758D01*
X639568Y747647D01*
X639623Y747538D01*
X639681Y747430D01*
X639743Y747325D01*
X639808Y747222D01*
X639876Y747120D01*
X639948Y747021D01*
X640022Y746925D01*
X640100Y746830D01*
X640181Y746739D01*
X640264Y746649D01*
X640350Y746563D01*
X640440Y746480D01*
X640531Y746399D01*
X640626Y746321D01*
X640722Y746247D01*
X640821Y746175D01*
X640923Y746107D01*
X641026Y746042D01*
X641131Y745980D01*
X641239Y745922D01*
X641348Y745867D01*
X641459Y745816D01*
X641571Y745768D01*
X641685Y745724D01*
X641800Y745684D01*
X641917Y745647D01*
X642035Y745615D01*
X642153Y745586D01*
X642273Y745560D01*
X642393Y745539D01*
X642514Y745521D01*
X642635Y745508D01*
X642757Y745498D01*
X642879Y745492D01*
X643001Y745490D01*
X643123Y745492D01*
X643245Y745498D01*
X643367Y745508D01*
X643488Y745521D01*
X643609Y745539D01*
X643729Y745560D01*
X643849Y745586D01*
X643967Y745615D01*
X644085Y745647D01*
X644202Y745684D01*
X644317Y745724D01*
X644431Y745768D01*
X644543Y745816D01*
X644654Y745867D01*
X644763Y745922D01*
X644871Y745980D01*
X644976Y746042D01*
X645079Y746107D01*
X645181Y746175D01*
X645280Y746247D01*
X645376Y746321D01*
X645471Y746399D01*
X645562Y746480D01*
X645652Y746563D01*
X645738Y746649D01*
X645821Y746739D01*
X645902Y746830D01*
X645980Y746925D01*
X646054Y747021D01*
X646126Y747120D01*
X646194Y747222D01*
X646259Y747325D01*
X646321Y747430D01*
X646379Y747538D01*
X646434Y747647D01*
X646485Y747758D01*
X646533Y747870D01*
X646577Y747984D01*
X646617Y748099D01*
X646654Y748216D01*
X646686Y748334D01*
X646715Y748452D01*
X646741Y748572D01*
X646762Y748692D01*
X646780Y748813D01*
X646793Y748934D01*
X646803Y749056D01*
X646809Y749178D01*
X646811Y749300D01*
X646809Y749422D01*
X646803Y749544D01*
X646793Y749666D01*
X646780Y749787D01*
X646762Y749908D01*
X646741Y750028D01*
X646715Y750148D01*
X646686Y750266D01*
X646654Y750384D01*
X646617Y750501D01*
X646577Y750616D01*
X646533Y750730D01*
X646485Y750842D01*
X646434Y750953D01*
X646379Y751062D01*
X646321Y751170D01*
X646259Y751275D01*
X646194Y751378D01*
X646126Y751480D01*
X646054Y751579D01*
X645980Y751675D01*
X645902Y751770D01*
X645821Y751861D01*
X645738Y751951D01*
X645652Y752037D01*
X645562Y752120D01*
X645471Y752201D01*
X645376Y752279D01*
X645280Y752353D01*
X645181Y752425D01*
X645079Y752493D01*
X644976Y752558D01*
X644871Y752620D01*
X644763Y752678D01*
X644654Y752733D01*
X644543Y752784D01*
X644431Y752832D01*
X644317Y752876D01*
X644202Y752916D01*
X644085Y752953D01*
X643967Y752985D01*
X643849Y753014D01*
X643729Y753040D01*
X643609Y753061D01*
X643488Y753079D01*
X643367Y753092D01*
X643245Y753102D01*
X643123Y753108D01*
X643001Y753110D01*
X642879Y753108D01*
X642757Y753102D01*
X642635Y753092D01*
X642514Y753079D01*
X642393Y753061D01*
X642273Y753040D01*
X642153Y753014D01*
X642035Y752985D01*
X641917Y752953D01*
X641800Y752916D01*
X641685Y752876D01*
X641571Y752832D01*
X641459Y752784D01*
X641348Y752733D01*
X641239Y752678D01*
X641131Y752620D01*
X641026Y752558D01*
X640923Y752493D01*
X640821Y752425D01*
X640722Y752353D01*
X640626Y752279D01*
X640531Y752201D01*
X640440Y752120D01*
X640350Y752037D01*
X640264Y751951D01*
X640181Y751861D01*
X640100Y751770D01*
X640022Y751675D01*
X639948Y751579D01*
X639876Y751480D01*
X639808Y751378D01*
X639743Y751275D01*
X639681Y751170D01*
X639623Y751062D01*
X639568Y750953D01*
X639517Y750842D01*
X639469Y750730D01*
X639425Y750616D01*
X639385Y750501D01*
X639348Y750384D01*
X639316Y750266D01*
X639287Y750148D01*
X639261Y750028D01*
X639240Y749908D01*
X639222Y749787D01*
X639209Y749666D01*
X639199Y749544D01*
X639193Y749422D01*
X639191Y749300D01*
X270510Y908050D02*
X270508Y908172D01*
X270502Y908294D01*
X270492Y908416D01*
X270479Y908537D01*
X270461Y908658D01*
X270440Y908778D01*
X270414Y908898D01*
X270385Y909016D01*
X270353Y909134D01*
X270316Y909251D01*
X270276Y909366D01*
X270232Y909480D01*
X270184Y909592D01*
X270133Y909703D01*
X270078Y909812D01*
X270020Y909920D01*
X269958Y910025D01*
X269893Y910128D01*
X269825Y910230D01*
X269753Y910329D01*
X269679Y910425D01*
X269601Y910520D01*
X269520Y910611D01*
X269437Y910701D01*
X269351Y910787D01*
X269261Y910870D01*
X269170Y910951D01*
X269075Y911029D01*
X268979Y911103D01*
X268880Y911175D01*
X268778Y911243D01*
X268675Y911308D01*
X268570Y911370D01*
X268462Y911428D01*
X268353Y911483D01*
X268242Y911534D01*
X268130Y911582D01*
X268016Y911626D01*
X267901Y911666D01*
X267784Y911703D01*
X267666Y911735D01*
X267548Y911764D01*
X267428Y911790D01*
X267308Y911811D01*
X267187Y911829D01*
X267066Y911842D01*
X266944Y911852D01*
X266822Y911858D01*
X266700Y911860D01*
X266578Y911858D01*
X266456Y911852D01*
X266334Y911842D01*
X266213Y911829D01*
X266092Y911811D01*
X265972Y911790D01*
X265852Y911764D01*
X265734Y911735D01*
X265616Y911703D01*
X265499Y911666D01*
X265384Y911626D01*
X265270Y911582D01*
X265158Y911534D01*
X265047Y911483D01*
X264938Y911428D01*
X264830Y911370D01*
X264725Y911308D01*
X264622Y911243D01*
X264520Y911175D01*
X264421Y911103D01*
X264325Y911029D01*
X264230Y910951D01*
X264139Y910870D01*
X264049Y910787D01*
X263963Y910701D01*
X263880Y910611D01*
X263799Y910520D01*
X263721Y910425D01*
X263647Y910329D01*
X263575Y910230D01*
X263507Y910128D01*
X263442Y910025D01*
X263380Y909920D01*
X263322Y909812D01*
X263267Y909703D01*
X263216Y909592D01*
X263168Y909480D01*
X263124Y909366D01*
X263084Y909251D01*
X263047Y909134D01*
X263015Y909016D01*
X262986Y908898D01*
X262960Y908778D01*
X262939Y908658D01*
X262921Y908537D01*
X262908Y908416D01*
X262898Y908294D01*
X262892Y908172D01*
X262890Y908050D01*
X262892Y907928D01*
X262898Y907806D01*
X262908Y907684D01*
X262921Y907563D01*
X262939Y907442D01*
X262960Y907322D01*
X262986Y907202D01*
X263015Y907084D01*
X263047Y906966D01*
X263084Y906849D01*
X263124Y906734D01*
X263168Y906620D01*
X263216Y906508D01*
X263267Y906397D01*
X263322Y906288D01*
X263380Y906180D01*
X263442Y906075D01*
X263507Y905972D01*
X263575Y905870D01*
X263647Y905771D01*
X263721Y905675D01*
X263799Y905580D01*
X263880Y905489D01*
X263963Y905399D01*
X264049Y905313D01*
X264139Y905230D01*
X264230Y905149D01*
X264325Y905071D01*
X264421Y904997D01*
X264520Y904925D01*
X264622Y904857D01*
X264725Y904792D01*
X264830Y904730D01*
X264938Y904672D01*
X265047Y904617D01*
X265158Y904566D01*
X265270Y904518D01*
X265384Y904474D01*
X265499Y904434D01*
X265616Y904397D01*
X265734Y904365D01*
X265852Y904336D01*
X265972Y904310D01*
X266092Y904289D01*
X266213Y904271D01*
X266334Y904258D01*
X266456Y904248D01*
X266578Y904242D01*
X266700Y904240D01*
X266822Y904242D01*
X266944Y904248D01*
X267066Y904258D01*
X267187Y904271D01*
X267308Y904289D01*
X267428Y904310D01*
X267548Y904336D01*
X267666Y904365D01*
X267784Y904397D01*
X267901Y904434D01*
X268016Y904474D01*
X268130Y904518D01*
X268242Y904566D01*
X268353Y904617D01*
X268462Y904672D01*
X268570Y904730D01*
X268675Y904792D01*
X268778Y904857D01*
X268880Y904925D01*
X268979Y904997D01*
X269075Y905071D01*
X269170Y905149D01*
X269261Y905230D01*
X269351Y905313D01*
X269437Y905399D01*
X269520Y905489D01*
X269601Y905580D01*
X269679Y905675D01*
X269753Y905771D01*
X269825Y905870D01*
X269893Y905972D01*
X269958Y906075D01*
X270020Y906180D01*
X270078Y906288D01*
X270133Y906397D01*
X270184Y906508D01*
X270232Y906620D01*
X270276Y906734D01*
X270316Y906849D01*
X270353Y906966D01*
X270385Y907084D01*
X270414Y907202D01*
X270440Y907322D01*
X270461Y907442D01*
X270479Y907563D01*
X270492Y907684D01*
X270502Y907806D01*
X270508Y907928D01*
X270510Y908050D01*
X669290Y908050D02*
X669292Y908172D01*
X669298Y908294D01*
X669308Y908416D01*
X669321Y908537D01*
X669339Y908658D01*
X669360Y908778D01*
X669386Y908898D01*
X669415Y909016D01*
X669447Y909134D01*
X669484Y909251D01*
X669524Y909366D01*
X669568Y909480D01*
X669616Y909592D01*
X669667Y909703D01*
X669722Y909812D01*
X669780Y909920D01*
X669842Y910025D01*
X669907Y910128D01*
X669975Y910230D01*
X670047Y910329D01*
X670121Y910425D01*
X670199Y910520D01*
X670280Y910611D01*
X670363Y910701D01*
X670449Y910787D01*
X670539Y910870D01*
X670630Y910951D01*
X670725Y911029D01*
X670821Y911103D01*
X670920Y911175D01*
X671022Y911243D01*
X671125Y911308D01*
X671230Y911370D01*
X671338Y911428D01*
X671447Y911483D01*
X671558Y911534D01*
X671670Y911582D01*
X671784Y911626D01*
X671899Y911666D01*
X672016Y911703D01*
X672134Y911735D01*
X672252Y911764D01*
X672372Y911790D01*
X672492Y911811D01*
X672613Y911829D01*
X672734Y911842D01*
X672856Y911852D01*
X672978Y911858D01*
X673100Y911860D01*
X673222Y911858D01*
X673344Y911852D01*
X673466Y911842D01*
X673587Y911829D01*
X673708Y911811D01*
X673828Y911790D01*
X673948Y911764D01*
X674066Y911735D01*
X674184Y911703D01*
X674301Y911666D01*
X674416Y911626D01*
X674530Y911582D01*
X674642Y911534D01*
X674753Y911483D01*
X674862Y911428D01*
X674970Y911370D01*
X675075Y911308D01*
X675178Y911243D01*
X675280Y911175D01*
X675379Y911103D01*
X675475Y911029D01*
X675570Y910951D01*
X675661Y910870D01*
X675751Y910787D01*
X675837Y910701D01*
X675920Y910611D01*
X676001Y910520D01*
X676079Y910425D01*
X676153Y910329D01*
X676225Y910230D01*
X676293Y910128D01*
X676358Y910025D01*
X676420Y909920D01*
X676478Y909812D01*
X676533Y909703D01*
X676584Y909592D01*
X676632Y909480D01*
X676676Y909366D01*
X676716Y909251D01*
X676753Y909134D01*
X676785Y909016D01*
X676814Y908898D01*
X676840Y908778D01*
X676861Y908658D01*
X676879Y908537D01*
X676892Y908416D01*
X676902Y908294D01*
X676908Y908172D01*
X676910Y908050D01*
X676908Y907928D01*
X676902Y907806D01*
X676892Y907684D01*
X676879Y907563D01*
X676861Y907442D01*
X676840Y907322D01*
X676814Y907202D01*
X676785Y907084D01*
X676753Y906966D01*
X676716Y906849D01*
X676676Y906734D01*
X676632Y906620D01*
X676584Y906508D01*
X676533Y906397D01*
X676478Y906288D01*
X676420Y906180D01*
X676358Y906075D01*
X676293Y905972D01*
X676225Y905870D01*
X676153Y905771D01*
X676079Y905675D01*
X676001Y905580D01*
X675920Y905489D01*
X675837Y905399D01*
X675751Y905313D01*
X675661Y905230D01*
X675570Y905149D01*
X675475Y905071D01*
X675379Y904997D01*
X675280Y904925D01*
X675178Y904857D01*
X675075Y904792D01*
X674970Y904730D01*
X674862Y904672D01*
X674753Y904617D01*
X674642Y904566D01*
X674530Y904518D01*
X674416Y904474D01*
X674301Y904434D01*
X674184Y904397D01*
X674066Y904365D01*
X673948Y904336D01*
X673828Y904310D01*
X673708Y904289D01*
X673587Y904271D01*
X673466Y904258D01*
X673344Y904248D01*
X673222Y904242D01*
X673100Y904240D01*
X672978Y904242D01*
X672856Y904248D01*
X672734Y904258D01*
X672613Y904271D01*
X672492Y904289D01*
X672372Y904310D01*
X672252Y904336D01*
X672134Y904365D01*
X672016Y904397D01*
X671899Y904434D01*
X671784Y904474D01*
X671670Y904518D01*
X671558Y904566D01*
X671447Y904617D01*
X671338Y904672D01*
X671230Y904730D01*
X671125Y904792D01*
X671022Y904857D01*
X670920Y904925D01*
X670821Y904997D01*
X670725Y905071D01*
X670630Y905149D01*
X670539Y905230D01*
X670449Y905313D01*
X670363Y905399D01*
X670280Y905489D01*
X670199Y905580D01*
X670121Y905675D01*
X670047Y905771D01*
X669975Y905870D01*
X669907Y905972D01*
X669842Y906075D01*
X669780Y906180D01*
X669722Y906288D01*
X669667Y906397D01*
X669616Y906508D01*
X669568Y906620D01*
X669524Y906734D01*
X669484Y906849D01*
X669447Y906966D01*
X669415Y907084D01*
X669386Y907202D01*
X669360Y907322D01*
X669339Y907442D01*
X669321Y907563D01*
X669308Y907684D01*
X669298Y907806D01*
X669292Y907928D01*
X669290Y908050D01*
X473710Y1572770D02*
X473708Y1572892D01*
X473702Y1573014D01*
X473692Y1573136D01*
X473679Y1573257D01*
X473661Y1573378D01*
X473640Y1573498D01*
X473614Y1573618D01*
X473585Y1573736D01*
X473553Y1573854D01*
X473516Y1573971D01*
X473476Y1574086D01*
X473432Y1574200D01*
X473384Y1574312D01*
X473333Y1574423D01*
X473278Y1574532D01*
X473220Y1574640D01*
X473158Y1574745D01*
X473093Y1574848D01*
X473025Y1574950D01*
X472953Y1575049D01*
X472879Y1575145D01*
X472801Y1575240D01*
X472720Y1575331D01*
X472637Y1575421D01*
X472551Y1575507D01*
X472461Y1575590D01*
X472370Y1575671D01*
X472275Y1575749D01*
X472179Y1575823D01*
X472080Y1575895D01*
X471978Y1575963D01*
X471875Y1576028D01*
X471770Y1576090D01*
X471662Y1576148D01*
X471553Y1576203D01*
X471442Y1576254D01*
X471330Y1576302D01*
X471216Y1576346D01*
X471101Y1576386D01*
X470984Y1576423D01*
X470866Y1576455D01*
X470748Y1576484D01*
X470628Y1576510D01*
X470508Y1576531D01*
X470387Y1576549D01*
X470266Y1576562D01*
X470144Y1576572D01*
X470022Y1576578D01*
X469900Y1576580D01*
X469778Y1576578D01*
X469656Y1576572D01*
X469534Y1576562D01*
X469413Y1576549D01*
X469292Y1576531D01*
X469172Y1576510D01*
X469052Y1576484D01*
X468934Y1576455D01*
X468816Y1576423D01*
X468699Y1576386D01*
X468584Y1576346D01*
X468470Y1576302D01*
X468358Y1576254D01*
X468247Y1576203D01*
X468138Y1576148D01*
X468030Y1576090D01*
X467925Y1576028D01*
X467822Y1575963D01*
X467720Y1575895D01*
X467621Y1575823D01*
X467525Y1575749D01*
X467430Y1575671D01*
X467339Y1575590D01*
X467249Y1575507D01*
X467163Y1575421D01*
X467080Y1575331D01*
X466999Y1575240D01*
X466921Y1575145D01*
X466847Y1575049D01*
X466775Y1574950D01*
X466707Y1574848D01*
X466642Y1574745D01*
X466580Y1574640D01*
X466522Y1574532D01*
X466467Y1574423D01*
X466416Y1574312D01*
X466368Y1574200D01*
X466324Y1574086D01*
X466284Y1573971D01*
X466247Y1573854D01*
X466215Y1573736D01*
X466186Y1573618D01*
X466160Y1573498D01*
X466139Y1573378D01*
X466121Y1573257D01*
X466108Y1573136D01*
X466098Y1573014D01*
X466092Y1572892D01*
X466090Y1572770D01*
X466092Y1572648D01*
X466098Y1572526D01*
X466108Y1572404D01*
X466121Y1572283D01*
X466139Y1572162D01*
X466160Y1572042D01*
X466186Y1571922D01*
X466215Y1571804D01*
X466247Y1571686D01*
X466284Y1571569D01*
X466324Y1571454D01*
X466368Y1571340D01*
X466416Y1571228D01*
X466467Y1571117D01*
X466522Y1571008D01*
X466580Y1570900D01*
X466642Y1570795D01*
X466707Y1570692D01*
X466775Y1570590D01*
X466847Y1570491D01*
X466921Y1570395D01*
X466999Y1570300D01*
X467080Y1570209D01*
X467163Y1570119D01*
X467249Y1570033D01*
X467339Y1569950D01*
X467430Y1569869D01*
X467525Y1569791D01*
X467621Y1569717D01*
X467720Y1569645D01*
X467822Y1569577D01*
X467925Y1569512D01*
X468030Y1569450D01*
X468138Y1569392D01*
X468247Y1569337D01*
X468358Y1569286D01*
X468470Y1569238D01*
X468584Y1569194D01*
X468699Y1569154D01*
X468816Y1569117D01*
X468934Y1569085D01*
X469052Y1569056D01*
X469172Y1569030D01*
X469292Y1569009D01*
X469413Y1568991D01*
X469534Y1568978D01*
X469656Y1568968D01*
X469778Y1568962D01*
X469900Y1568960D01*
X470022Y1568962D01*
X470144Y1568968D01*
X470266Y1568978D01*
X470387Y1568991D01*
X470508Y1569009D01*
X470628Y1569030D01*
X470748Y1569056D01*
X470866Y1569085D01*
X470984Y1569117D01*
X471101Y1569154D01*
X471216Y1569194D01*
X471330Y1569238D01*
X471442Y1569286D01*
X471553Y1569337D01*
X471662Y1569392D01*
X471770Y1569450D01*
X471875Y1569512D01*
X471978Y1569577D01*
X472080Y1569645D01*
X472179Y1569717D01*
X472275Y1569791D01*
X472370Y1569869D01*
X472461Y1569950D01*
X472551Y1570033D01*
X472637Y1570119D01*
X472720Y1570209D01*
X472801Y1570300D01*
X472879Y1570395D01*
X472953Y1570491D01*
X473025Y1570590D01*
X473093Y1570692D01*
X473158Y1570795D01*
X473220Y1570900D01*
X473278Y1571008D01*
X473333Y1571117D01*
X473384Y1571228D01*
X473432Y1571340D01*
X473476Y1571454D01*
X473516Y1571569D01*
X473553Y1571686D01*
X473585Y1571804D01*
X473614Y1571922D01*
X473640Y1572042D01*
X473661Y1572162D01*
X473679Y1572283D01*
X473692Y1572404D01*
X473702Y1572526D01*
X473708Y1572648D01*
X473710Y1572770D01*
M02*
