G04 EAGLE Gerber RS-274X export*
G75*
%MOMM*%
%FSLAX34Y34*%
%LPD*%
%INSolderpaste Top*%
%IPPOS*%
%AMOC8*
5,1,8,0,0,1.08239X$1,22.5*%
G01*
G04 Define Apertures*
%ADD10R,0.406400X0.990600*%
%ADD11R,1.016000X1.701800*%
%ADD12R,1.016000X1.752600*%
%ADD13R,1.117600X1.600200*%
%ADD14R,0.812800X0.889000*%
%ADD15R,1.676400X0.355600*%
D10*
X626491Y1104900D03*
X643509Y1104900D03*
X439039Y977900D03*
X422021Y977900D03*
X237109Y1104900D03*
X220091Y1104900D03*
D11*
X658471Y1016348D03*
X687427Y1016348D03*
D12*
X582676Y1016000D03*
X611124Y1016000D03*
D11*
X582422Y952500D03*
X611378Y952500D03*
D13*
X659130Y952500D03*
X687070Y952500D03*
X252730Y1016000D03*
X280670Y1016000D03*
D11*
X204978Y1016000D03*
X176022Y1016000D03*
X252222Y952500D03*
X281178Y952500D03*
D14*
X180250Y943050D03*
X200750Y943050D03*
X190500Y961950D03*
D15*
X403606Y1134150D03*
X403606Y1127650D03*
X403606Y1121150D03*
X403606Y1114650D03*
X403606Y1108150D03*
X403606Y1101650D03*
X403606Y1095150D03*
X403606Y1088650D03*
X403606Y1082150D03*
X403606Y1075650D03*
X459994Y1075650D03*
X459994Y1082150D03*
X459994Y1088650D03*
X459994Y1095150D03*
X459994Y1101650D03*
X459994Y1108150D03*
X459994Y1114650D03*
X459994Y1121150D03*
X459994Y1127650D03*
X459994Y1134150D03*
M02*
