G04 EAGLE Gerber RS-274X export*
G75*
%MOMM*%
%FSLAX34Y34*%
%LPD*%
%INSoldermask Bottom*%
%IPPOS*%
%AMOC8*
5,1,8,0,0,1.08239X$1,22.5*%
G01*
G04 Define Apertures*
%ADD10C,1.727200*%
%ADD11C,4.521200*%
%ADD12R,1.549400X1.549400*%
%ADD13C,1.549400*%
%ADD14R,1.574800X1.574800*%
%ADD15C,1.574800*%
%ADD16C,1.727200*%
%ADD17C,3.203200*%
%ADD18C,0.959600*%
D10*
X609600Y749300D03*
X609600Y599440D03*
D11*
X337820Y749300D03*
X337820Y599440D03*
D10*
X266700Y889000D03*
X241300Y889000D03*
X215900Y889000D03*
X190500Y889000D03*
X673100Y889000D03*
X647700Y889000D03*
X622300Y889000D03*
X596900Y889000D03*
X469900Y1553720D03*
X444500Y1553720D03*
X419100Y1553720D03*
X393700Y1553720D03*
D12*
X673100Y673100D03*
D13*
X698500Y698500D03*
X723900Y673100D03*
D14*
X800100Y698500D03*
D15*
X800100Y673100D03*
X800100Y647700D03*
D16*
X817880Y952500D02*
X833120Y952500D01*
X833120Y977900D02*
X817880Y977900D01*
X817880Y1003300D02*
X833120Y1003300D01*
X833120Y1028700D02*
X817880Y1028700D01*
X50800Y1028700D02*
X35560Y1028700D01*
X35560Y1003300D02*
X50800Y1003300D01*
X50800Y977900D02*
X35560Y977900D01*
X35560Y952500D02*
X50800Y952500D01*
D17*
X51816Y1488694D03*
X806704Y1488694D03*
X51816Y1173988D03*
X806704Y1173988D03*
D18*
X685800Y1143000D03*
X685800Y1092200D03*
X114300Y977900D03*
X520700Y977900D03*
X533400Y1079500D03*
X571500Y1079500D03*
X444500Y1511300D03*
X457200Y1054100D03*
X444500Y876300D03*
X698500Y723900D03*
X203200Y1066800D03*
X203200Y1130300D03*
X660400Y927100D03*
X660400Y825500D03*
X698500Y952500D03*
X787400Y1003300D03*
X292100Y850900D03*
X241300Y850900D03*
X127000Y1028700D03*
X266700Y1028700D03*
X419100Y1041400D03*
X495300Y1092200D03*
X152400Y1092200D03*
X190500Y1092200D03*
X215900Y1092200D03*
X279400Y1092200D03*
X520700Y1092200D03*
X381000Y1054100D03*
X317500Y990600D03*
X317500Y1130300D03*
X609600Y1092200D03*
X609600Y1143000D03*
X741066Y543074D03*
M02*
