%TF.GenerationSoftware,KiCad,Pcbnew,10.0.2*%
%TF.CreationDate,2026-05-12T13:30:47-04:00*%
%TF.ProjectId,Arduino_Mega,41726475-696e-46f5-9f4d-6567612e6b69,rev?*%
%TF.SameCoordinates,Original*%
%TF.FileFunction,Copper,L1,Top*%
%TF.FilePolarity,Positive*%
%FSLAX46Y46*%
G04 Gerber Fmt 4.6, Leading zero omitted, Abs format (unit mm)*
G04 Created by KiCad (PCBNEW 10.0.2) date 2026-05-12 13:30:47*
%MOMM*%
%LPD*%
G01*
G04 APERTURE LIST*
%TA.AperFunction,ComponentPad*%
%ADD10R,1.700000X1.700000*%
%TD*%
%TA.AperFunction,ComponentPad*%
%ADD11O,1.700000X1.700000*%
%TD*%
G04 APERTURE END LIST*
D10*
%TO.P,J7,1,Pin_1*%
%TO.N,GND*%
X193980000Y-92380000D03*
D11*
%TO.P,J7,2,Pin_2*%
X196520000Y-92380000D03*
%TO.P,J7,3,Pin_3*%
%TO.N,/\u002A52*%
X193980000Y-89840000D03*
%TO.P,J7,4,Pin_4*%
%TO.N,/53*%
X196520000Y-89840000D03*
%TO.P,J7,5,Pin_5*%
%TO.N,/50*%
X193980000Y-87300000D03*
%TO.P,J7,6,Pin_6*%
%TO.N,/51*%
X196520000Y-87300000D03*
%TO.P,J7,7,Pin_7*%
%TO.N,/48*%
X193980000Y-84760000D03*
%TO.P,J7,8,Pin_8*%
%TO.N,/49*%
X196520000Y-84760000D03*
%TO.P,J7,9,Pin_9*%
%TO.N,/\u002A46*%
X193980000Y-82220000D03*
%TO.P,J7,10,Pin_10*%
%TO.N,/47*%
X196520000Y-82220000D03*
%TO.P,J7,11,Pin_11*%
%TO.N,/\u002A44*%
X193980000Y-79680000D03*
%TO.P,J7,12,Pin_12*%
%TO.N,/\u002A45*%
X196520000Y-79680000D03*
%TO.P,J7,13,Pin_13*%
%TO.N,/42*%
X193980000Y-77140000D03*
%TO.P,J7,14,Pin_14*%
%TO.N,/43*%
X196520000Y-77140000D03*
%TO.P,J7,15,Pin_15*%
%TO.N,/40*%
X193980000Y-74600000D03*
%TO.P,J7,16,Pin_16*%
%TO.N,/41*%
X196520000Y-74600000D03*
%TO.P,J7,17,Pin_17*%
%TO.N,/38*%
X193980000Y-72060000D03*
%TO.P,J7,18,Pin_18*%
%TO.N,/39*%
X196520000Y-72060000D03*
%TO.P,J7,19,Pin_19*%
%TO.N,/36*%
X193980000Y-69520000D03*
%TO.P,J7,20,Pin_20*%
%TO.N,/37*%
X196520000Y-69520000D03*
%TO.P,J7,21,Pin_21*%
%TO.N,/34*%
X193980000Y-66980000D03*
%TO.P,J7,22,Pin_22*%
%TO.N,/35*%
X196520000Y-66980000D03*
%TO.P,J7,23,Pin_23*%
%TO.N,/32*%
X193980000Y-64440000D03*
%TO.P,J7,24,Pin_24*%
%TO.N,/33*%
X196520000Y-64440000D03*
%TO.P,J7,25,Pin_25*%
%TO.N,/30*%
X193980000Y-61900000D03*
%TO.P,J7,26,Pin_26*%
%TO.N,/31*%
X196520000Y-61900000D03*
%TO.P,J7,27,Pin_27*%
%TO.N,/28*%
X193980000Y-59360000D03*
%TO.P,J7,28,Pin_28*%
%TO.N,/29*%
X196520000Y-59360000D03*
%TO.P,J7,29,Pin_29*%
%TO.N,/26*%
X193980000Y-56820000D03*
%TO.P,J7,30,Pin_30*%
%TO.N,/27*%
X196520000Y-56820000D03*
%TO.P,J7,31,Pin_31*%
%TO.N,/24*%
X193980000Y-54280000D03*
%TO.P,J7,32,Pin_32*%
%TO.N,/25*%
X196520000Y-54280000D03*
%TO.P,J7,33,Pin_33*%
%TO.N,/22*%
X193980000Y-51740000D03*
%TO.P,J7,34,Pin_34*%
%TO.N,/23*%
X196520000Y-51740000D03*
%TO.P,J7,35,Pin_35*%
%TO.N,+5V*%
X193980000Y-49200000D03*
%TO.P,J7,36,Pin_36*%
X196520000Y-49200000D03*
%TD*%
D10*
%TO.P,J1,1,Pin_1*%
%TO.N,unconnected-(J1-Pin_1-Pad1)*%
X127940000Y-97460000D03*
D11*
%TO.P,J1,2,Pin_2*%
%TO.N,/IOREF*%
X130480000Y-97460000D03*
%TO.P,J1,3,Pin_3*%
%TO.N,/~{RESET}*%
X133020000Y-97460000D03*
%TO.P,J1,4,Pin_4*%
%TO.N,+3V3*%
X135560000Y-97460000D03*
%TO.P,J1,5,Pin_5*%
%TO.N,+5V*%
X138100000Y-97460000D03*
%TO.P,J1,6,Pin_6*%
%TO.N,GND*%
X140640000Y-97460000D03*
%TO.P,J1,7,Pin_7*%
X143180000Y-97460000D03*
%TO.P,J1,8,Pin_8*%
%TO.N,VCC*%
X145720000Y-97460000D03*
%TD*%
D10*
%TO.P,J3,1,Pin_1*%
%TO.N,/A0*%
X150800000Y-97460000D03*
D11*
%TO.P,J3,2,Pin_2*%
%TO.N,/A1*%
X153340000Y-97460000D03*
%TO.P,J3,3,Pin_3*%
%TO.N,/A2*%
X155880000Y-97460000D03*
%TO.P,J3,4,Pin_4*%
%TO.N,/A3*%
X158420000Y-97460000D03*
%TO.P,J3,5,Pin_5*%
%TO.N,/A4*%
X160960000Y-97460000D03*
%TO.P,J3,6,Pin_6*%
%TO.N,/A5*%
X163500000Y-97460000D03*
%TO.P,J3,7,Pin_7*%
%TO.N,/A6*%
X166040000Y-97460000D03*
%TO.P,J3,8,Pin_8*%
%TO.N,/A7*%
X168580000Y-97460000D03*
%TD*%
D10*
%TO.P,J5,1,Pin_1*%
%TO.N,/A8*%
X173660000Y-97460000D03*
D11*
%TO.P,J5,2,Pin_2*%
%TO.N,/A9*%
X176200000Y-97460000D03*
%TO.P,J5,3,Pin_3*%
%TO.N,/A10*%
X178740000Y-97460000D03*
%TO.P,J5,4,Pin_4*%
%TO.N,/A11*%
X181280000Y-97460000D03*
%TO.P,J5,5,Pin_5*%
%TO.N,/A12*%
X183820000Y-97460000D03*
%TO.P,J5,6,Pin_6*%
%TO.N,/A13*%
X186360000Y-97460000D03*
%TO.P,J5,7,Pin_7*%
%TO.N,/A14*%
X188900000Y-97460000D03*
%TO.P,J5,8,Pin_8*%
%TO.N,/A15*%
X191440000Y-97460000D03*
%TD*%
D10*
%TO.P,J2,1,Pin_1*%
%TO.N,/SCL{slash}21*%
X118796000Y-49200000D03*
D11*
%TO.P,J2,2,Pin_2*%
%TO.N,/SDA{slash}20*%
X121336000Y-49200000D03*
%TO.P,J2,3,Pin_3*%
%TO.N,/AREF*%
X123876000Y-49200000D03*
%TO.P,J2,4,Pin_4*%
%TO.N,GND*%
X126416000Y-49200000D03*
%TO.P,J2,5,Pin_5*%
%TO.N,/\u002A13*%
X128956000Y-49200000D03*
%TO.P,J2,6,Pin_6*%
%TO.N,/\u002A12*%
X131496000Y-49200000D03*
%TO.P,J2,7,Pin_7*%
%TO.N,/\u002A11*%
X134036000Y-49200000D03*
%TO.P,J2,8,Pin_8*%
%TO.N,/\u002A10*%
X136576000Y-49200000D03*
%TO.P,J2,9,Pin_9*%
%TO.N,/\u002A9*%
X139116000Y-49200000D03*
%TO.P,J2,10,Pin_10*%
%TO.N,/\u002A8*%
X141656000Y-49200000D03*
%TD*%
D10*
%TO.P,J4,1,Pin_1*%
%TO.N,/\u002A7*%
X145720000Y-49200000D03*
D11*
%TO.P,J4,2,Pin_2*%
%TO.N,/\u002A6*%
X148260000Y-49200000D03*
%TO.P,J4,3,Pin_3*%
%TO.N,/\u002A5*%
X150800000Y-49200000D03*
%TO.P,J4,4,Pin_4*%
%TO.N,/\u002A4*%
X153340000Y-49200000D03*
%TO.P,J4,5,Pin_5*%
%TO.N,/\u002A3*%
X155880000Y-49200000D03*
%TO.P,J4,6,Pin_6*%
%TO.N,/\u002A2*%
X158420000Y-49200000D03*
%TO.P,J4,7,Pin_7*%
%TO.N,/TX0{slash}1*%
X160960000Y-49200000D03*
%TO.P,J4,8,Pin_8*%
%TO.N,/RX0{slash}0*%
X163500000Y-49200000D03*
%TD*%
D10*
%TO.P,J6,1,Pin_1*%
%TO.N,/TX3{slash}14*%
X168580000Y-49200000D03*
D11*
%TO.P,J6,2,Pin_2*%
%TO.N,/RX3{slash}15*%
X171120000Y-49200000D03*
%TO.P,J6,3,Pin_3*%
%TO.N,/TX2{slash}16*%
X173660000Y-49200000D03*
%TO.P,J6,4,Pin_4*%
%TO.N,/RX2{slash}17*%
X176200000Y-49200000D03*
%TO.P,J6,5,Pin_5*%
%TO.N,/TX1{slash}18*%
X178740000Y-49200000D03*
%TO.P,J6,6,Pin_6*%
%TO.N,/RX1{slash}19*%
X181280000Y-49200000D03*
%TO.P,J6,7,Pin_7*%
%TO.N,/SDA{slash}20*%
X183820000Y-49200000D03*
%TO.P,J6,8,Pin_8*%
%TO.N,/SCL{slash}21*%
X186360000Y-49200000D03*
%TD*%
M02*
