M48
;Layer_Color=9474304
;FILE_FORMAT=4:4
METRIC,LZ
;TYPE=PLATED
T1F00S00C0.7112
T2F00S00C0.8500
T3F00S00C0.9500
T4F00S00C1.0200
%
T01
X001273Y000573
X001277Y000827
X00185Y0005
X00205Y00105
X0025
X00315Y00165
X0037Y00135
X00425
X00435Y00076251
X00375Y00075
X0037Y00055
X00385Y00045
Y00015
X00415Y0002
X0049Y00018188
X00335Y0005
X0055Y00075
Y0002
T02
X000346Y000573
X000854
X0006Y000827
T03
X00065Y001823
Y002077
X0012
Y001823
X00175
Y002077
X0023
Y001823
X00285
Y002077
X0034
Y001823
X00395
Y002077
X0045
Y001823
X00505
Y002077
X0056
Y001823
T04
X00575Y000398
Y000652
M30
