G04*
G04 #@! TF.GenerationSoftware,Altium Limited,Altium Designer,22.7.1 (60)*
G04*
G04 Layer_Physical_Order=1*
G04 Layer_Color=255*
%FSLAX44Y44*%
%MOMM*%
G71*
G04*
G04 #@! TF.SameCoordinates,5A77BAAA-BE11-4F58-8EC8-00DEF907BB60*
G04*
G04*
G04 #@! TF.FilePolarity,Positive*
G04*
G01*
G75*
%ADD14R,1.4500X1.2000*%
%ADD15R,1.2000X1.4500*%
G04:AMPARAMS|DCode=16|XSize=0.6mm|YSize=1.45mm|CornerRadius=0.051mm|HoleSize=0mm|Usage=FLASHONLY|Rotation=0.000|XOffset=0mm|YOffset=0mm|HoleType=Round|Shape=RoundedRectangle|*
%AMROUNDEDRECTD16*
21,1,0.6000,1.3480,0,0,0.0*
21,1,0.4980,1.4500,0,0,0.0*
1,1,0.1020,0.2490,-0.6740*
1,1,0.1020,-0.2490,-0.6740*
1,1,0.1020,-0.2490,0.6740*
1,1,0.1020,0.2490,0.6740*
%
%ADD16ROUNDEDRECTD16*%
G04:AMPARAMS|DCode=17|XSize=2.4692mm|YSize=0.6221mm|CornerRadius=0.3111mm|HoleSize=0mm|Usage=FLASHONLY|Rotation=0.000|XOffset=0mm|YOffset=0mm|HoleType=Round|Shape=RoundedRectangle|*
%AMROUNDEDRECTD17*
21,1,2.4692,0.0000,0,0,0.0*
21,1,1.8470,0.6221,0,0,0.0*
1,1,0.6221,0.9235,0.0000*
1,1,0.6221,-0.9235,0.0000*
1,1,0.6221,-0.9235,0.0000*
1,1,0.6221,0.9235,0.0000*
%
%ADD17ROUNDEDRECTD17*%
%ADD18R,2.4692X0.6221*%
%ADD19R,1.0000X1.3000*%
%ADD24C,1.4500*%
%ADD25R,1.4500X1.4500*%
%ADD26C,1.5700*%
%ADD27R,1.5700X1.5700*%
%ADD31C,0.5000*%
%ADD32C,1.3500*%
%ADD33R,1.3500X1.3500*%
%ADD34C,1.2700*%
D14*
X560000Y150000D02*
D03*
Y130000D02*
D03*
X505000Y150000D02*
D03*
Y130000D02*
D03*
X450000Y150000D02*
D03*
Y130000D02*
D03*
X395000Y150000D02*
D03*
Y130000D02*
D03*
X340000Y150000D02*
D03*
Y130000D02*
D03*
X285000Y150000D02*
D03*
Y130000D02*
D03*
X230000Y150000D02*
D03*
Y130000D02*
D03*
X175000Y150000D02*
D03*
Y130000D02*
D03*
X120000Y150000D02*
D03*
Y130000D02*
D03*
X65000Y150000D02*
D03*
Y130000D02*
D03*
D15*
X335000Y30000D02*
D03*
X355000D02*
D03*
Y75000D02*
D03*
X335000D02*
D03*
D16*
X284450Y82250D02*
D03*
X271750D02*
D03*
X259050D02*
D03*
X246350D02*
D03*
X233650D02*
D03*
X220950D02*
D03*
X208250D02*
D03*
X195550D02*
D03*
X284450Y27750D02*
D03*
X271750D02*
D03*
X259050D02*
D03*
X246350D02*
D03*
X233650D02*
D03*
X220950D02*
D03*
X208250D02*
D03*
X195550D02*
D03*
D17*
X459136Y74050D02*
D03*
Y61350D02*
D03*
Y48650D02*
D03*
Y35950D02*
D03*
X410864D02*
D03*
Y48650D02*
D03*
Y61350D02*
D03*
D18*
Y74050D02*
D03*
D19*
X530000Y40000D02*
D03*
X515000D02*
D03*
X530000Y75000D02*
D03*
X515000D02*
D03*
D24*
X560000Y182300D02*
D03*
X505000D02*
D03*
X450000D02*
D03*
X395000D02*
D03*
X340000D02*
D03*
X285000D02*
D03*
X230000D02*
D03*
X175000D02*
D03*
X120000D02*
D03*
X65000D02*
D03*
D25*
X560000Y207700D02*
D03*
X505000D02*
D03*
X450000D02*
D03*
X395000D02*
D03*
X340000D02*
D03*
X285000D02*
D03*
X230000D02*
D03*
X175000D02*
D03*
X120000D02*
D03*
X65000D02*
D03*
D26*
X575000Y65200D02*
D03*
D27*
Y39800D02*
D03*
D31*
X530000Y25000D02*
Y40000D01*
X507929Y20000D02*
X525000D01*
X530000Y25000D01*
X500000Y27929D02*
X507929Y20000D01*
X305000Y60000D02*
Y100000D01*
X310000Y105000D01*
X410864Y90864D02*
X415000Y95000D01*
X315000Y90000D02*
X320000Y95000D01*
X310000Y105000D02*
X520000D01*
X515000Y90000D02*
X520000Y95000D01*
X572071D01*
X415000D02*
X520000D01*
X315000Y55000D02*
Y90000D01*
X520000Y105000D02*
X545000Y130000D01*
X320000Y95000D02*
X415000D01*
X410864Y74050D02*
Y90864D01*
X449901Y61350D02*
X459136D01*
X515000Y75000D02*
Y90000D01*
X435000Y76251D02*
X449901Y61350D01*
X305000Y45000D02*
X315000Y55000D01*
X389687Y32929D02*
X392708Y35950D01*
X410864D01*
X377929Y32929D02*
X389687D01*
X375000Y30000D02*
X377929Y32929D01*
X375000Y21758D02*
Y30000D01*
X370492Y17250D02*
X375000Y21758D01*
X259550Y15450D02*
X265750Y9250D01*
X342179Y17250D02*
X370492D01*
X377166Y9250D02*
X382916Y15000D01*
X338500Y20929D02*
Y26500D01*
X265750Y9250D02*
X377166D01*
X382916Y15000D02*
X385000D01*
X338500Y20929D02*
X342179Y17250D01*
X335000Y30000D02*
X338500Y26500D01*
X284450Y29500D02*
X284950Y30000D01*
X335000D01*
X284450Y27750D02*
Y29500D01*
X370000Y55000D02*
X376350Y61350D01*
X410864D01*
X335000Y50000D02*
Y75000D01*
X259050Y27750D02*
X259550Y27250D01*
Y15450D02*
Y27250D01*
X388650Y48650D02*
X410864D01*
X385000Y45000D02*
X388650Y48650D01*
X265000Y45000D02*
X305000D01*
X270000Y55000D02*
X300000D01*
X305000Y60000D01*
X355000Y75000D02*
X375000D01*
X428650Y61350D02*
X441350Y48650D01*
X410864Y61350D02*
X428650D01*
X85400Y57300D02*
X127300D01*
X60000Y82700D02*
X127700D01*
X530000Y75000D02*
X550000D01*
X450000Y5000D02*
X535000D01*
X550000Y20000D01*
X441290Y13710D02*
X450000Y5000D01*
X441290Y13710D02*
Y40487D01*
X441350Y40547D02*
Y48650D01*
X441290Y40487D02*
X441350Y40547D01*
X500000Y27929D02*
Y58100D01*
X490000Y18188D02*
Y68100D01*
X500000Y58100D01*
X484050Y74050D02*
X490000Y68100D01*
X459136Y74050D02*
X484050D01*
X410864Y24136D02*
Y35950D01*
Y24136D02*
X415000Y20000D01*
X515000Y40000D02*
Y75000D01*
X575000Y65200D02*
X585200D01*
X590000Y70000D01*
Y200000D01*
X560000Y207700D02*
X582300D01*
X590000Y200000D01*
X515000Y75000D02*
X515000Y75000D01*
X572071Y95000D02*
X575000Y92071D01*
Y65200D02*
Y92071D01*
X246350Y45000D02*
Y58650D01*
Y27750D02*
Y45000D01*
X271250Y28250D02*
Y38750D01*
Y28250D02*
X271750Y27750D01*
X270000Y40000D02*
X271250Y38750D01*
X265000Y45000D02*
X270000Y40000D01*
Y40000D02*
Y40000D01*
X246350Y45000D02*
X265000D01*
X240000Y65000D02*
X246350Y58650D01*
X195550Y67929D02*
Y82250D01*
Y67929D02*
X198479Y65000D01*
X240000D01*
X208250Y27750D02*
Y32000D01*
X204065Y36185D02*
X208250Y32000D01*
X185000Y50000D02*
X191029D01*
X204065Y36185D02*
Y36964D01*
X191029Y50000D02*
X204065Y36964D01*
X315000Y135000D02*
Y165000D01*
Y135000D02*
X320000Y130000D01*
X340000D01*
X430000D02*
X450000D01*
X425000Y135000D02*
X430000Y130000D01*
X246350Y101350D02*
X250000Y105000D01*
X246350Y82250D02*
Y101350D01*
X195550Y25500D02*
Y27750D01*
X195050Y25000D02*
X195550Y25500D01*
X180000Y25000D02*
X195050D01*
X170000Y35000D02*
X180000Y25000D01*
X170000Y35000D02*
Y95000D01*
X155000Y110000D02*
X170000Y95000D01*
X130000Y110000D02*
X155000D01*
X120000Y130000D02*
X123500Y126500D01*
Y116500D02*
Y126500D01*
Y116500D02*
X130000Y110000D01*
X179750Y122929D02*
Y126500D01*
X210000Y120000D02*
X220950Y109050D01*
X175000Y130000D02*
X176250D01*
X179750Y126500D01*
X182679Y120000D02*
X210000D01*
X179750Y122929D02*
X182679Y120000D01*
X205000Y102916D02*
Y105000D01*
Y102916D02*
X208250Y99666D01*
Y82250D02*
Y99666D01*
X220950Y82250D02*
Y109050D01*
X375000Y130000D02*
X395000D01*
X370000Y135000D02*
X375000Y130000D01*
X441350Y48650D02*
X459136D01*
X355000Y30000D02*
Y75000D01*
X530000Y40000D02*
X574800D01*
X575000Y39800D01*
X545000Y130000D02*
X560000D01*
X486500Y126500D02*
X501500D01*
X475000Y115000D02*
X486500Y126500D01*
X305000Y115000D02*
X475000D01*
X295000Y105000D02*
X305000Y115000D01*
X290000Y65000D02*
X295000Y70000D01*
Y105000D01*
X274679Y65000D02*
X290000D01*
X271750Y67929D02*
X274679Y65000D01*
X271750Y67929D02*
Y82250D01*
X259050Y65950D02*
X270000Y55000D01*
X259050Y65950D02*
Y82250D01*
X501500Y126500D02*
X505000Y130000D01*
X230000Y115721D02*
Y130000D01*
X233650Y82250D02*
Y112071D01*
X230000Y115721D02*
X233650Y112071D01*
X34600Y57300D02*
X60000Y82700D01*
X220450Y27250D02*
X220950Y27750D01*
X220450Y15450D02*
Y27250D01*
X215000Y10000D02*
X220450Y15450D01*
X10000Y15000D02*
X15000Y10000D01*
X215000D01*
X10000Y15000D02*
Y125000D01*
X15000Y130000D01*
X65000D01*
X284450Y82250D02*
Y86500D01*
X285000Y87050D02*
Y130000D01*
X284450Y86500D02*
X285000Y87050D01*
X560000Y150000D02*
Y182300D01*
X505000Y150000D02*
Y182300D01*
X450000Y150000D02*
X450000Y150000D01*
X450000Y150000D02*
Y182300D01*
X395000Y150000D02*
Y182300D01*
X340000Y150000D02*
Y182300D01*
X285000D02*
X285000Y182300D01*
Y150000D02*
Y182300D01*
X230000Y150000D02*
Y182300D01*
X230000Y182300D02*
X230000Y182300D01*
X175000Y150000D02*
Y182300D01*
X120000D02*
X120000Y182300D01*
Y150000D02*
Y182300D01*
X65000Y150000D02*
Y182300D01*
X65000Y182300D02*
X65000Y182300D01*
X505000Y207700D02*
X560000D01*
X450000D02*
X505000D01*
X395000D02*
X450000D01*
X340000D02*
X395000D01*
X285000D02*
X340000D01*
X230000D02*
X285000D01*
X175000D02*
X230000D01*
X120000D02*
X175000D01*
X65000Y205000D02*
X67700Y207700D01*
X120000D01*
X65000Y205000D02*
X65000Y205000D01*
X65000Y205000D02*
Y207700D01*
D32*
X34600Y57300D02*
D03*
X60000Y82700D02*
D03*
D33*
X85400Y57300D02*
D03*
D34*
X435000Y76251D02*
D03*
X127300Y57300D02*
D03*
X370000Y55000D02*
D03*
X335000Y50000D02*
D03*
X127700Y82700D02*
D03*
X385000Y15000D02*
D03*
Y45000D02*
D03*
X375000Y75000D02*
D03*
X550000D02*
D03*
Y20000D02*
D03*
X415000D02*
D03*
X490000Y18188D02*
D03*
X185000Y50000D02*
D03*
X315000Y165000D02*
D03*
X425000Y135000D02*
D03*
X250000Y105000D02*
D03*
X205000D02*
D03*
X370000Y135000D02*
D03*
M02*
