G04*
G04 #@! TF.GenerationSoftware,Altium Limited,Altium Designer,22.7.1 (60)*
G04*
G04 Layer_Physical_Order=2*
G04 Layer_Color=16711680*
%FSLAX44Y44*%
%MOMM*%
G71*
G04*
G04 #@! TF.SameCoordinates,5A77BAAA-BE11-4F58-8EC8-00DEF907BB60*
G04*
G04*
G04 #@! TF.FilePolarity,Positive*
G04*
G01*
G75*
%ADD24C,1.4500*%
%ADD25R,1.4500X1.4500*%
%ADD26C,1.5700*%
%ADD27R,1.5700X1.5700*%
%ADD31C,0.5000*%
%ADD32C,1.3500*%
%ADD33R,1.3500X1.3500*%
%ADD34C,1.2700*%
G36*
X600000Y229277D02*
Y0D01*
X107D01*
X-83Y191D01*
Y229985D01*
X599292D01*
X600000Y229277D01*
D02*
G37*
%LPC*%
G36*
X294790Y217490D02*
X286270D01*
Y208970D01*
X294790D01*
Y217490D01*
D02*
G37*
G36*
X283730D02*
X275210D01*
Y208970D01*
X283730D01*
Y217490D01*
D02*
G37*
G36*
X404790D02*
X396270D01*
Y208970D01*
X404790D01*
Y217490D01*
D02*
G37*
G36*
X129790D02*
X121270D01*
Y208970D01*
X129790D01*
Y217490D01*
D02*
G37*
G36*
X118730D02*
X110210D01*
Y208970D01*
X118730D01*
Y217490D01*
D02*
G37*
G36*
X393730D02*
X385210D01*
Y208970D01*
X393730D01*
Y217490D01*
D02*
G37*
G36*
X514790D02*
X506270D01*
Y208970D01*
X514790D01*
Y217490D01*
D02*
G37*
G36*
X239790D02*
X231270D01*
Y208970D01*
X239790D01*
Y217490D01*
D02*
G37*
G36*
X184790D02*
X176270D01*
Y208970D01*
X184790D01*
Y217490D01*
D02*
G37*
G36*
X503730D02*
X495210D01*
Y208970D01*
X503730D01*
Y217490D01*
D02*
G37*
G36*
X173730D02*
X165210D01*
Y208970D01*
X173730D01*
Y217490D01*
D02*
G37*
G36*
X228730D02*
X220210D01*
Y208970D01*
X228730D01*
Y217490D01*
D02*
G37*
G36*
X459790D02*
X451270D01*
Y208970D01*
X459790D01*
Y217490D01*
D02*
G37*
G36*
X349790D02*
X341270D01*
Y208970D01*
X349790D01*
Y217490D01*
D02*
G37*
G36*
X74790D02*
X66270D01*
Y208970D01*
X74790D01*
Y217490D01*
D02*
G37*
G36*
X63730D02*
X55210D01*
Y208970D01*
X63730D01*
Y217490D01*
D02*
G37*
G36*
X448730D02*
X440210D01*
Y208970D01*
X448730D01*
Y217490D01*
D02*
G37*
G36*
X338730D02*
X330210D01*
Y208970D01*
X338730D01*
Y217490D01*
D02*
G37*
G36*
X569790D02*
X561270D01*
Y208970D01*
X569790D01*
Y217490D01*
D02*
G37*
G36*
X558730D02*
X550210D01*
Y208970D01*
X558730D01*
Y217490D01*
D02*
G37*
G36*
X569790Y206430D02*
X561270D01*
Y197910D01*
X569790D01*
Y206430D01*
D02*
G37*
G36*
X558730D02*
X550210D01*
Y197910D01*
X558730D01*
Y206430D01*
D02*
G37*
G36*
X514790Y206430D02*
X506270D01*
Y197910D01*
X514790D01*
Y206430D01*
D02*
G37*
G36*
X503730D02*
X495210D01*
Y197910D01*
X503730D01*
Y206430D01*
D02*
G37*
G36*
X459790Y206430D02*
X451270D01*
Y197910D01*
X459790D01*
Y206430D01*
D02*
G37*
G36*
X448730D02*
X440210D01*
Y197910D01*
X448730D01*
Y206430D01*
D02*
G37*
G36*
X404790Y206430D02*
X396270D01*
Y197910D01*
X404790D01*
Y206430D01*
D02*
G37*
G36*
X393730D02*
X385210D01*
Y197910D01*
X393730D01*
Y206430D01*
D02*
G37*
G36*
X349790Y206430D02*
X341270D01*
Y197910D01*
X349790D01*
Y206430D01*
D02*
G37*
G36*
X338730D02*
X330210D01*
Y197910D01*
X338730D01*
Y206430D01*
D02*
G37*
G36*
X294790Y206430D02*
X286270D01*
Y197910D01*
X294790D01*
Y206430D01*
D02*
G37*
G36*
X283730D02*
X275210D01*
Y197910D01*
X283730D01*
Y206430D01*
D02*
G37*
G36*
X239790Y206430D02*
X231270D01*
Y197910D01*
X239790D01*
Y206430D01*
D02*
G37*
G36*
X228730D02*
X220210D01*
Y197910D01*
X228730D01*
Y206430D01*
D02*
G37*
G36*
X184790D02*
X176270D01*
Y197910D01*
X184790D01*
Y206430D01*
D02*
G37*
G36*
X173730D02*
X165210D01*
Y197910D01*
X173730D01*
Y206430D01*
D02*
G37*
G36*
X129790Y206430D02*
X121270D01*
Y197910D01*
X129790D01*
Y206430D01*
D02*
G37*
G36*
X118730D02*
X110210D01*
Y197910D01*
X118730D01*
Y206430D01*
D02*
G37*
G36*
X74790Y206430D02*
X66270D01*
Y197910D01*
X74790D01*
Y206430D01*
D02*
G37*
G36*
X63730D02*
X55210D01*
Y197910D01*
X63730D01*
Y206430D01*
D02*
G37*
G36*
X561349Y192550D02*
X558651D01*
X556044Y191852D01*
X553706Y190502D01*
X551798Y188594D01*
X550448Y186256D01*
X549750Y183649D01*
Y180951D01*
X550448Y178344D01*
X551798Y176006D01*
X553706Y174098D01*
X556044Y172749D01*
X558651Y172050D01*
X561349D01*
X563956Y172749D01*
X566294Y174098D01*
X568202Y176006D01*
X569551Y178344D01*
X570250Y180951D01*
Y183649D01*
X569551Y186256D01*
X568202Y188594D01*
X566294Y190502D01*
X563956Y191852D01*
X561349Y192550D01*
D02*
G37*
G36*
X506349D02*
X503651D01*
X501044Y191852D01*
X498706Y190502D01*
X496798Y188594D01*
X495448Y186256D01*
X494750Y183649D01*
Y180951D01*
X495448Y178344D01*
X496798Y176006D01*
X498706Y174098D01*
X501044Y172749D01*
X503651Y172050D01*
X506349D01*
X508956Y172749D01*
X511294Y174098D01*
X513202Y176006D01*
X514551Y178344D01*
X515250Y180951D01*
Y183649D01*
X514551Y186256D01*
X513202Y188594D01*
X511294Y190502D01*
X508956Y191852D01*
X506349Y192550D01*
D02*
G37*
G36*
X451349D02*
X448651D01*
X446044Y191852D01*
X443706Y190502D01*
X441798Y188594D01*
X440448Y186256D01*
X439750Y183649D01*
Y180951D01*
X440448Y178344D01*
X441798Y176006D01*
X443706Y174098D01*
X446044Y172749D01*
X448651Y172050D01*
X451349D01*
X453956Y172749D01*
X456294Y174098D01*
X458202Y176006D01*
X459551Y178344D01*
X460250Y180951D01*
Y183649D01*
X459551Y186256D01*
X458202Y188594D01*
X456294Y190502D01*
X453956Y191852D01*
X451349Y192550D01*
D02*
G37*
G36*
X396349D02*
X393651D01*
X391044Y191852D01*
X388706Y190502D01*
X386798Y188594D01*
X385448Y186256D01*
X384750Y183649D01*
Y180951D01*
X385448Y178344D01*
X386798Y176006D01*
X388706Y174098D01*
X391044Y172749D01*
X393651Y172050D01*
X396349D01*
X398956Y172749D01*
X401294Y174098D01*
X403202Y176006D01*
X404551Y178344D01*
X405250Y180951D01*
Y183649D01*
X404551Y186256D01*
X403202Y188594D01*
X401294Y190502D01*
X398956Y191852D01*
X396349Y192550D01*
D02*
G37*
G36*
X341349D02*
X338651D01*
X336044Y191852D01*
X333706Y190502D01*
X331798Y188594D01*
X330448Y186256D01*
X329750Y183649D01*
Y180951D01*
X330448Y178344D01*
X331798Y176006D01*
X333706Y174098D01*
X336044Y172749D01*
X338651Y172050D01*
X341349D01*
X343956Y172749D01*
X346294Y174098D01*
X348202Y176006D01*
X349551Y178344D01*
X350250Y180951D01*
Y183649D01*
X349551Y186256D01*
X348202Y188594D01*
X346294Y190502D01*
X343956Y191852D01*
X341349Y192550D01*
D02*
G37*
G36*
X286349D02*
X283650D01*
X281044Y191852D01*
X278706Y190502D01*
X276798Y188594D01*
X275448Y186256D01*
X274750Y183649D01*
Y180951D01*
X275448Y178344D01*
X276798Y176006D01*
X278706Y174098D01*
X281044Y172749D01*
X283650Y172050D01*
X286349D01*
X288956Y172749D01*
X291294Y174098D01*
X293202Y176006D01*
X294551Y178344D01*
X295250Y180951D01*
Y183649D01*
X294551Y186256D01*
X293202Y188594D01*
X291294Y190502D01*
X288956Y191852D01*
X286349Y192550D01*
D02*
G37*
G36*
X231349D02*
X228650D01*
X226044Y191852D01*
X223706Y190502D01*
X221798Y188594D01*
X220448Y186256D01*
X219750Y183649D01*
Y180951D01*
X220448Y178344D01*
X221798Y176006D01*
X223706Y174098D01*
X226044Y172749D01*
X228650Y172050D01*
X231349D01*
X233956Y172749D01*
X236294Y174098D01*
X238202Y176006D01*
X239551Y178344D01*
X240250Y180951D01*
Y183649D01*
X239551Y186256D01*
X238202Y188594D01*
X236294Y190502D01*
X233956Y191852D01*
X231349Y192550D01*
D02*
G37*
G36*
X176349D02*
X173651D01*
X171044Y191852D01*
X168706Y190502D01*
X166798Y188594D01*
X165448Y186256D01*
X164750Y183649D01*
Y180951D01*
X165448Y178344D01*
X166798Y176006D01*
X168706Y174098D01*
X171044Y172749D01*
X173651Y172050D01*
X176349D01*
X178956Y172749D01*
X181294Y174098D01*
X183202Y176006D01*
X184551Y178344D01*
X185250Y180951D01*
Y183649D01*
X184551Y186256D01*
X183202Y188594D01*
X181294Y190502D01*
X178956Y191852D01*
X176349Y192550D01*
D02*
G37*
G36*
X121349D02*
X118651D01*
X116044Y191852D01*
X113706Y190502D01*
X111798Y188594D01*
X110449Y186256D01*
X109750Y183649D01*
Y180951D01*
X110449Y178344D01*
X111798Y176006D01*
X113706Y174098D01*
X116044Y172749D01*
X118651Y172050D01*
X121349D01*
X123956Y172749D01*
X126294Y174098D01*
X128202Y176006D01*
X129551Y178344D01*
X130250Y180951D01*
Y183649D01*
X129551Y186256D01*
X128202Y188594D01*
X126294Y190502D01*
X123956Y191852D01*
X121349Y192550D01*
D02*
G37*
G36*
X66349D02*
X63650D01*
X61044Y191852D01*
X58706Y190502D01*
X56798Y188594D01*
X55448Y186256D01*
X54750Y183649D01*
Y180951D01*
X55448Y178344D01*
X56798Y176006D01*
X58706Y174098D01*
X61044Y172749D01*
X63650Y172050D01*
X66349D01*
X68956Y172749D01*
X71294Y174098D01*
X73202Y176006D01*
X74551Y178344D01*
X75250Y180951D01*
Y183649D01*
X74551Y186256D01*
X73202Y188594D01*
X71294Y190502D01*
X68956Y191852D01*
X66349Y192550D01*
D02*
G37*
G36*
X316231Y174350D02*
X313769D01*
X311391Y173713D01*
X309259Y172482D01*
X307518Y170741D01*
X307441Y170608D01*
X195000D01*
X192854Y170181D01*
X191035Y168965D01*
X181035Y158965D01*
X179819Y157146D01*
X179392Y155000D01*
Y57559D01*
X179259Y57482D01*
X177518Y55741D01*
X176287Y53609D01*
X175650Y51231D01*
Y48769D01*
X176287Y46391D01*
X177518Y44259D01*
X179259Y42518D01*
X181391Y41287D01*
X183769Y40650D01*
X186231D01*
X188609Y41287D01*
X190741Y42518D01*
X192482Y44259D01*
X193713Y46391D01*
X194350Y48769D01*
Y51231D01*
X193713Y53609D01*
X192482Y55741D01*
X190741Y57482D01*
X190608Y57559D01*
Y152677D01*
X197323Y159392D01*
X307441D01*
X307518Y159259D01*
X309259Y157518D01*
X311391Y156287D01*
X313769Y155650D01*
X316231D01*
X318609Y156287D01*
X320741Y157518D01*
X322482Y159259D01*
X323713Y161391D01*
X324350Y163769D01*
Y166231D01*
X323713Y168609D01*
X322482Y170741D01*
X320741Y172482D01*
X318609Y173713D01*
X316231Y174350D01*
D02*
G37*
G36*
X426231Y144350D02*
X423769D01*
X421391Y143713D01*
X419259Y142482D01*
X417518Y140741D01*
X416287Y138609D01*
X415650Y136231D01*
Y133769D01*
X416130Y131977D01*
X409761Y125608D01*
X374972D01*
X374632Y126878D01*
X375741Y127518D01*
X377482Y129259D01*
X378713Y131391D01*
X379350Y133769D01*
Y136231D01*
X378713Y138609D01*
X377482Y140741D01*
X375741Y142482D01*
X373609Y143713D01*
X371231Y144350D01*
X368769D01*
X366391Y143713D01*
X364259Y142482D01*
X362518Y140741D01*
X362441Y140608D01*
X210000D01*
X207854Y140181D01*
X206035Y138965D01*
X201035Y133965D01*
X199819Y132146D01*
X199392Y130000D01*
Y112559D01*
X199259Y112482D01*
X197518Y110741D01*
X196287Y108609D01*
X195650Y106231D01*
Y103769D01*
X196287Y101391D01*
X197518Y99259D01*
X199259Y97518D01*
X201391Y96287D01*
X203769Y95650D01*
X206231D01*
X208609Y96287D01*
X210741Y97518D01*
X212482Y99259D01*
X213713Y101391D01*
X214350Y103769D01*
Y106231D01*
X213713Y108609D01*
X212482Y110741D01*
X210741Y112482D01*
X210608Y112559D01*
Y127677D01*
X212323Y129392D01*
X362441D01*
X362518Y129259D01*
X364259Y127518D01*
X365368Y126878D01*
X365028Y125608D01*
X252929D01*
X250783Y125181D01*
X248964Y123965D01*
X246035Y121036D01*
X244819Y119217D01*
X244392Y117071D01*
Y112559D01*
X244259Y112482D01*
X242518Y110741D01*
X241287Y108609D01*
X240650Y106231D01*
Y103769D01*
X241287Y101391D01*
X242518Y99259D01*
X244259Y97518D01*
X246391Y96287D01*
X248769Y95650D01*
X251231D01*
X253609Y96287D01*
X255741Y97518D01*
X257482Y99259D01*
X258713Y101391D01*
X259350Y103769D01*
Y106231D01*
X258713Y108609D01*
X257482Y110741D01*
X255741Y112482D01*
X255608Y112559D01*
Y114392D01*
X412084D01*
X414230Y114819D01*
X416049Y116035D01*
X425664Y125650D01*
X426231D01*
X428609Y126287D01*
X430741Y127518D01*
X432482Y129259D01*
X433713Y131391D01*
X434350Y133769D01*
Y136231D01*
X433713Y138609D01*
X432482Y140741D01*
X430741Y142482D01*
X428609Y143713D01*
X426231Y144350D01*
D02*
G37*
G36*
X436231Y85601D02*
X433769D01*
X431391Y84964D01*
X429259Y83733D01*
X427518Y81992D01*
X427080Y81233D01*
X381990D01*
X380741Y82482D01*
X378609Y83713D01*
X376231Y84350D01*
X373769D01*
X371391Y83713D01*
X369259Y82482D01*
X367518Y80741D01*
X366287Y78609D01*
X365650Y76231D01*
Y73769D01*
X366287Y71391D01*
X367518Y69259D01*
X369259Y67518D01*
X371391Y66287D01*
X373769Y65650D01*
X376231D01*
X378609Y66287D01*
X380741Y67518D01*
X382482Y69259D01*
X382920Y70018D01*
X428010D01*
X429259Y68769D01*
X431391Y67538D01*
X433769Y66901D01*
X436231D01*
X438609Y67538D01*
X440741Y68769D01*
X442482Y70510D01*
X443713Y72642D01*
X444350Y75020D01*
Y77482D01*
X443713Y79860D01*
X442482Y81992D01*
X440741Y83733D01*
X438609Y84964D01*
X436231Y85601D01*
D02*
G37*
G36*
X61284Y92450D02*
X58716D01*
X56237Y91785D01*
X54013Y90502D01*
X52198Y88687D01*
X50915Y86463D01*
X50250Y83984D01*
Y81416D01*
X50915Y78937D01*
X52198Y76713D01*
X54013Y74898D01*
X56237Y73615D01*
X58716Y72950D01*
X61284D01*
X63763Y73615D01*
X65987Y74898D01*
X67802Y76713D01*
X69085Y78937D01*
X69750Y81416D01*
Y83984D01*
X69085Y86463D01*
X67802Y88687D01*
X65987Y90502D01*
X63763Y91785D01*
X61284Y92450D01*
D02*
G37*
G36*
X576368Y75590D02*
X576270D01*
Y66470D01*
X585390D01*
Y66568D01*
X584682Y69210D01*
X583314Y71580D01*
X581380Y73514D01*
X579010Y74882D01*
X576368Y75590D01*
D02*
G37*
G36*
X573730D02*
X573632D01*
X570990Y74882D01*
X568620Y73514D01*
X566686Y71580D01*
X565318Y69210D01*
X564610Y66568D01*
Y66470D01*
X573730D01*
Y75590D01*
D02*
G37*
G36*
X585390Y63930D02*
X576270D01*
Y54810D01*
X576368D01*
X579010Y55518D01*
X581380Y56886D01*
X583314Y58820D01*
X584682Y61190D01*
X585390Y63832D01*
Y63930D01*
D02*
G37*
G36*
X573730D02*
X564610D01*
Y63832D01*
X565318Y61190D01*
X566686Y58820D01*
X568620Y56886D01*
X570990Y55518D01*
X573632Y54810D01*
X573730D01*
Y63930D01*
D02*
G37*
G36*
X128931Y92050D02*
X126469D01*
X124091Y91413D01*
X121959Y90182D01*
X120218Y88441D01*
X118987Y86309D01*
X118350Y83931D01*
Y81469D01*
X118987Y79091D01*
X120218Y76959D01*
X121959Y75218D01*
X124091Y73987D01*
X126469Y73350D01*
X128931D01*
X131309Y73987D01*
X133441Y75218D01*
X135182Y76959D01*
X135259Y77092D01*
X149977D01*
X154392Y72677D01*
Y55334D01*
X153122Y54808D01*
X146665Y61265D01*
X144846Y62481D01*
X142700Y62908D01*
X134859D01*
X134782Y63041D01*
X133041Y64782D01*
X130909Y66013D01*
X128531Y66650D01*
X126069D01*
X123691Y66013D01*
X121559Y64782D01*
X119818Y63041D01*
X118587Y60909D01*
X117950Y58531D01*
Y56069D01*
X118587Y53691D01*
X119818Y51559D01*
X121559Y49818D01*
X123691Y48587D01*
X126069Y47950D01*
X128531D01*
X130909Y48587D01*
X133041Y49818D01*
X134782Y51559D01*
X134859Y51692D01*
X140377D01*
X144392Y47677D01*
Y25000D01*
X144819Y22854D01*
X146035Y21035D01*
X151035Y16035D01*
X152854Y14819D01*
X155000Y14392D01*
X365000D01*
X367146Y14819D01*
X368965Y16035D01*
X373965Y21035D01*
X375181Y22854D01*
X375608Y25000D01*
Y40028D01*
X376878Y40368D01*
X377518Y39259D01*
X379259Y37518D01*
X379392Y37441D01*
Y22559D01*
X379259Y22482D01*
X377518Y20741D01*
X376287Y18609D01*
X375650Y16231D01*
Y13769D01*
X376287Y11391D01*
X377518Y9259D01*
X379259Y7518D01*
X381391Y6287D01*
X383769Y5650D01*
X386231D01*
X388609Y6287D01*
X390741Y7518D01*
X392482Y9259D01*
X393713Y11391D01*
X394350Y13769D01*
Y16231D01*
X393713Y18609D01*
X392482Y20741D01*
X390741Y22482D01*
X390608Y22559D01*
Y37441D01*
X390741Y37518D01*
X392482Y39259D01*
X393713Y41391D01*
X394350Y43769D01*
Y46231D01*
X393713Y48609D01*
X392482Y50741D01*
X390741Y52482D01*
X388609Y53713D01*
X386231Y54350D01*
X383769D01*
X381391Y53713D01*
X380514Y53207D01*
X379915Y53496D01*
X379350Y54001D01*
Y56231D01*
X378713Y58609D01*
X377482Y60741D01*
X375741Y62482D01*
X373609Y63713D01*
X371231Y64350D01*
X368769D01*
X366391Y63713D01*
X364259Y62482D01*
X362518Y60741D01*
X361287Y58609D01*
X360650Y56231D01*
Y53769D01*
X361287Y51391D01*
X362518Y49259D01*
X364259Y47518D01*
X364392Y47441D01*
Y27323D01*
X362677Y25608D01*
X315334D01*
X314808Y26878D01*
X318965Y31035D01*
X320181Y32854D01*
X320608Y35000D01*
Y42677D01*
X322323Y44392D01*
X327441D01*
X327518Y44259D01*
X329259Y42518D01*
X331391Y41287D01*
X333769Y40650D01*
X336231D01*
X338609Y41287D01*
X340741Y42518D01*
X342482Y44259D01*
X343713Y46391D01*
X344350Y48769D01*
Y51231D01*
X343713Y53609D01*
X342482Y55741D01*
X340741Y57482D01*
X338609Y58713D01*
X336231Y59350D01*
X333769D01*
X331391Y58713D01*
X329259Y57482D01*
X327518Y55741D01*
X327441Y55608D01*
X320000D01*
X317854Y55181D01*
X316035Y53965D01*
X311035Y48965D01*
X309819Y47146D01*
X309392Y45000D01*
Y37323D01*
X307677Y35608D01*
X165608D01*
Y75000D01*
X165181Y77146D01*
X163965Y78965D01*
X156265Y86665D01*
X154446Y87881D01*
X152300Y88308D01*
X135259D01*
X135182Y88441D01*
X133441Y90182D01*
X131309Y91413D01*
X128931Y92050D01*
D02*
G37*
G36*
X95150Y67050D02*
X75650D01*
Y47550D01*
X95150D01*
Y67050D01*
D02*
G37*
G36*
X35884D02*
X33316D01*
X30837Y66385D01*
X28613Y65102D01*
X26798Y63287D01*
X25515Y61063D01*
X24850Y58584D01*
Y56016D01*
X25515Y53537D01*
X26798Y51313D01*
X28613Y49498D01*
X30837Y48215D01*
X33316Y47550D01*
X35884D01*
X38363Y48215D01*
X40587Y49498D01*
X42402Y51313D01*
X43685Y53537D01*
X44350Y56016D01*
Y58584D01*
X43685Y61063D01*
X42402Y63287D01*
X40587Y65102D01*
X38363Y66385D01*
X35884Y67050D01*
D02*
G37*
G36*
X585850Y50650D02*
X564150D01*
Y28950D01*
X585850D01*
Y50650D01*
D02*
G37*
G36*
X551231Y84350D02*
X548769D01*
X546391Y83713D01*
X544259Y82482D01*
X542518Y80741D01*
X541287Y78609D01*
X540650Y76231D01*
Y73769D01*
X541287Y71391D01*
X542518Y69259D01*
X544259Y67518D01*
X544392Y67441D01*
Y27559D01*
X544259Y27482D01*
X542518Y25741D01*
X541287Y23609D01*
X540650Y21231D01*
Y18769D01*
X541287Y16391D01*
X542518Y14259D01*
X544259Y12518D01*
X546391Y11287D01*
X548769Y10650D01*
X551231D01*
X553609Y11287D01*
X555741Y12518D01*
X557482Y14259D01*
X558713Y16391D01*
X559350Y18769D01*
Y21231D01*
X558713Y23609D01*
X557482Y25741D01*
X555741Y27482D01*
X555608Y27559D01*
Y67441D01*
X555741Y67518D01*
X557482Y69259D01*
X558713Y71391D01*
X559350Y73769D01*
Y76231D01*
X558713Y78609D01*
X557482Y80741D01*
X555741Y82482D01*
X553609Y83713D01*
X551231Y84350D01*
D02*
G37*
G36*
X416231Y29350D02*
X413769D01*
X411391Y28713D01*
X409259Y27482D01*
X407518Y25741D01*
X406287Y23609D01*
X405650Y21231D01*
Y18769D01*
X406287Y16391D01*
X407518Y14259D01*
X409259Y12518D01*
X411391Y11287D01*
X413769Y10650D01*
X416231D01*
X418609Y11287D01*
X420741Y12518D01*
X421709Y13486D01*
X481918D01*
X482518Y12447D01*
X484259Y10707D01*
X486391Y9476D01*
X488769Y8838D01*
X491231D01*
X493609Y9476D01*
X495741Y10707D01*
X497482Y12447D01*
X498713Y14579D01*
X499350Y16957D01*
Y19419D01*
X498713Y21797D01*
X497482Y23930D01*
X495741Y25670D01*
X493609Y26901D01*
X491231Y27538D01*
X488769D01*
X486391Y26901D01*
X484259Y25670D01*
X483291Y24702D01*
X423082D01*
X422482Y25741D01*
X420741Y27482D01*
X418609Y28713D01*
X416231Y29350D01*
D02*
G37*
%LPD*%
D24*
X560000Y182300D02*
D03*
X505000D02*
D03*
X450000D02*
D03*
X395000D02*
D03*
X340000D02*
D03*
X285000D02*
D03*
X230000D02*
D03*
X175000D02*
D03*
X120000D02*
D03*
X65000D02*
D03*
D25*
X560000Y207700D02*
D03*
X505000D02*
D03*
X450000D02*
D03*
X395000D02*
D03*
X340000D02*
D03*
X285000D02*
D03*
X230000D02*
D03*
X175000D02*
D03*
X120000D02*
D03*
X65000D02*
D03*
D26*
X575000Y65200D02*
D03*
D27*
Y39800D02*
D03*
D31*
X434375Y75625D02*
X435000Y76251D01*
X375625Y75625D02*
X434375D01*
X370000Y25000D02*
Y55000D01*
X155000Y20000D02*
X365000D01*
X370000Y25000D01*
X150000D02*
X155000Y20000D01*
X160000Y32929D02*
Y75000D01*
Y32929D02*
X162929Y30000D01*
X310000D01*
X315000Y35000D02*
Y45000D01*
X310000Y30000D02*
X315000Y35000D01*
X150000Y25000D02*
Y50000D01*
X142700Y57300D02*
X150000Y50000D01*
X127300Y57300D02*
X142700D01*
X320000Y50000D02*
X335000D01*
X315000Y45000D02*
X320000Y50000D01*
X152300Y82700D02*
X160000Y75000D01*
X127700Y82700D02*
X152300D01*
X385000Y15000D02*
Y45000D01*
X375000Y75000D02*
X375625Y75625D01*
X550000Y20000D02*
Y75000D01*
X415906Y19094D02*
X489094D01*
X490000Y18188D01*
X415000Y20000D02*
X415906Y19094D01*
X185000Y50000D02*
Y155000D01*
X195000Y165000D02*
X315000D01*
X185000Y155000D02*
X195000Y165000D01*
X250000Y117071D02*
X252929Y120000D01*
X412084D02*
X425000Y132916D01*
X252929Y120000D02*
X412084D01*
X250000Y105000D02*
Y117071D01*
X425000Y132916D02*
Y135000D01*
X210000D02*
X370000D01*
X205000Y105000D02*
Y130000D01*
X210000Y135000D01*
D32*
X34600Y57300D02*
D03*
X60000Y82700D02*
D03*
D33*
X85400Y57300D02*
D03*
D34*
X435000Y76251D02*
D03*
X127300Y57300D02*
D03*
X370000Y55000D02*
D03*
X335000Y50000D02*
D03*
X127700Y82700D02*
D03*
X385000Y15000D02*
D03*
Y45000D02*
D03*
X375000Y75000D02*
D03*
X550000D02*
D03*
Y20000D02*
D03*
X415000D02*
D03*
X490000Y18188D02*
D03*
X185000Y50000D02*
D03*
X315000Y165000D02*
D03*
X425000Y135000D02*
D03*
X250000Y105000D02*
D03*
X205000D02*
D03*
X370000Y135000D02*
D03*
M02*
