G04*
G04 #@! TF.GenerationSoftware,Altium Limited,Altium Designer,22.7.1 (60)*
G04*
G04 Layer_Color=2752767*
%FSLAX44Y44*%
%MOMM*%
G71*
G04*
G04 #@! TF.SameCoordinates,5A77BAAA-BE11-4F58-8EC8-00DEF907BB60*
G04*
G04*
G04 #@! TF.FilePolarity,Positive*
G04*
G01*
G75*
%ADD38C,0.0508*%
%ADD39C,0.0677*%
D38*
X557968Y180268D02*
Y184332D01*
X562032D01*
Y180268D01*
X557968D01*
Y205668D02*
Y209732D01*
X562032D01*
Y205668D01*
X557968D01*
X502968Y180268D02*
Y184332D01*
X507032D01*
Y180268D01*
X502968D01*
Y205668D02*
Y209732D01*
X507032D01*
Y205668D01*
X502968D01*
X447968Y180268D02*
Y184332D01*
X452032D01*
Y180268D01*
X447968D01*
Y205668D02*
Y209732D01*
X452032D01*
Y205668D01*
X447968D01*
X392968Y180268D02*
Y184332D01*
X397032D01*
Y180268D01*
X392968D01*
Y205668D02*
Y209732D01*
X397032D01*
Y205668D01*
X392968D01*
X337968Y180268D02*
Y184332D01*
X342032D01*
Y180268D01*
X337968D01*
Y205668D02*
Y209732D01*
X342032D01*
Y205668D01*
X337968D01*
X282968Y180268D02*
Y184332D01*
X287032D01*
Y180268D01*
X282968D01*
Y205668D02*
Y209732D01*
X287032D01*
Y205668D01*
X282968D01*
X227968Y180268D02*
Y184332D01*
X232032D01*
Y180268D01*
X227968D01*
Y205668D02*
Y209732D01*
X232032D01*
Y205668D01*
X227968D01*
X34600Y55268D02*
X32568Y59332D01*
X36632D01*
X34600Y55268D01*
X85400D02*
X83368Y59332D01*
X87432D01*
X85400Y55268D01*
X60000Y80668D02*
X57968Y84732D01*
X62032D01*
X60000Y80668D01*
X172968Y180268D02*
Y184332D01*
X177032D01*
Y180268D01*
X172968D01*
Y205668D02*
Y209732D01*
X177032D01*
Y205668D01*
X172968D01*
X117968Y180268D02*
Y184332D01*
X122032D01*
Y180268D01*
X117968D01*
Y205668D02*
Y209732D01*
X122032D01*
Y205668D01*
X117968D01*
X62968Y180268D02*
Y184332D01*
X67032D01*
Y180268D01*
X62968D01*
Y205668D02*
Y209732D01*
X67032D01*
Y205668D01*
X62968D01*
X435000Y74219D02*
X436016Y75235D01*
X437032D01*
X436016Y76251D01*
X437032Y77267D01*
X436016D01*
X435000Y78283D01*
X433984Y77267D01*
X432968D01*
X433984Y76251D01*
X432968Y75235D01*
X433984D01*
X435000Y74219D01*
X127300Y55268D02*
X128316Y56284D01*
X129332D01*
X128316Y57300D01*
X129332Y58316D01*
X128316D01*
X127300Y59332D01*
X126284Y58316D01*
X125268D01*
X126284Y57300D01*
X125268Y56284D01*
X126284D01*
X127300Y55268D01*
X370000Y52968D02*
X371016Y53984D01*
X372032D01*
X371016Y55000D01*
X372032Y56016D01*
X371016D01*
X370000Y57032D01*
X368984Y56016D01*
X367968D01*
X368984Y55000D01*
X367968Y53984D01*
X368984D01*
X370000Y52968D01*
X335000Y47968D02*
X336016Y48984D01*
X337032D01*
X336016Y50000D01*
X337032Y51016D01*
X336016D01*
X335000Y52032D01*
X333984Y51016D01*
X332968D01*
X333984Y50000D01*
X332968Y48984D01*
X333984D01*
X335000Y47968D01*
X127700Y80668D02*
X128716Y81684D01*
X129732D01*
X128716Y82700D01*
X129732Y83716D01*
X128716D01*
X127700Y84732D01*
X126684Y83716D01*
X125668D01*
X126684Y82700D01*
X125668Y81684D01*
X126684D01*
X127700Y80668D01*
X385000Y12968D02*
X386016Y13984D01*
X387032D01*
X386016Y15000D01*
X387032Y16016D01*
X386016D01*
X385000Y17032D01*
X383984Y16016D01*
X382968D01*
X383984Y15000D01*
X382968Y13984D01*
X383984D01*
X385000Y12968D01*
Y42968D02*
X386016Y43984D01*
X387032D01*
X386016Y45000D01*
X387032Y46016D01*
X386016D01*
X385000Y47032D01*
X383984Y46016D01*
X382968D01*
X383984Y45000D01*
X382968Y43984D01*
X383984D01*
X385000Y42968D01*
X375000Y72968D02*
X376016Y73984D01*
X377032D01*
X376016Y75000D01*
X377032Y76016D01*
X376016D01*
X375000Y77032D01*
X373984Y76016D01*
X372968D01*
X373984Y75000D01*
X372968Y73984D01*
X373984D01*
X375000Y72968D01*
X550000D02*
X551016Y73984D01*
X552032D01*
X551016Y75000D01*
X552032Y76016D01*
X551016D01*
X550000Y77032D01*
X548984Y76016D01*
X547968D01*
X548984Y75000D01*
X547968Y73984D01*
X548984D01*
X550000Y72968D01*
Y17968D02*
X551016Y18984D01*
X552032D01*
X551016Y20000D01*
X552032Y21016D01*
X551016D01*
X550000Y22032D01*
X548984Y21016D01*
X547968D01*
X548984Y20000D01*
X547968Y18984D01*
X548984D01*
X550000Y17968D01*
X415000D02*
X416016Y18984D01*
X417032D01*
X416016Y20000D01*
X417032Y21016D01*
X416016D01*
X415000Y22032D01*
X413984Y21016D01*
X412968D01*
X413984Y20000D01*
X412968Y18984D01*
X413984D01*
X415000Y17968D01*
X490000Y16156D02*
X491016Y17172D01*
X492032D01*
X491016Y18188D01*
X492032Y19204D01*
X491016D01*
X490000Y20220D01*
X488984Y19204D01*
X487968D01*
X488984Y18188D01*
X487968Y17172D01*
X488984D01*
X490000Y16156D01*
X185000Y47968D02*
X186016Y48984D01*
X187032D01*
X186016Y50000D01*
X187032Y51016D01*
X186016D01*
X185000Y52032D01*
X183984Y51016D01*
X182968D01*
X183984Y50000D01*
X182968Y48984D01*
X183984D01*
X185000Y47968D01*
X315000Y162968D02*
X316016Y163984D01*
X317032D01*
X316016Y165000D01*
X317032Y166016D01*
X316016D01*
X315000Y167032D01*
X313984Y166016D01*
X312968D01*
X313984Y165000D01*
X312968Y163984D01*
X313984D01*
X315000Y162968D01*
X425000Y132968D02*
X426016Y133984D01*
X427032D01*
X426016Y135000D01*
X427032Y136016D01*
X426016D01*
X425000Y137032D01*
X423984Y136016D01*
X422968D01*
X423984Y135000D01*
X422968Y133984D01*
X423984D01*
X425000Y132968D01*
X250000Y102968D02*
X251016Y103984D01*
X252032D01*
X251016Y105000D01*
X252032Y106016D01*
X251016D01*
X250000Y107032D01*
X248984Y106016D01*
X247968D01*
X248984Y105000D01*
X247968Y103984D01*
X248984D01*
X250000Y102968D01*
X205000D02*
X206016Y103984D01*
X207032D01*
X206016Y105000D01*
X207032Y106016D01*
X206016D01*
X205000Y107032D01*
X203984Y106016D01*
X202968D01*
X203984Y105000D01*
X202968Y103984D01*
X203984D01*
X205000Y102968D01*
X370000Y132968D02*
X371016Y133984D01*
X372032D01*
X371016Y135000D01*
X372032Y136016D01*
X371016D01*
X370000Y137032D01*
X368984Y136016D01*
X367968D01*
X368984Y135000D01*
X367968Y133984D01*
X368984D01*
X370000Y132968D01*
D39*
X577032Y65200D02*
G03*
X577032Y65200I-2032J0D01*
G01*
Y39800D02*
G03*
X577032Y39800I-2032J0D01*
G01*
M02*
