G04*
G04 #@! TF.GenerationSoftware,Altium Limited,Altium Designer,22.7.1 (60)*
G04*
G04 Layer_Color=8388736*
%FSLAX44Y44*%
%MOMM*%
G71*
G04*
G04 #@! TF.SameCoordinates,5A77BAAA-BE11-4F58-8EC8-00DEF907BB60*
G04*
G04*
G04 #@! TF.FilePolarity,Negative*
G04*
G01*
G75*
G04:AMPARAMS|DCode=17|XSize=2.4692mm|YSize=0.6221mm|CornerRadius=0.3111mm|HoleSize=0mm|Usage=FLASHONLY|Rotation=0.000|XOffset=0mm|YOffset=0mm|HoleType=Round|Shape=RoundedRectangle|*
%AMROUNDEDRECTD17*
21,1,2.4692,0.0000,0,0,0.0*
21,1,1.8470,0.6221,0,0,0.0*
1,1,0.6221,0.9235,0.0000*
1,1,0.6221,-0.9235,0.0000*
1,1,0.6221,-0.9235,0.0000*
1,1,0.6221,0.9235,0.0000*
%
%ADD17ROUNDEDRECTD17*%
%ADD18R,2.4692X0.6221*%
%ADD20R,1.6532X1.4032*%
%ADD21R,1.4032X1.6532*%
G04:AMPARAMS|DCode=22|XSize=0.8032mm|YSize=1.6532mm|CornerRadius=0.1526mm|HoleSize=0mm|Usage=FLASHONLY|Rotation=0.000|XOffset=0mm|YOffset=0mm|HoleType=Round|Shape=RoundedRectangle|*
%AMROUNDEDRECTD22*
21,1,0.8032,1.3480,0,0,0.0*
21,1,0.4980,1.6532,0,0,0.0*
1,1,0.3052,0.2490,-0.6740*
1,1,0.3052,-0.2490,-0.6740*
1,1,0.3052,-0.2490,0.6740*
1,1,0.3052,0.2490,0.6740*
%
%ADD22ROUNDEDRECTD22*%
%ADD23R,1.2032X1.5032*%
%ADD24C,1.4500*%
%ADD25R,1.4500X1.4500*%
%ADD26C,1.5700*%
%ADD27R,1.5700X1.5700*%
%ADD28C,1.5532*%
%ADD29R,1.5532X1.5532*%
%ADD30C,1.4732*%
D17*
X459136Y74050D02*
D03*
Y61350D02*
D03*
Y48650D02*
D03*
Y35950D02*
D03*
X410864D02*
D03*
Y48650D02*
D03*
Y61350D02*
D03*
D18*
Y74050D02*
D03*
D20*
X560000Y150000D02*
D03*
Y130000D02*
D03*
X505000Y150000D02*
D03*
Y130000D02*
D03*
X450000Y150000D02*
D03*
Y130000D02*
D03*
X395000Y150000D02*
D03*
Y130000D02*
D03*
X340000Y150000D02*
D03*
Y130000D02*
D03*
X285000Y150000D02*
D03*
Y130000D02*
D03*
X230000Y150000D02*
D03*
Y130000D02*
D03*
X175000Y150000D02*
D03*
Y130000D02*
D03*
X120000Y150000D02*
D03*
Y130000D02*
D03*
X65000Y150000D02*
D03*
Y130000D02*
D03*
D21*
X335000Y30000D02*
D03*
X355000D02*
D03*
Y75000D02*
D03*
X335000D02*
D03*
D22*
X284450Y82250D02*
D03*
X271750D02*
D03*
X259050D02*
D03*
X246350D02*
D03*
X233650D02*
D03*
X220950D02*
D03*
X208250D02*
D03*
X195550D02*
D03*
X284450Y27750D02*
D03*
X271750D02*
D03*
X259050D02*
D03*
X246350D02*
D03*
X233650D02*
D03*
X220950D02*
D03*
X208250D02*
D03*
X195550D02*
D03*
D23*
X530000Y40000D02*
D03*
X515000D02*
D03*
X530000Y75000D02*
D03*
X515000D02*
D03*
D24*
X560000Y182300D02*
D03*
X505000D02*
D03*
X450000D02*
D03*
X395000D02*
D03*
X340000D02*
D03*
X285000D02*
D03*
X230000D02*
D03*
X175000D02*
D03*
X120000D02*
D03*
X65000D02*
D03*
D25*
X560000Y207700D02*
D03*
X505000D02*
D03*
X450000D02*
D03*
X395000D02*
D03*
X340000D02*
D03*
X285000D02*
D03*
X230000D02*
D03*
X175000D02*
D03*
X120000D02*
D03*
X65000D02*
D03*
D26*
X575000Y65200D02*
D03*
D27*
Y39800D02*
D03*
D28*
X34600Y57300D02*
D03*
X60000Y82700D02*
D03*
D29*
X85400Y57300D02*
D03*
D30*
X435000Y76251D02*
D03*
X127300Y57300D02*
D03*
X370000Y55000D02*
D03*
X335000Y50000D02*
D03*
X127700Y82700D02*
D03*
X385000Y15000D02*
D03*
Y45000D02*
D03*
X375000Y75000D02*
D03*
X550000D02*
D03*
Y20000D02*
D03*
X415000D02*
D03*
X490000Y18188D02*
D03*
X185000Y50000D02*
D03*
X315000Y165000D02*
D03*
X425000Y135000D02*
D03*
X250000Y105000D02*
D03*
X205000D02*
D03*
X370000Y135000D02*
D03*
M02*
