G04*
G04 #@! TF.GenerationSoftware,Altium Limited,Altium Designer,22.7.1 (60)*
G04*
G04 Layer_Color=0*
%FSLAX44Y44*%
%MOMM*%
G71*
G04*
G04 #@! TF.SameCoordinates,5A77BAAA-BE11-4F58-8EC8-00DEF907BB60*
G04*
G04*
G04 #@! TF.FilePolarity,Positive*
G04*
G01*
G75*
%ADD36C,0.1000*%
D36*
X555000Y195000D02*
X565000D01*
X560000Y190000D02*
Y200000D01*
X500000Y195000D02*
X510000D01*
X505000Y190000D02*
Y200000D01*
X445000Y195000D02*
X455000D01*
X450000Y190000D02*
Y200000D01*
X390000Y195000D02*
X400000D01*
X395000Y190000D02*
Y200000D01*
X435000Y50000D02*
Y60000D01*
X430000Y55000D02*
X440000D01*
X335000Y195000D02*
X345000D01*
X340000Y190000D02*
Y200000D01*
X570000Y52500D02*
X580000D01*
X575000Y47500D02*
Y57500D01*
X280000Y195000D02*
X290000D01*
X285000Y190000D02*
Y200000D01*
X225000Y195000D02*
X235000D01*
X230000Y190000D02*
Y200000D01*
X170000Y195000D02*
X180000D01*
X175000Y190000D02*
Y200000D01*
X115000Y195000D02*
X125000D01*
X120000Y190000D02*
Y200000D01*
X60000Y195000D02*
X70000D01*
X65000Y190000D02*
Y200000D01*
M02*
