G04*
G04 #@! TF.GenerationSoftware,Altium Limited,Altium Designer,22.7.1 (60)*
G04*
G04 Layer_Color=128*
%FSLAX44Y44*%
%MOMM*%
G71*
G04*
G04 #@! TF.SameCoordinates,5A77BAAA-BE11-4F58-8EC8-00DEF907BB60*
G04*
G04*
G04 #@! TF.FilePolarity,Positive*
G04*
G01*
G75*
%ADD38C,0.0508*%
D38*
X555250Y182300D02*
X564750D01*
X560000Y177550D02*
Y187050D01*
X555250Y207700D02*
X564750D01*
X560000Y202950D02*
Y212450D01*
X500250Y182300D02*
X509750D01*
X505000Y177550D02*
Y187050D01*
X500250Y207700D02*
X509750D01*
X505000Y202950D02*
Y212450D01*
X445250Y182300D02*
X454750D01*
X450000Y177550D02*
Y187050D01*
X445250Y207700D02*
X454750D01*
X450000Y202950D02*
Y212450D01*
X390250Y182300D02*
X399750D01*
X395000Y177550D02*
Y187050D01*
X390250Y207700D02*
X399750D01*
X395000Y202950D02*
Y212450D01*
X335250Y182300D02*
X344750D01*
X340000Y177550D02*
Y187050D01*
X335250Y207700D02*
X344750D01*
X340000Y202950D02*
Y212450D01*
X569900Y65200D02*
X580100D01*
X575000Y60100D02*
Y70300D01*
X569900Y39800D02*
X580100D01*
X575000Y34700D02*
Y44900D01*
X280250Y182300D02*
X289750D01*
X285000Y177550D02*
Y187050D01*
X280250Y207700D02*
X289750D01*
X285000Y202950D02*
Y212450D01*
X225250Y182300D02*
X234750D01*
X230000Y177550D02*
Y187050D01*
X225250Y207700D02*
X234750D01*
X230000Y202950D02*
Y212450D01*
X30350Y57300D02*
X38850D01*
X34600Y53050D02*
Y61550D01*
X81150Y57300D02*
X89650D01*
X85400Y53050D02*
Y61550D01*
X55750Y82700D02*
X64250D01*
X60000Y78450D02*
Y86950D01*
X170250Y182300D02*
X179750D01*
X175000Y177550D02*
Y187050D01*
X170250Y207700D02*
X179750D01*
X175000Y202950D02*
Y212450D01*
X115250Y182300D02*
X124750D01*
X120000Y177550D02*
Y187050D01*
X115250Y207700D02*
X124750D01*
X120000Y202950D02*
Y212450D01*
X60250Y182300D02*
X69750D01*
X65000Y177550D02*
Y187050D01*
X60250Y207700D02*
X69750D01*
X65000Y202950D02*
Y212450D01*
X431444Y76251D02*
X438556D01*
X435000Y72695D02*
Y79807D01*
X123744Y57300D02*
X130856D01*
X127300Y53744D02*
Y60856D01*
X366444Y55000D02*
X373556D01*
X370000Y51444D02*
Y58556D01*
X331444Y50000D02*
X338556D01*
X335000Y46444D02*
Y53556D01*
X124144Y82700D02*
X131256D01*
X127700Y79144D02*
Y86256D01*
X381444Y15000D02*
X388556D01*
X385000Y11444D02*
Y18556D01*
X381444Y45000D02*
X388556D01*
X385000Y41444D02*
Y48556D01*
X371444Y75000D02*
X378556D01*
X375000Y71444D02*
Y78556D01*
X546444Y75000D02*
X553556D01*
X550000Y71444D02*
Y78556D01*
X546444Y20000D02*
X553556D01*
X550000Y16444D02*
Y23556D01*
X411444Y20000D02*
X418556D01*
X415000Y16444D02*
Y23556D01*
X486444Y18188D02*
X493556D01*
X490000Y14632D02*
Y21744D01*
X181444Y50000D02*
X188556D01*
X185000Y46444D02*
Y53556D01*
X311444Y165000D02*
X318556D01*
X315000Y161444D02*
Y168556D01*
X421444Y135000D02*
X428556D01*
X425000Y131444D02*
Y138556D01*
X246444Y105000D02*
X253556D01*
X250000Y101444D02*
Y108556D01*
X201444Y105000D02*
X208556D01*
X205000Y101444D02*
Y108556D01*
X366444Y135000D02*
X373556D01*
X370000Y131444D02*
Y138556D01*
M02*
