G04*
G04 #@! TF.GenerationSoftware,Altium Limited,Altium Designer,22.7.1 (60)*
G04*
G04 Layer_Color=16711935*
%FSLAX44Y44*%
%MOMM*%
G71*
G04*
G04 #@! TF.SameCoordinates,5A77BAAA-BE11-4F58-8EC8-00DEF907BB60*
G04*
G04*
G04 #@! TF.FilePolarity,Negative*
G04*
G01*
G75*
%ADD24C,1.4500*%
%ADD25R,1.4500X1.4500*%
%ADD26C,1.5700*%
%ADD27R,1.5700X1.5700*%
%ADD28C,1.5532*%
%ADD29R,1.5532X1.5532*%
%ADD30C,1.4732*%
D24*
X560000Y182300D02*
D03*
X505000D02*
D03*
X450000D02*
D03*
X395000D02*
D03*
X340000D02*
D03*
X285000D02*
D03*
X230000D02*
D03*
X175000D02*
D03*
X120000D02*
D03*
X65000D02*
D03*
D25*
X560000Y207700D02*
D03*
X505000D02*
D03*
X450000D02*
D03*
X395000D02*
D03*
X340000D02*
D03*
X285000D02*
D03*
X230000D02*
D03*
X175000D02*
D03*
X120000D02*
D03*
X65000D02*
D03*
D26*
X575000Y65200D02*
D03*
D27*
Y39800D02*
D03*
D28*
X34600Y57300D02*
D03*
X60000Y82700D02*
D03*
D29*
X85400Y57300D02*
D03*
D30*
X435000Y76251D02*
D03*
X127300Y57300D02*
D03*
X370000Y55000D02*
D03*
X335000Y50000D02*
D03*
X127700Y82700D02*
D03*
X385000Y15000D02*
D03*
Y45000D02*
D03*
X375000Y75000D02*
D03*
X550000D02*
D03*
Y20000D02*
D03*
X415000D02*
D03*
X490000Y18188D02*
D03*
X185000Y50000D02*
D03*
X315000Y165000D02*
D03*
X425000Y135000D02*
D03*
X250000Y105000D02*
D03*
X205000D02*
D03*
X370000Y135000D02*
D03*
M02*
