G04*
G04 #@! TF.GenerationSoftware,Altium Limited,Altium Designer,22.7.1 (60)*
G04*
G04 Layer_Color=32768*
%FSLAX44Y44*%
%MOMM*%
G71*
G04*
G04 #@! TF.SameCoordinates,5A77BAAA-BE11-4F58-8EC8-00DEF907BB60*
G04*
G04*
G04 #@! TF.FilePolarity,Positive*
G04*
G01*
G75*
%ADD36C,0.1000*%
%ADD37C,0.0500*%
D36*
X555000Y140000D02*
X565000D01*
X560000Y135000D02*
Y145000D01*
X500000Y140000D02*
X510000D01*
X505000Y135000D02*
Y145000D01*
X445000Y140000D02*
X455000D01*
X450000Y135000D02*
Y145000D01*
X345000Y25000D02*
Y35000D01*
X340000Y30000D02*
X350000D01*
X240000Y50000D02*
Y60000D01*
X235000Y55000D02*
X245000D01*
X390000Y140000D02*
X400000D01*
X395000Y135000D02*
Y145000D01*
X335000Y140000D02*
X345000D01*
X340000Y135000D02*
Y145000D01*
X345000Y70000D02*
Y80000D01*
X340000Y75000D02*
X350000D01*
X280000Y140000D02*
X290000D01*
X285000Y135000D02*
Y145000D01*
X522500Y35000D02*
Y45000D01*
X517500Y40000D02*
X527500D01*
X55000Y70000D02*
X65000D01*
X60000Y65000D02*
Y75000D01*
X225000Y140000D02*
X235000D01*
X230000Y135000D02*
Y145000D01*
X170000Y140000D02*
X180000D01*
X175000Y135000D02*
Y145000D01*
X522500Y70000D02*
Y80000D01*
X517500Y75000D02*
X527500D01*
X115000Y140000D02*
X125000D01*
X120000Y135000D02*
Y145000D01*
X60000Y140000D02*
X70000D01*
X65000Y135000D02*
Y145000D01*
D37*
X572500Y119000D02*
Y161000D01*
X547500Y119000D02*
Y161000D01*
X572500D01*
X547500Y119000D02*
X572500D01*
X517500D02*
Y161000D01*
X492500Y119000D02*
Y161000D01*
X517500D01*
X492500Y119000D02*
X517500D01*
X462500D02*
Y161000D01*
X437500Y119000D02*
Y161000D01*
X462500D01*
X437500Y119000D02*
X462500D01*
X324000Y42500D02*
X366000D01*
X324000Y17500D02*
X366000D01*
X324000D02*
Y42500D01*
X366000Y17500D02*
Y42500D01*
X187500Y92000D02*
X292500D01*
X187500Y18000D02*
X292500D01*
Y92000D01*
X187500Y18000D02*
Y92000D01*
X407500Y119000D02*
Y161000D01*
X382500Y119000D02*
Y161000D01*
X407500D01*
X382500Y119000D02*
X407500D01*
X352500D02*
Y161000D01*
X327500Y119000D02*
Y161000D01*
X352500D01*
X327500Y119000D02*
X352500D01*
X324000Y62500D02*
X366000D01*
X324000Y87500D02*
X366000D01*
Y62500D02*
Y87500D01*
X324000Y62500D02*
Y87500D01*
X297500Y119000D02*
Y161000D01*
X272500Y119000D02*
Y161000D01*
X297500D01*
X272500Y119000D02*
X297500D01*
X509000Y32000D02*
X536000D01*
X509000Y48000D02*
X536000D01*
Y32000D02*
Y48000D01*
X509000Y32000D02*
Y48000D01*
X11350Y8500D02*
Y105800D01*
X108650Y8500D02*
Y105800D01*
X11350Y8500D02*
X108650D01*
X11350Y105800D02*
X108650D01*
X242500Y119000D02*
Y161000D01*
X217500Y119000D02*
Y161000D01*
X242500D01*
X217500Y119000D02*
X242500D01*
X187500D02*
Y161000D01*
X162500Y119000D02*
Y161000D01*
X187500D01*
X162500Y119000D02*
X187500D01*
X509000Y67000D02*
X536000D01*
X509000Y83000D02*
X536000D01*
Y67000D02*
Y83000D01*
X509000Y67000D02*
Y83000D01*
X132500Y119000D02*
Y161000D01*
X107500Y119000D02*
Y161000D01*
X132500D01*
X107500Y119000D02*
X132500D01*
X77500D02*
Y161000D01*
X52500Y119000D02*
Y161000D01*
X77500D01*
X52500Y119000D02*
X77500D01*
M02*
