G04*
G04 #@! TF.GenerationSoftware,Altium Limited,Altium Designer,22.7.1 (60)*
G04*
G04 Layer_Color=32768*
%FSLAX44Y44*%
%MOMM*%
G71*
G04*
G04 #@! TF.SameCoordinates,5A77BAAA-BE11-4F58-8EC8-00DEF907BB60*
G04*
G04*
G04 #@! TF.FilePolarity,Positive*
G04*
G01*
G75*
%ADD10C,0.2000*%
D10*
X560000Y217227D02*
G03*
X560000Y172773I0J-22227D01*
G01*
D02*
G03*
X560000Y217227I0J22227D01*
G01*
X505000D02*
G03*
X505000Y172773I0J-22227D01*
G01*
D02*
G03*
X505000Y217227I0J22227D01*
G01*
X450000D02*
G03*
X450000Y172773I0J-22227D01*
G01*
D02*
G03*
X450000Y217227I0J22227D01*
G01*
X395000D02*
G03*
X395000Y172773I0J-22227D01*
G01*
D02*
G03*
X395000Y217227I0J22227D01*
G01*
X340000D02*
G03*
X340000Y172773I0J-22227D01*
G01*
D02*
G03*
X340000Y217227I0J22227D01*
G01*
X285000D02*
G03*
X285000Y172773I0J-22227D01*
G01*
D02*
G03*
X285000Y217227I0J22227D01*
G01*
X230000D02*
G03*
X230000Y172773I0J-22227D01*
G01*
D02*
G03*
X230000Y217227I0J22227D01*
G01*
X175000D02*
G03*
X175000Y172773I0J-22227D01*
G01*
D02*
G03*
X175000Y217227I0J22227D01*
G01*
X120000D02*
G03*
X120000Y172773I0J-22227D01*
G01*
D02*
G03*
X120000Y217227I0J22227D01*
G01*
X65000D02*
G03*
X65000Y172773I0J-22227D01*
G01*
D02*
G03*
X65000Y217227I0J22227D01*
G01*
X393518Y25475D02*
Y84525D01*
Y25475D02*
X476482D01*
Y84525D01*
X393518D02*
X476482D01*
X560800Y23600D02*
X589200D01*
Y81400D01*
X560800D02*
X589200D01*
X560800Y23600D02*
Y81400D01*
M02*
