%TF.GenerationSoftware,KiCad,Pcbnew,9.0.7*%
%TF.CreationDate,2026-03-21T20:23:46-04:00*%
%TF.ProjectId,test,74657374-2e6b-4696-9361-645f70636258,rev?*%
%TF.SameCoordinates,Original*%
%TF.FileFunction,Legend,Top*%
%TF.FilePolarity,Positive*%
%FSLAX46Y46*%
G04 Gerber Fmt 4.6, Leading zero omitted, Abs format (unit mm)*
G04 Created by KiCad (PCBNEW 9.0.7) date 2026-03-21 20:23:46*
%MOMM*%
%LPD*%
G01*
G04 APERTURE LIST*
%ADD10C,0.100000*%
%ADD11C,0.150000*%
%ADD12C,0.152400*%
%ADD13C,0.120000*%
G04 APERTURE END LIST*
D10*
X191303884Y-49872419D02*
X191303884Y-48872419D01*
X191303884Y-49348609D02*
X191875312Y-49348609D01*
X191875312Y-49872419D02*
X191875312Y-48872419D01*
X192732455Y-49824800D02*
X192637217Y-49872419D01*
X192637217Y-49872419D02*
X192446741Y-49872419D01*
X192446741Y-49872419D02*
X192351503Y-49824800D01*
X192351503Y-49824800D02*
X192303884Y-49729561D01*
X192303884Y-49729561D02*
X192303884Y-49348609D01*
X192303884Y-49348609D02*
X192351503Y-49253371D01*
X192351503Y-49253371D02*
X192446741Y-49205752D01*
X192446741Y-49205752D02*
X192637217Y-49205752D01*
X192637217Y-49205752D02*
X192732455Y-49253371D01*
X192732455Y-49253371D02*
X192780074Y-49348609D01*
X192780074Y-49348609D02*
X192780074Y-49443847D01*
X192780074Y-49443847D02*
X192303884Y-49539085D01*
X193351503Y-49872419D02*
X193256265Y-49824800D01*
X193256265Y-49824800D02*
X193208646Y-49729561D01*
X193208646Y-49729561D02*
X193208646Y-48872419D01*
X193875313Y-49872419D02*
X193780075Y-49824800D01*
X193780075Y-49824800D02*
X193732456Y-49729561D01*
X193732456Y-49729561D02*
X193732456Y-48872419D01*
X194399123Y-49872419D02*
X194303885Y-49824800D01*
X194303885Y-49824800D02*
X194256266Y-49777180D01*
X194256266Y-49777180D02*
X194208647Y-49681942D01*
X194208647Y-49681942D02*
X194208647Y-49396228D01*
X194208647Y-49396228D02*
X194256266Y-49300990D01*
X194256266Y-49300990D02*
X194303885Y-49253371D01*
X194303885Y-49253371D02*
X194399123Y-49205752D01*
X194399123Y-49205752D02*
X194541980Y-49205752D01*
X194541980Y-49205752D02*
X194637218Y-49253371D01*
X194637218Y-49253371D02*
X194684837Y-49300990D01*
X194684837Y-49300990D02*
X194732456Y-49396228D01*
X194732456Y-49396228D02*
X194732456Y-49681942D01*
X194732456Y-49681942D02*
X194684837Y-49777180D01*
X194684837Y-49777180D02*
X194637218Y-49824800D01*
X194637218Y-49824800D02*
X194541980Y-49872419D01*
X194541980Y-49872419D02*
X194399123Y-49872419D01*
X195827695Y-48872419D02*
X196065790Y-49872419D01*
X196065790Y-49872419D02*
X196256266Y-49158133D01*
X196256266Y-49158133D02*
X196446742Y-49872419D01*
X196446742Y-49872419D02*
X196684838Y-48872419D01*
X197208647Y-49872419D02*
X197113409Y-49824800D01*
X197113409Y-49824800D02*
X197065790Y-49777180D01*
X197065790Y-49777180D02*
X197018171Y-49681942D01*
X197018171Y-49681942D02*
X197018171Y-49396228D01*
X197018171Y-49396228D02*
X197065790Y-49300990D01*
X197065790Y-49300990D02*
X197113409Y-49253371D01*
X197113409Y-49253371D02*
X197208647Y-49205752D01*
X197208647Y-49205752D02*
X197351504Y-49205752D01*
X197351504Y-49205752D02*
X197446742Y-49253371D01*
X197446742Y-49253371D02*
X197494361Y-49300990D01*
X197494361Y-49300990D02*
X197541980Y-49396228D01*
X197541980Y-49396228D02*
X197541980Y-49681942D01*
X197541980Y-49681942D02*
X197494361Y-49777180D01*
X197494361Y-49777180D02*
X197446742Y-49824800D01*
X197446742Y-49824800D02*
X197351504Y-49872419D01*
X197351504Y-49872419D02*
X197208647Y-49872419D01*
X197970552Y-49872419D02*
X197970552Y-49205752D01*
X197970552Y-49396228D02*
X198018171Y-49300990D01*
X198018171Y-49300990D02*
X198065790Y-49253371D01*
X198065790Y-49253371D02*
X198161028Y-49205752D01*
X198161028Y-49205752D02*
X198256266Y-49205752D01*
X198732457Y-49872419D02*
X198637219Y-49824800D01*
X198637219Y-49824800D02*
X198589600Y-49729561D01*
X198589600Y-49729561D02*
X198589600Y-48872419D01*
X199541981Y-49872419D02*
X199541981Y-48872419D01*
X199541981Y-49824800D02*
X199446743Y-49872419D01*
X199446743Y-49872419D02*
X199256267Y-49872419D01*
X199256267Y-49872419D02*
X199161029Y-49824800D01*
X199161029Y-49824800D02*
X199113410Y-49777180D01*
X199113410Y-49777180D02*
X199065791Y-49681942D01*
X199065791Y-49681942D02*
X199065791Y-49396228D01*
X199065791Y-49396228D02*
X199113410Y-49300990D01*
X199113410Y-49300990D02*
X199161029Y-49253371D01*
X199161029Y-49253371D02*
X199256267Y-49205752D01*
X199256267Y-49205752D02*
X199446743Y-49205752D01*
X199446743Y-49205752D02*
X199541981Y-49253371D01*
D11*
X197238095Y-38454819D02*
X197238095Y-39264342D01*
X197238095Y-39264342D02*
X197285714Y-39359580D01*
X197285714Y-39359580D02*
X197333333Y-39407200D01*
X197333333Y-39407200D02*
X197428571Y-39454819D01*
X197428571Y-39454819D02*
X197619047Y-39454819D01*
X197619047Y-39454819D02*
X197714285Y-39407200D01*
X197714285Y-39407200D02*
X197761904Y-39359580D01*
X197761904Y-39359580D02*
X197809523Y-39264342D01*
X197809523Y-39264342D02*
X197809523Y-38454819D01*
X198238095Y-38550057D02*
X198285714Y-38502438D01*
X198285714Y-38502438D02*
X198380952Y-38454819D01*
X198380952Y-38454819D02*
X198619047Y-38454819D01*
X198619047Y-38454819D02*
X198714285Y-38502438D01*
X198714285Y-38502438D02*
X198761904Y-38550057D01*
X198761904Y-38550057D02*
X198809523Y-38645295D01*
X198809523Y-38645295D02*
X198809523Y-38740533D01*
X198809523Y-38740533D02*
X198761904Y-38883390D01*
X198761904Y-38883390D02*
X198190476Y-39454819D01*
X198190476Y-39454819D02*
X198809523Y-39454819D01*
X194190000Y-33222419D02*
X194190000Y-33460514D01*
X193951905Y-33365276D02*
X194190000Y-33460514D01*
X194190000Y-33460514D02*
X194428095Y-33365276D01*
X194047143Y-33650990D02*
X194190000Y-33460514D01*
X194190000Y-33460514D02*
X194332857Y-33650990D01*
X194190000Y-33222419D02*
X194190000Y-33460514D01*
X193951905Y-33365276D02*
X194190000Y-33460514D01*
X194190000Y-33460514D02*
X194428095Y-33365276D01*
X194047143Y-33650990D02*
X194190000Y-33460514D01*
X194190000Y-33460514D02*
X194332857Y-33650990D01*
X184238095Y-55004819D02*
X184238095Y-55814342D01*
X184238095Y-55814342D02*
X184285714Y-55909580D01*
X184285714Y-55909580D02*
X184333333Y-55957200D01*
X184333333Y-55957200D02*
X184428571Y-56004819D01*
X184428571Y-56004819D02*
X184619047Y-56004819D01*
X184619047Y-56004819D02*
X184714285Y-55957200D01*
X184714285Y-55957200D02*
X184761904Y-55909580D01*
X184761904Y-55909580D02*
X184809523Y-55814342D01*
X184809523Y-55814342D02*
X184809523Y-55004819D01*
X185190476Y-55004819D02*
X185809523Y-55004819D01*
X185809523Y-55004819D02*
X185476190Y-55385771D01*
X185476190Y-55385771D02*
X185619047Y-55385771D01*
X185619047Y-55385771D02*
X185714285Y-55433390D01*
X185714285Y-55433390D02*
X185761904Y-55481009D01*
X185761904Y-55481009D02*
X185809523Y-55576247D01*
X185809523Y-55576247D02*
X185809523Y-55814342D01*
X185809523Y-55814342D02*
X185761904Y-55909580D01*
X185761904Y-55909580D02*
X185714285Y-55957200D01*
X185714285Y-55957200D02*
X185619047Y-56004819D01*
X185619047Y-56004819D02*
X185333333Y-56004819D01*
X185333333Y-56004819D02*
X185238095Y-55957200D01*
X185238095Y-55957200D02*
X185190476Y-55909580D01*
X172238095Y-39454819D02*
X172238095Y-40264342D01*
X172238095Y-40264342D02*
X172285714Y-40359580D01*
X172285714Y-40359580D02*
X172333333Y-40407200D01*
X172333333Y-40407200D02*
X172428571Y-40454819D01*
X172428571Y-40454819D02*
X172619047Y-40454819D01*
X172619047Y-40454819D02*
X172714285Y-40407200D01*
X172714285Y-40407200D02*
X172761904Y-40359580D01*
X172761904Y-40359580D02*
X172809523Y-40264342D01*
X172809523Y-40264342D02*
X172809523Y-39454819D01*
X173809523Y-40454819D02*
X173238095Y-40454819D01*
X173523809Y-40454819D02*
X173523809Y-39454819D01*
X173523809Y-39454819D02*
X173428571Y-39597676D01*
X173428571Y-39597676D02*
X173333333Y-39692914D01*
X173333333Y-39692914D02*
X173238095Y-39740533D01*
X169190000Y-34222419D02*
X169190000Y-34460514D01*
X168951905Y-34365276D02*
X169190000Y-34460514D01*
X169190000Y-34460514D02*
X169428095Y-34365276D01*
X169047143Y-34650990D02*
X169190000Y-34460514D01*
X169190000Y-34460514D02*
X169332857Y-34650990D01*
X169190000Y-34222419D02*
X169190000Y-34460514D01*
X168951905Y-34365276D02*
X169190000Y-34460514D01*
X169190000Y-34460514D02*
X169428095Y-34365276D01*
X169047143Y-34650990D02*
X169190000Y-34460514D01*
X169190000Y-34460514D02*
X169332857Y-34650990D01*
D12*
%TO.C,U2*%
X194444000Y-33920000D02*
X194444000Y-34196860D01*
X194444000Y-36183140D02*
X194444000Y-36769890D01*
X194444000Y-38690110D02*
X194444000Y-39309890D01*
X194444000Y-41230110D02*
X194444000Y-41849890D01*
X194444000Y-43770110D02*
X194444000Y-44080000D01*
X194444000Y-44080000D02*
X201556000Y-44080000D01*
X201556000Y-33920000D02*
X194444000Y-33920000D01*
X201556000Y-34229890D02*
X201556000Y-33920000D01*
X201556000Y-36769890D02*
X201556000Y-36150110D01*
X201556000Y-39309890D02*
X201556000Y-38690110D01*
X201556000Y-41849890D02*
X201556000Y-41230110D01*
X201556000Y-44080000D02*
X201556000Y-43770110D01*
D13*
%TO.C,U3*%
X185000000Y-56390000D02*
X183500000Y-56390000D01*
X185000000Y-56390000D02*
X186500000Y-56390000D01*
X185000000Y-59610000D02*
X183500000Y-59610000D01*
X185000000Y-59610000D02*
X186500000Y-59610000D01*
X182787500Y-56565000D02*
X182547500Y-56235000D01*
X183027500Y-56235000D01*
X182787500Y-56565000D01*
G36*
X182787500Y-56565000D02*
G01*
X182547500Y-56235000D01*
X183027500Y-56235000D01*
X182787500Y-56565000D01*
G37*
D12*
%TO.C,U1*%
X169444000Y-34920000D02*
X169444000Y-35196860D01*
X169444000Y-37183140D02*
X169444000Y-37769890D01*
X169444000Y-39690110D02*
X169444000Y-40309890D01*
X169444000Y-42230110D02*
X169444000Y-42849890D01*
X169444000Y-44770110D02*
X169444000Y-45080000D01*
X169444000Y-45080000D02*
X176556000Y-45080000D01*
X176556000Y-34920000D02*
X169444000Y-34920000D01*
X176556000Y-35229890D02*
X176556000Y-34920000D01*
X176556000Y-37769890D02*
X176556000Y-37150110D01*
X176556000Y-40309890D02*
X176556000Y-39690110D01*
X176556000Y-42849890D02*
X176556000Y-42230110D01*
X176556000Y-45080000D02*
X176556000Y-44770110D01*
%TD*%
M02*
