G04 EAGLE Gerber RS-274X export*
G75*
%MOMM*%
%FSLAX34Y34*%
%LPD*%
%INTop Copper*%
%IPPOS*%
%AMOC8*
5,1,8,0,0,1.08239X$1,22.5*%
G01*
G04 Define Apertures*
%ADD10R,0.800000X0.550000*%
%ADD11R,1.250000X0.855600*%
%ADD12R,0.965200X0.939800*%
%ADD13R,1.701800X1.016000*%
%ADD14R,0.990600X0.406400*%
%ADD15C,1.524000*%
%ADD16C,0.508000*%
%ADD17C,0.406400*%
G36*
X293975Y35620D02*
X293678Y35560D01*
X36322Y35560D01*
X36047Y35611D01*
X35792Y35775D01*
X35620Y36025D01*
X35560Y36322D01*
X35560Y214378D01*
X35611Y214653D01*
X35775Y214908D01*
X36025Y215080D01*
X36322Y215140D01*
X293678Y215140D01*
X293953Y215089D01*
X294208Y214925D01*
X294380Y214675D01*
X294440Y214378D01*
X294440Y36322D01*
X294389Y36047D01*
X294225Y35792D01*
X293975Y35620D01*
G37*
%LPC*%
G36*
X200674Y43180D02*
X205726Y43180D01*
X210394Y45113D01*
X213967Y48686D01*
X215900Y53354D01*
X215900Y55118D01*
X215951Y55393D01*
X216115Y55648D01*
X216365Y55820D01*
X216662Y55880D01*
X280916Y55880D01*
X283716Y57040D01*
X285860Y59184D01*
X287020Y61984D01*
X287020Y181094D01*
X285860Y183894D01*
X283716Y186038D01*
X280916Y187198D01*
X254769Y187198D01*
X254483Y187254D01*
X254230Y187421D01*
X251913Y189738D01*
X230687Y189738D01*
X228370Y187421D01*
X228128Y187258D01*
X227831Y187198D01*
X206884Y187198D01*
X204084Y186038D01*
X202005Y183959D01*
X201763Y183796D01*
X201466Y183736D01*
X194846Y183736D01*
X191870Y180760D01*
X191870Y179400D01*
X191817Y179120D01*
X191651Y178866D01*
X191498Y178763D01*
X176179Y163443D01*
X175937Y163280D01*
X175640Y163220D01*
X171780Y163220D01*
X171494Y163276D01*
X171261Y163430D01*
X159046Y163430D01*
X156070Y160454D01*
X156070Y150746D01*
X159046Y147770D01*
X171261Y147770D01*
X171483Y147920D01*
X171780Y147980D01*
X180628Y147980D01*
X183428Y149140D01*
X191700Y157412D01*
X192032Y157606D01*
X192334Y157629D01*
X192622Y157532D01*
X192848Y157330D01*
X192946Y157200D01*
X193355Y156770D01*
X193813Y156391D01*
X194029Y156250D01*
X194029Y156584D01*
X212371Y156584D01*
X212371Y156241D01*
X212382Y156247D01*
X212858Y156604D01*
X213288Y157013D01*
X213667Y157470D01*
X213991Y157969D01*
X214254Y158501D01*
X214453Y159061D01*
X214584Y159631D01*
X214657Y160513D01*
X214657Y169697D01*
X214621Y170312D01*
X214542Y170759D01*
X214530Y170892D01*
X214530Y171196D01*
X214581Y171471D01*
X214745Y171726D01*
X214995Y171898D01*
X215292Y171958D01*
X226822Y171958D01*
X227097Y171907D01*
X227352Y171743D01*
X227524Y171493D01*
X227584Y171196D01*
X227584Y156105D01*
X227620Y155490D01*
X227699Y155043D01*
X227711Y154910D01*
X227711Y143438D01*
X230687Y140462D01*
X233426Y140462D01*
X233701Y140411D01*
X233956Y140247D01*
X234128Y139997D01*
X234188Y139700D01*
X234188Y130182D01*
X234132Y129896D01*
X233965Y129643D01*
X231267Y126945D01*
X231267Y124172D01*
X231235Y123953D01*
X231091Y123685D01*
X230860Y123407D01*
X230536Y122908D01*
X230273Y122376D01*
X230074Y121816D01*
X229944Y121246D01*
X229870Y120364D01*
X229870Y108226D01*
X229906Y107611D01*
X230010Y107026D01*
X230181Y106457D01*
X230418Y105912D01*
X230716Y105399D01*
X231073Y104923D01*
X231482Y104493D01*
X231939Y104114D01*
X232438Y103790D01*
X232970Y103527D01*
X233301Y103410D01*
X233575Y103239D01*
X233747Y102989D01*
X233803Y102711D01*
X235295Y101219D01*
X240538Y101219D01*
X240538Y106553D01*
X242062Y106553D01*
X242062Y101219D01*
X247305Y101219D01*
X248799Y102713D01*
X248878Y103037D01*
X249068Y103273D01*
X249335Y103417D01*
X249397Y103435D01*
X249942Y103672D01*
X250455Y103970D01*
X250931Y104327D01*
X251361Y104736D01*
X251740Y105193D01*
X252064Y105692D01*
X252327Y106224D01*
X252526Y106784D01*
X252657Y107354D01*
X252730Y108236D01*
X252730Y120374D01*
X252694Y120989D01*
X252590Y121574D01*
X252419Y122143D01*
X252182Y122688D01*
X251884Y123201D01*
X251500Y123712D01*
X251506Y123716D01*
X251393Y123888D01*
X251333Y124185D01*
X251333Y126945D01*
X248635Y129643D01*
X248472Y129885D01*
X248412Y130182D01*
X248412Y139700D01*
X248463Y139975D01*
X248627Y140230D01*
X248877Y140402D01*
X249174Y140462D01*
X251913Y140462D01*
X254889Y143438D01*
X254889Y154913D01*
X254908Y155083D01*
X254943Y155233D01*
X255016Y156115D01*
X255016Y171196D01*
X255067Y171471D01*
X255231Y171726D01*
X255481Y171898D01*
X255778Y171958D01*
X271018Y171958D01*
X271293Y171907D01*
X271548Y171743D01*
X271720Y171493D01*
X271780Y171196D01*
X271780Y71882D01*
X271729Y71607D01*
X271565Y71352D01*
X271315Y71180D01*
X271018Y71120D01*
X216662Y71120D01*
X216387Y71171D01*
X216132Y71335D01*
X215960Y71585D01*
X215900Y71882D01*
X215900Y73646D01*
X213967Y78314D01*
X210394Y81887D01*
X205726Y83820D01*
X200674Y83820D01*
X196006Y81887D01*
X192433Y78314D01*
X190500Y73646D01*
X190500Y53354D01*
X192433Y48686D01*
X196006Y45113D01*
X200674Y43180D01*
G37*
G36*
X124474Y43180D02*
X129526Y43180D01*
X134194Y45113D01*
X137767Y48686D01*
X139700Y53354D01*
X139700Y73646D01*
X137767Y78314D01*
X134194Y81887D01*
X129526Y83820D01*
X124474Y83820D01*
X119806Y81887D01*
X116233Y78314D01*
X114300Y73646D01*
X114300Y71882D01*
X114249Y71607D01*
X114085Y71352D01*
X113835Y71180D01*
X113538Y71120D01*
X59182Y71120D01*
X58907Y71171D01*
X58652Y71335D01*
X58480Y71585D01*
X58420Y71882D01*
X58420Y140596D01*
X58471Y140871D01*
X58635Y141126D01*
X58885Y141298D01*
X59182Y141358D01*
X63981Y141358D01*
X64256Y141307D01*
X64511Y141143D01*
X64683Y140893D01*
X64743Y140596D01*
X64743Y135103D01*
X64779Y134488D01*
X64883Y133903D01*
X65054Y133334D01*
X65291Y132789D01*
X65589Y132276D01*
X65946Y131800D01*
X66355Y131370D01*
X66813Y130991D01*
X67029Y130850D01*
X67029Y131184D01*
X85371Y131184D01*
X85371Y130841D01*
X85382Y130847D01*
X85858Y131204D01*
X86288Y131613D01*
X86667Y132070D01*
X86991Y132569D01*
X87254Y133101D01*
X87453Y133661D01*
X87584Y134231D01*
X87657Y135113D01*
X87657Y144297D01*
X87621Y144912D01*
X87542Y145359D01*
X87530Y145492D01*
X87530Y155360D01*
X84554Y158336D01*
X67846Y158336D01*
X66331Y156821D01*
X66089Y156658D01*
X65792Y156598D01*
X59182Y156598D01*
X58907Y156649D01*
X58652Y156813D01*
X58480Y157063D01*
X58420Y157360D01*
X58420Y169418D01*
X58471Y169693D01*
X58635Y169948D01*
X58885Y170120D01*
X59182Y170180D01*
X72002Y170180D01*
X72288Y170124D01*
X72541Y169957D01*
X74477Y168021D01*
X85444Y168021D01*
X85614Y168002D01*
X85764Y167968D01*
X86646Y167894D01*
X91164Y167894D01*
X91779Y167930D01*
X92226Y168009D01*
X92359Y168021D01*
X95413Y168021D01*
X95704Y167963D01*
X98077Y166980D01*
X132348Y166980D01*
X132623Y166929D01*
X132878Y166765D01*
X133050Y166515D01*
X133110Y166218D01*
X133110Y165862D01*
X146190Y165862D01*
X146190Y166890D01*
X146246Y167176D01*
X146413Y167429D01*
X148730Y169746D01*
X148730Y179454D01*
X145754Y182430D01*
X133539Y182430D01*
X133317Y182280D01*
X133020Y182220D01*
X107061Y182220D01*
X106786Y182271D01*
X106531Y182435D01*
X106359Y182685D01*
X106299Y182982D01*
X106299Y184603D01*
X103323Y187579D01*
X92356Y187579D01*
X92186Y187598D01*
X92036Y187633D01*
X91154Y187706D01*
X86636Y187706D01*
X86021Y187670D01*
X85574Y187591D01*
X85441Y187579D01*
X74477Y187579D01*
X72541Y185643D01*
X72299Y185480D01*
X72002Y185420D01*
X49284Y185420D01*
X46484Y184260D01*
X44340Y182116D01*
X43180Y179316D01*
X43180Y61984D01*
X44340Y59184D01*
X46484Y57040D01*
X49284Y55880D01*
X113538Y55880D01*
X113813Y55829D01*
X114068Y55665D01*
X114240Y55415D01*
X114300Y55118D01*
X114300Y53354D01*
X116233Y48686D01*
X119806Y45113D01*
X124474Y43180D01*
G37*
G36*
X159046Y166770D02*
X171254Y166770D01*
X174230Y169746D01*
X174230Y179454D01*
X171254Y182430D01*
X159046Y182430D01*
X156070Y179454D01*
X156070Y169746D01*
X159046Y166770D01*
G37*
G36*
X133546Y147770D02*
X145754Y147770D01*
X148730Y150746D01*
X148730Y160454D01*
X146413Y162771D01*
X146250Y163013D01*
X146190Y163310D01*
X146190Y164338D01*
X133110Y164338D01*
X133110Y163310D01*
X133054Y163024D01*
X132887Y162771D01*
X130570Y160454D01*
X130570Y150746D01*
X133546Y147770D01*
G37*
G36*
X203962Y149004D02*
X210502Y149004D01*
X211990Y150492D01*
X211990Y155060D01*
X203962Y155060D01*
X203962Y149004D01*
G37*
G36*
X195898Y149004D02*
X202438Y149004D01*
X202438Y155060D01*
X194410Y155060D01*
X194410Y150492D01*
X195898Y149004D01*
G37*
G36*
X76962Y123604D02*
X83502Y123604D01*
X84990Y125092D01*
X84990Y129660D01*
X76962Y129660D01*
X76962Y123604D01*
G37*
G36*
X68898Y123604D02*
X75438Y123604D01*
X75438Y129660D01*
X67410Y129660D01*
X67410Y125092D01*
X68898Y123604D01*
G37*
G36*
X167640Y64262D02*
X177038Y64262D01*
X177038Y81280D01*
X175779Y81280D01*
X172045Y79733D01*
X169187Y76875D01*
X167640Y73141D01*
X167640Y64262D01*
G37*
G36*
X142240Y64262D02*
X151638Y64262D01*
X151638Y81280D01*
X150379Y81280D01*
X146645Y79733D01*
X143787Y76875D01*
X142240Y73141D01*
X142240Y64262D01*
G37*
G36*
X153162Y64262D02*
X162560Y64262D01*
X162560Y73141D01*
X161013Y76875D01*
X158155Y79733D01*
X154421Y81280D01*
X153162Y81280D01*
X153162Y64262D01*
G37*
G36*
X178562Y64262D02*
X187960Y64262D01*
X187960Y73141D01*
X186413Y76875D01*
X183555Y79733D01*
X179821Y81280D01*
X178562Y81280D01*
X178562Y64262D01*
G37*
G36*
X178562Y45720D02*
X179821Y45720D01*
X183555Y47267D01*
X186413Y50125D01*
X187960Y53859D01*
X187960Y62738D01*
X178562Y62738D01*
X178562Y45720D01*
G37*
G36*
X175779Y45720D02*
X177038Y45720D01*
X177038Y62738D01*
X167640Y62738D01*
X167640Y53859D01*
X169187Y50125D01*
X172045Y47267D01*
X175779Y45720D01*
G37*
G36*
X153162Y45720D02*
X154421Y45720D01*
X158155Y47267D01*
X161013Y50125D01*
X162560Y53859D01*
X162560Y62738D01*
X153162Y62738D01*
X153162Y45720D01*
G37*
G36*
X150379Y45720D02*
X151638Y45720D01*
X151638Y62738D01*
X142240Y62738D01*
X142240Y53859D01*
X143787Y50125D01*
X146645Y47267D01*
X150379Y45720D01*
G37*
%LPD*%
D10*
X139650Y174600D03*
X139650Y165100D03*
X139650Y155600D03*
X165150Y155600D03*
X165150Y174600D03*
D11*
X203200Y155822D03*
X203200Y174378D03*
X76200Y130422D03*
X76200Y148978D03*
D12*
X96393Y177800D03*
X81407Y177800D03*
D13*
X241300Y150622D03*
X241300Y179578D03*
D14*
X241300Y105791D03*
X241300Y122809D03*
D15*
X203200Y71120D02*
X203200Y55880D01*
X177800Y55880D02*
X177800Y71120D01*
X152400Y71120D02*
X152400Y55880D01*
X127000Y55880D02*
X127000Y71120D01*
D16*
X50800Y123578D02*
X50800Y152400D01*
X50800Y148978D02*
X76200Y148978D01*
X50800Y148978D02*
X50800Y123578D01*
X50800Y63500D01*
X127000Y63500D01*
X50800Y152400D02*
X50800Y177800D01*
X81407Y177800D01*
X127000Y165100D02*
X139650Y165100D01*
X127000Y114300D02*
X127000Y88900D01*
X127000Y114300D02*
X127000Y165100D01*
X114300Y88900D02*
X76200Y88900D01*
X76200Y130422D01*
X127000Y88900D02*
X177800Y88900D01*
X127000Y88900D02*
X114300Y88900D01*
X177800Y88900D02*
X177800Y63500D01*
X152400Y63500D01*
X177800Y88900D02*
X194733Y88900D01*
X203200Y88900D01*
X203200Y101600D02*
X203200Y155822D01*
D17*
X241300Y105791D02*
X241300Y88900D01*
X203200Y88900D01*
D16*
X203200Y101600D01*
X139650Y174600D02*
X99593Y174600D01*
X96393Y177800D01*
D17*
X241300Y150622D02*
X241300Y122809D01*
D16*
X241300Y179578D02*
X279400Y179578D01*
X279400Y63500D01*
X203200Y63500D01*
X203200Y174378D02*
X208400Y179578D01*
X241300Y179578D01*
X203200Y174378D02*
X201081Y172259D01*
X195771Y172259D01*
X179112Y155600D02*
X165150Y155600D01*
X179112Y155600D02*
X195771Y172259D01*
M02*
