G04 EAGLE Gerber RS-274X export*
G75*
%MOMM*%
%FSLAX34Y34*%
%LPD*%
%INBottom Copper*%
%IPPOS*%
%AMOC8*
5,1,8,0,0,1.08239X$1,22.5*%
G01*
G04 Define Apertures*
%ADD10C,1.524000*%
%ADD11C,4.318000*%
%ADD12R,1.346200X1.346200*%
%ADD13C,1.346200*%
%ADD14R,1.371600X1.371600*%
%ADD15C,1.371600*%
%ADD16C,1.524000*%
%ADD17C,0.756400*%
%ADD18C,0.406400*%
G36*
X852775Y492820D02*
X852478Y492760D01*
X10922Y492760D01*
X10647Y492811D01*
X10392Y492975D01*
X10220Y493225D01*
X10160Y493522D01*
X10160Y1573278D01*
X10211Y1573553D01*
X10375Y1573808D01*
X10625Y1573980D01*
X10922Y1574040D01*
X852478Y1574040D01*
X852753Y1573989D01*
X853008Y1573825D01*
X853180Y1573575D01*
X853240Y1573278D01*
X853240Y493522D01*
X853189Y493247D01*
X853025Y492992D01*
X852775Y492820D01*
G37*
%LPC*%
G36*
X416574Y1541020D02*
X421626Y1541020D01*
X426294Y1542953D01*
X429867Y1546526D01*
X431096Y1549494D01*
X431240Y1549720D01*
X431486Y1549897D01*
X431782Y1549964D01*
X432080Y1549911D01*
X432335Y1549746D01*
X432504Y1549494D01*
X433733Y1546526D01*
X437306Y1542953D01*
X441974Y1541020D01*
X447026Y1541020D01*
X451694Y1542953D01*
X455267Y1546526D01*
X456496Y1549494D01*
X456640Y1549720D01*
X456886Y1549897D01*
X457182Y1549964D01*
X457480Y1549911D01*
X457735Y1549746D01*
X457904Y1549494D01*
X459133Y1546526D01*
X462706Y1542953D01*
X467374Y1541020D01*
X472426Y1541020D01*
X477094Y1542953D01*
X480667Y1546526D01*
X482600Y1551194D01*
X482600Y1556246D01*
X480667Y1560914D01*
X477094Y1564487D01*
X472426Y1566420D01*
X467374Y1566420D01*
X462706Y1564487D01*
X459133Y1560914D01*
X457904Y1557946D01*
X457760Y1557720D01*
X457514Y1557543D01*
X457218Y1557476D01*
X456920Y1557529D01*
X456666Y1557694D01*
X456496Y1557946D01*
X455267Y1560914D01*
X451694Y1564487D01*
X447026Y1566420D01*
X441974Y1566420D01*
X437306Y1564487D01*
X433733Y1560914D01*
X432504Y1557946D01*
X432360Y1557720D01*
X432114Y1557543D01*
X431818Y1557476D01*
X431520Y1557529D01*
X431266Y1557694D01*
X431096Y1557946D01*
X429867Y1560914D01*
X426294Y1564487D01*
X421626Y1566420D01*
X416574Y1566420D01*
X411906Y1564487D01*
X408333Y1560914D01*
X406400Y1556246D01*
X406400Y1551194D01*
X408333Y1546526D01*
X411906Y1542953D01*
X416574Y1541020D01*
G37*
G36*
X383540Y1554482D02*
X392938Y1554482D01*
X392938Y1563880D01*
X391679Y1563880D01*
X387945Y1562333D01*
X385087Y1559475D01*
X383540Y1555741D01*
X383540Y1554482D01*
G37*
G36*
X394462Y1554482D02*
X403860Y1554482D01*
X403860Y1555741D01*
X402313Y1559475D01*
X399455Y1562333D01*
X395721Y1563880D01*
X394462Y1563880D01*
X394462Y1554482D01*
G37*
G36*
X394462Y1543560D02*
X395721Y1543560D01*
X399455Y1545107D01*
X402313Y1547965D01*
X403860Y1551699D01*
X403860Y1552958D01*
X394462Y1552958D01*
X394462Y1543560D01*
G37*
G36*
X391679Y1543560D02*
X392938Y1543560D01*
X392938Y1552958D01*
X383540Y1552958D01*
X383540Y1551699D01*
X385087Y1547965D01*
X387945Y1545107D01*
X391679Y1543560D01*
G37*
G36*
X379585Y1021588D02*
X522115Y1021588D01*
X524729Y1022671D01*
X526729Y1024671D01*
X527812Y1027285D01*
X527812Y1071082D01*
X527861Y1071351D01*
X528022Y1071608D01*
X528271Y1071781D01*
X528568Y1071844D01*
X528866Y1071786D01*
X531637Y1070638D01*
X535163Y1070638D01*
X538420Y1071987D01*
X538598Y1072165D01*
X538839Y1072328D01*
X539136Y1072388D01*
X565764Y1072388D01*
X566050Y1072332D01*
X566302Y1072165D01*
X566480Y1071987D01*
X569737Y1070638D01*
X573263Y1070638D01*
X576520Y1071987D01*
X579013Y1074480D01*
X580362Y1077737D01*
X580362Y1081263D01*
X579013Y1084520D01*
X576520Y1087013D01*
X573263Y1088362D01*
X569737Y1088362D01*
X566480Y1087013D01*
X566302Y1086835D01*
X566061Y1086672D01*
X565764Y1086612D01*
X539136Y1086612D01*
X538850Y1086668D01*
X538598Y1086835D01*
X538420Y1087013D01*
X535163Y1088362D01*
X531637Y1088362D01*
X529794Y1087599D01*
X529533Y1087541D01*
X529234Y1087590D01*
X528977Y1087751D01*
X528803Y1088000D01*
X528741Y1088297D01*
X528799Y1088594D01*
X529562Y1090437D01*
X529562Y1093963D01*
X528213Y1097220D01*
X525720Y1099713D01*
X522463Y1101062D01*
X518937Y1101062D01*
X515680Y1099713D01*
X513187Y1097220D01*
X511838Y1093963D01*
X511838Y1090437D01*
X513187Y1087180D01*
X513365Y1087002D01*
X513528Y1086761D01*
X513588Y1086464D01*
X513588Y1036574D01*
X513537Y1036299D01*
X513373Y1036044D01*
X513123Y1035872D01*
X512826Y1035812D01*
X501610Y1035812D01*
X501346Y1035859D01*
X501088Y1036018D01*
X500913Y1036266D01*
X500848Y1036562D01*
X500903Y1036860D01*
X501071Y1037113D01*
X501329Y1037371D01*
X502412Y1039985D01*
X502412Y1086464D01*
X502468Y1086750D01*
X502635Y1087002D01*
X502813Y1087180D01*
X504162Y1090437D01*
X504162Y1093963D01*
X502813Y1097220D01*
X500320Y1099713D01*
X497063Y1101062D01*
X493537Y1101062D01*
X490280Y1099713D01*
X487787Y1097220D01*
X486438Y1093963D01*
X486438Y1090437D01*
X487787Y1087180D01*
X487965Y1087002D01*
X488128Y1086761D01*
X488188Y1086464D01*
X488188Y1049274D01*
X488137Y1048999D01*
X487973Y1048744D01*
X487723Y1048572D01*
X487426Y1048512D01*
X465618Y1048512D01*
X465349Y1048561D01*
X465092Y1048722D01*
X464919Y1048971D01*
X464856Y1049268D01*
X464914Y1049566D01*
X466062Y1052337D01*
X466062Y1055863D01*
X464713Y1059120D01*
X462220Y1061613D01*
X458963Y1062962D01*
X455437Y1062962D01*
X452666Y1061814D01*
X452398Y1061756D01*
X452099Y1061807D01*
X451844Y1061971D01*
X451672Y1062221D01*
X451612Y1062518D01*
X451612Y1505564D01*
X451668Y1505850D01*
X451835Y1506102D01*
X452013Y1506280D01*
X453362Y1509537D01*
X453362Y1513063D01*
X452013Y1516320D01*
X449520Y1518813D01*
X446263Y1520162D01*
X442737Y1520162D01*
X439480Y1518813D01*
X436987Y1516320D01*
X435638Y1513063D01*
X435638Y1509537D01*
X436987Y1506280D01*
X437165Y1506102D01*
X437328Y1505861D01*
X437388Y1505564D01*
X437388Y1052685D01*
X438471Y1050071D01*
X438729Y1049813D01*
X438882Y1049593D01*
X438952Y1049298D01*
X438901Y1048999D01*
X438738Y1048744D01*
X438488Y1048572D01*
X438191Y1048512D01*
X424836Y1048512D01*
X424550Y1048568D01*
X424298Y1048735D01*
X424120Y1048913D01*
X420863Y1050262D01*
X417337Y1050262D01*
X414080Y1048913D01*
X411587Y1046420D01*
X410238Y1043163D01*
X410238Y1039637D01*
X411386Y1036866D01*
X411444Y1036598D01*
X411393Y1036299D01*
X411229Y1036044D01*
X410979Y1035872D01*
X410682Y1035812D01*
X388874Y1035812D01*
X388599Y1035863D01*
X388344Y1036027D01*
X388172Y1036277D01*
X388112Y1036574D01*
X388112Y1048364D01*
X388168Y1048650D01*
X388335Y1048902D01*
X388513Y1049080D01*
X389862Y1052337D01*
X389862Y1055863D01*
X388513Y1059120D01*
X386020Y1061613D01*
X382763Y1062962D01*
X379237Y1062962D01*
X375980Y1061613D01*
X373487Y1059120D01*
X372138Y1055863D01*
X372138Y1052337D01*
X373487Y1049080D01*
X373665Y1048902D01*
X373828Y1048661D01*
X373888Y1048364D01*
X373888Y1027285D01*
X374971Y1024671D01*
X376971Y1022671D01*
X379585Y1021588D01*
G37*
G36*
X803392Y1463534D02*
X810016Y1463534D01*
X816415Y1465249D01*
X822153Y1468561D01*
X826837Y1473245D01*
X830149Y1478983D01*
X831864Y1485382D01*
X831864Y1492006D01*
X830149Y1498405D01*
X826837Y1504143D01*
X822153Y1508827D01*
X816415Y1512139D01*
X810016Y1513854D01*
X803392Y1513854D01*
X796993Y1512139D01*
X791255Y1508827D01*
X786571Y1504143D01*
X783259Y1498405D01*
X781544Y1492006D01*
X781544Y1485382D01*
X783259Y1478983D01*
X786571Y1473245D01*
X791255Y1468561D01*
X796993Y1465249D01*
X803392Y1463534D01*
G37*
G36*
X48504Y1463534D02*
X55128Y1463534D01*
X61527Y1465249D01*
X67265Y1468561D01*
X71949Y1473245D01*
X75261Y1478983D01*
X76976Y1485382D01*
X76976Y1492006D01*
X75261Y1498405D01*
X71949Y1504143D01*
X67265Y1508827D01*
X61527Y1512139D01*
X55128Y1513854D01*
X48504Y1513854D01*
X42105Y1512139D01*
X36367Y1508827D01*
X31683Y1504143D01*
X28371Y1498405D01*
X26656Y1492006D01*
X26656Y1485382D01*
X28371Y1478983D01*
X31683Y1473245D01*
X36367Y1468561D01*
X42105Y1465249D01*
X48504Y1463534D01*
G37*
G36*
X803392Y1148828D02*
X810016Y1148828D01*
X816415Y1150543D01*
X822153Y1153855D01*
X826837Y1158539D01*
X830149Y1164277D01*
X831864Y1170676D01*
X831864Y1177300D01*
X830149Y1183699D01*
X826837Y1189437D01*
X822153Y1194121D01*
X816415Y1197433D01*
X810016Y1199148D01*
X803392Y1199148D01*
X796993Y1197433D01*
X791255Y1194121D01*
X786571Y1189437D01*
X783259Y1183699D01*
X781544Y1177300D01*
X781544Y1170676D01*
X783259Y1164277D01*
X786571Y1158539D01*
X791255Y1153855D01*
X796993Y1150543D01*
X803392Y1148828D01*
G37*
G36*
X48504Y1148828D02*
X55128Y1148828D01*
X61527Y1150543D01*
X67265Y1153855D01*
X71949Y1158539D01*
X75261Y1164277D01*
X76976Y1170676D01*
X76976Y1177300D01*
X75261Y1183699D01*
X71949Y1189437D01*
X67265Y1194121D01*
X61527Y1197433D01*
X55128Y1199148D01*
X48504Y1199148D01*
X42105Y1197433D01*
X36367Y1194121D01*
X31683Y1189437D01*
X28371Y1183699D01*
X26656Y1177300D01*
X26656Y1170676D01*
X28371Y1164277D01*
X31683Y1158539D01*
X36367Y1153855D01*
X42105Y1150543D01*
X48504Y1148828D01*
G37*
G36*
X607837Y1083338D02*
X611363Y1083338D01*
X614620Y1084687D01*
X617113Y1087180D01*
X618462Y1090437D01*
X618462Y1093963D01*
X617113Y1097220D01*
X616935Y1097398D01*
X616772Y1097639D01*
X616712Y1097936D01*
X616712Y1137264D01*
X616768Y1137550D01*
X616935Y1137802D01*
X617113Y1137980D01*
X618462Y1141237D01*
X618462Y1144763D01*
X617113Y1148020D01*
X614620Y1150513D01*
X611363Y1151862D01*
X607837Y1151862D01*
X604580Y1150513D01*
X602087Y1148020D01*
X600738Y1144763D01*
X600738Y1141237D01*
X602087Y1137980D01*
X602265Y1137802D01*
X602428Y1137561D01*
X602488Y1137264D01*
X602488Y1097936D01*
X602432Y1097650D01*
X602265Y1097398D01*
X602087Y1097220D01*
X600738Y1093963D01*
X600738Y1090437D01*
X602087Y1087180D01*
X604580Y1084687D01*
X607837Y1083338D01*
G37*
G36*
X684037Y1083338D02*
X687563Y1083338D01*
X690820Y1084687D01*
X693313Y1087180D01*
X694662Y1090437D01*
X694662Y1093963D01*
X693313Y1097220D01*
X693135Y1097398D01*
X692972Y1097639D01*
X692912Y1097936D01*
X692912Y1137264D01*
X692968Y1137550D01*
X693135Y1137802D01*
X693313Y1137980D01*
X694662Y1141237D01*
X694662Y1144763D01*
X693313Y1148020D01*
X690820Y1150513D01*
X687563Y1151862D01*
X684037Y1151862D01*
X680780Y1150513D01*
X678287Y1148020D01*
X676938Y1144763D01*
X676938Y1141237D01*
X678287Y1137980D01*
X678465Y1137802D01*
X678628Y1137561D01*
X678688Y1137264D01*
X678688Y1097936D01*
X678632Y1097650D01*
X678465Y1097398D01*
X678287Y1097220D01*
X676938Y1093963D01*
X676938Y1090437D01*
X678287Y1087180D01*
X680780Y1084687D01*
X684037Y1083338D01*
G37*
G36*
X201437Y1057938D02*
X204963Y1057938D01*
X208220Y1059287D01*
X210713Y1061780D01*
X212062Y1065037D01*
X212062Y1068563D01*
X210713Y1071820D01*
X210535Y1071998D01*
X210372Y1072239D01*
X210312Y1072536D01*
X210312Y1083782D01*
X210361Y1084051D01*
X210522Y1084308D01*
X210771Y1084481D01*
X211068Y1084544D01*
X211366Y1084486D01*
X214137Y1083338D01*
X217663Y1083338D01*
X220920Y1084687D01*
X221098Y1084865D01*
X221339Y1085028D01*
X221636Y1085088D01*
X273664Y1085088D01*
X273950Y1085032D01*
X274202Y1084865D01*
X274380Y1084687D01*
X277637Y1083338D01*
X281163Y1083338D01*
X284420Y1084687D01*
X286913Y1087180D01*
X288262Y1090437D01*
X288262Y1093963D01*
X286913Y1097220D01*
X284420Y1099713D01*
X281163Y1101062D01*
X277637Y1101062D01*
X274380Y1099713D01*
X274202Y1099535D01*
X273961Y1099372D01*
X273664Y1099312D01*
X221636Y1099312D01*
X221350Y1099368D01*
X221098Y1099535D01*
X220920Y1099713D01*
X217663Y1101062D01*
X214137Y1101062D01*
X211366Y1099914D01*
X211098Y1099856D01*
X210799Y1099907D01*
X210544Y1100071D01*
X210372Y1100321D01*
X210312Y1100618D01*
X210312Y1124564D01*
X210368Y1124850D01*
X210535Y1125102D01*
X210713Y1125280D01*
X212062Y1128537D01*
X212062Y1132063D01*
X210713Y1135320D01*
X208220Y1137813D01*
X204963Y1139162D01*
X201437Y1139162D01*
X198180Y1137813D01*
X195687Y1135320D01*
X194338Y1132063D01*
X194338Y1128537D01*
X195687Y1125280D01*
X195865Y1125102D01*
X196028Y1124861D01*
X196088Y1124564D01*
X196088Y1100618D01*
X196039Y1100349D01*
X195878Y1100092D01*
X195629Y1099919D01*
X195332Y1099856D01*
X195034Y1099914D01*
X192263Y1101062D01*
X188737Y1101062D01*
X185480Y1099713D01*
X185302Y1099535D01*
X185061Y1099372D01*
X184764Y1099312D01*
X158136Y1099312D01*
X157850Y1099368D01*
X157598Y1099535D01*
X157420Y1099713D01*
X154163Y1101062D01*
X150637Y1101062D01*
X147380Y1099713D01*
X144887Y1097220D01*
X143538Y1093963D01*
X143538Y1090437D01*
X144887Y1087180D01*
X147380Y1084687D01*
X150637Y1083338D01*
X154163Y1083338D01*
X157420Y1084687D01*
X157598Y1084865D01*
X157839Y1085028D01*
X158136Y1085088D01*
X184764Y1085088D01*
X185050Y1085032D01*
X185302Y1084865D01*
X185480Y1084687D01*
X188737Y1083338D01*
X192263Y1083338D01*
X195034Y1084486D01*
X195302Y1084544D01*
X195601Y1084493D01*
X195856Y1084329D01*
X196028Y1084079D01*
X196088Y1083782D01*
X196088Y1072536D01*
X196032Y1072250D01*
X195865Y1071998D01*
X195687Y1071820D01*
X194338Y1068563D01*
X194338Y1065037D01*
X195687Y1061780D01*
X198180Y1059287D01*
X201437Y1057938D01*
G37*
G36*
X112537Y969038D02*
X116063Y969038D01*
X119320Y970387D01*
X119498Y970565D01*
X119739Y970728D01*
X120036Y970788D01*
X514964Y970788D01*
X515250Y970732D01*
X515502Y970565D01*
X515680Y970387D01*
X518937Y969038D01*
X522463Y969038D01*
X525720Y970387D01*
X528213Y972880D01*
X529562Y976137D01*
X529562Y979663D01*
X528213Y982920D01*
X525720Y985413D01*
X522463Y986762D01*
X518937Y986762D01*
X515680Y985413D01*
X515502Y985235D01*
X515261Y985072D01*
X514964Y985012D01*
X325918Y985012D01*
X325649Y985061D01*
X325392Y985222D01*
X325219Y985471D01*
X325156Y985768D01*
X325214Y986066D01*
X326362Y988837D01*
X326362Y992363D01*
X325013Y995620D01*
X324835Y995798D01*
X324672Y996039D01*
X324612Y996336D01*
X324612Y1124564D01*
X324668Y1124850D01*
X324835Y1125102D01*
X325013Y1125280D01*
X326362Y1128537D01*
X326362Y1132063D01*
X325013Y1135320D01*
X322520Y1137813D01*
X319263Y1139162D01*
X315737Y1139162D01*
X312480Y1137813D01*
X309987Y1135320D01*
X308638Y1132063D01*
X308638Y1128537D01*
X309987Y1125280D01*
X310165Y1125102D01*
X310328Y1124861D01*
X310388Y1124564D01*
X310388Y996336D01*
X310332Y996050D01*
X310165Y995798D01*
X309987Y995620D01*
X308638Y992363D01*
X308638Y988837D01*
X309786Y986066D01*
X309844Y985798D01*
X309793Y985499D01*
X309629Y985244D01*
X309379Y985072D01*
X309082Y985012D01*
X120036Y985012D01*
X119750Y985068D01*
X119498Y985235D01*
X119320Y985413D01*
X116063Y986762D01*
X112537Y986762D01*
X109280Y985413D01*
X106787Y982920D01*
X105438Y979663D01*
X105438Y976137D01*
X106787Y972880D01*
X109280Y970387D01*
X112537Y969038D01*
G37*
G36*
X33034Y965200D02*
X53326Y965200D01*
X57994Y967133D01*
X61567Y970706D01*
X63500Y975374D01*
X63500Y980426D01*
X61567Y985094D01*
X57994Y988667D01*
X55026Y989896D01*
X54800Y990040D01*
X54623Y990286D01*
X54556Y990582D01*
X54609Y990880D01*
X54774Y991135D01*
X55026Y991304D01*
X57994Y992533D01*
X61567Y996106D01*
X63500Y1000774D01*
X63500Y1005826D01*
X61567Y1010494D01*
X57994Y1014067D01*
X55026Y1015296D01*
X54800Y1015440D01*
X54623Y1015686D01*
X54556Y1015982D01*
X54609Y1016280D01*
X54774Y1016535D01*
X55026Y1016704D01*
X57994Y1017933D01*
X61567Y1021506D01*
X63500Y1026174D01*
X63500Y1031226D01*
X61567Y1035894D01*
X57994Y1039467D01*
X53326Y1041400D01*
X33034Y1041400D01*
X28366Y1039467D01*
X24793Y1035894D01*
X22860Y1031226D01*
X22860Y1026174D01*
X24793Y1021506D01*
X28366Y1017933D01*
X31334Y1016704D01*
X31560Y1016560D01*
X31737Y1016314D01*
X31804Y1016018D01*
X31751Y1015720D01*
X31586Y1015466D01*
X31334Y1015296D01*
X28366Y1014067D01*
X24793Y1010494D01*
X22860Y1005826D01*
X22860Y1000774D01*
X24793Y996106D01*
X28366Y992533D01*
X31334Y991304D01*
X31560Y991160D01*
X31737Y990914D01*
X31804Y990618D01*
X31751Y990320D01*
X31586Y990066D01*
X31334Y989896D01*
X28366Y988667D01*
X24793Y985094D01*
X22860Y980426D01*
X22860Y975374D01*
X24793Y970706D01*
X28366Y967133D01*
X33034Y965200D01*
G37*
G36*
X807720Y1029462D02*
X824738Y1029462D01*
X824738Y1038860D01*
X815859Y1038860D01*
X812125Y1037313D01*
X809267Y1034455D01*
X807720Y1030721D01*
X807720Y1029462D01*
G37*
G36*
X826262Y1029462D02*
X843280Y1029462D01*
X843280Y1030721D01*
X841733Y1034455D01*
X838875Y1037313D01*
X835141Y1038860D01*
X826262Y1038860D01*
X826262Y1029462D01*
G37*
G36*
X125237Y1019838D02*
X128763Y1019838D01*
X132020Y1021187D01*
X132198Y1021365D01*
X132439Y1021528D01*
X132736Y1021588D01*
X260964Y1021588D01*
X261250Y1021532D01*
X261502Y1021365D01*
X261680Y1021187D01*
X264937Y1019838D01*
X268463Y1019838D01*
X271720Y1021187D01*
X274213Y1023680D01*
X275562Y1026937D01*
X275562Y1030463D01*
X274213Y1033720D01*
X271720Y1036213D01*
X268463Y1037562D01*
X264937Y1037562D01*
X261680Y1036213D01*
X261502Y1036035D01*
X261261Y1035872D01*
X260964Y1035812D01*
X132736Y1035812D01*
X132450Y1035868D01*
X132198Y1036035D01*
X132020Y1036213D01*
X128763Y1037562D01*
X125237Y1037562D01*
X121980Y1036213D01*
X119487Y1033720D01*
X118138Y1030463D01*
X118138Y1026937D01*
X119487Y1023680D01*
X121980Y1021187D01*
X125237Y1019838D01*
G37*
G36*
X826262Y1018540D02*
X835141Y1018540D01*
X838875Y1020087D01*
X841733Y1022945D01*
X843280Y1026679D01*
X843280Y1027938D01*
X826262Y1027938D01*
X826262Y1018540D01*
G37*
G36*
X815859Y1018540D02*
X824738Y1018540D01*
X824738Y1027938D01*
X807720Y1027938D01*
X807720Y1026679D01*
X809267Y1022945D01*
X812125Y1020087D01*
X815859Y1018540D01*
G37*
G36*
X815354Y939800D02*
X835646Y939800D01*
X840314Y941733D01*
X843887Y945306D01*
X845820Y949974D01*
X845820Y955026D01*
X843887Y959694D01*
X840314Y963267D01*
X837346Y964496D01*
X837120Y964640D01*
X836943Y964886D01*
X836876Y965182D01*
X836929Y965480D01*
X837094Y965735D01*
X837346Y965904D01*
X840314Y967133D01*
X843887Y970706D01*
X845820Y975374D01*
X845820Y980426D01*
X843887Y985094D01*
X840314Y988667D01*
X837346Y989896D01*
X837120Y990040D01*
X836943Y990286D01*
X836876Y990582D01*
X836929Y990880D01*
X837094Y991135D01*
X837346Y991304D01*
X840314Y992533D01*
X843887Y996106D01*
X845820Y1000774D01*
X845820Y1005826D01*
X843887Y1010494D01*
X840314Y1014067D01*
X835646Y1016000D01*
X815354Y1016000D01*
X810686Y1014067D01*
X807113Y1010494D01*
X805180Y1005826D01*
X805180Y1000774D01*
X807113Y996106D01*
X810686Y992533D01*
X813654Y991304D01*
X813880Y991160D01*
X814057Y990914D01*
X814124Y990618D01*
X814071Y990320D01*
X813906Y990066D01*
X813654Y989896D01*
X810686Y988667D01*
X807113Y985094D01*
X805180Y980426D01*
X805180Y975374D01*
X807113Y970706D01*
X810686Y967133D01*
X813654Y965904D01*
X813880Y965760D01*
X814057Y965514D01*
X814124Y965218D01*
X814071Y964920D01*
X813906Y964666D01*
X813654Y964496D01*
X810686Y963267D01*
X807113Y959694D01*
X805180Y955026D01*
X805180Y949974D01*
X807113Y945306D01*
X810686Y941733D01*
X815354Y939800D01*
G37*
G36*
X696737Y943638D02*
X700263Y943638D01*
X703520Y944987D01*
X703698Y945165D01*
X703939Y945328D01*
X704236Y945388D01*
X788815Y945388D01*
X791429Y946471D01*
X793429Y948471D01*
X794512Y951085D01*
X794512Y997564D01*
X794568Y997850D01*
X794735Y998102D01*
X794913Y998280D01*
X796262Y1001537D01*
X796262Y1005063D01*
X794913Y1008320D01*
X792420Y1010813D01*
X789163Y1012162D01*
X785637Y1012162D01*
X782380Y1010813D01*
X779887Y1008320D01*
X778538Y1005063D01*
X778538Y1001537D01*
X779887Y998280D01*
X780065Y998102D01*
X780228Y997861D01*
X780288Y997564D01*
X780288Y960374D01*
X780237Y960099D01*
X780073Y959844D01*
X779823Y959672D01*
X779526Y959612D01*
X704236Y959612D01*
X703950Y959668D01*
X703698Y959835D01*
X703520Y960013D01*
X700263Y961362D01*
X696737Y961362D01*
X693480Y960013D01*
X690987Y957520D01*
X689638Y954263D01*
X689638Y950737D01*
X690987Y947480D01*
X693480Y944987D01*
X696737Y943638D01*
G37*
G36*
X25400Y953262D02*
X42418Y953262D01*
X42418Y962660D01*
X33539Y962660D01*
X29805Y961113D01*
X26947Y958255D01*
X25400Y954521D01*
X25400Y953262D01*
G37*
G36*
X43942Y953262D02*
X60960Y953262D01*
X60960Y954521D01*
X59413Y958255D01*
X56555Y961113D01*
X52821Y962660D01*
X43942Y962660D01*
X43942Y953262D01*
G37*
G36*
X43942Y942340D02*
X52821Y942340D01*
X56555Y943887D01*
X59413Y946745D01*
X60960Y950479D01*
X60960Y951738D01*
X43942Y951738D01*
X43942Y942340D01*
G37*
G36*
X33539Y942340D02*
X42418Y942340D01*
X42418Y951738D01*
X25400Y951738D01*
X25400Y950479D01*
X26947Y946745D01*
X29805Y943887D01*
X33539Y942340D01*
G37*
G36*
X658637Y816638D02*
X662163Y816638D01*
X665420Y817987D01*
X667913Y820480D01*
X669262Y823737D01*
X669262Y827263D01*
X667913Y830520D01*
X667735Y830698D01*
X667572Y830939D01*
X667512Y831236D01*
X667512Y863839D01*
X666429Y866453D01*
X664429Y868454D01*
X661815Y869537D01*
X642366Y869537D01*
X642091Y869588D01*
X641836Y869751D01*
X641664Y870002D01*
X641604Y870299D01*
X641604Y879388D01*
X641653Y879657D01*
X641814Y879913D01*
X642063Y880087D01*
X642360Y880150D01*
X642658Y880092D01*
X645679Y878840D01*
X646938Y878840D01*
X646938Y889762D01*
X657860Y889762D01*
X657860Y891021D01*
X657029Y893026D01*
X656972Y893294D01*
X657023Y893593D01*
X657186Y893848D01*
X657436Y894020D01*
X657733Y894080D01*
X660317Y894080D01*
X660586Y894031D01*
X660843Y893870D01*
X661017Y893621D01*
X661079Y893324D01*
X661021Y893026D01*
X660400Y891526D01*
X660400Y886474D01*
X662333Y881806D01*
X665906Y878233D01*
X670574Y876300D01*
X675626Y876300D01*
X680294Y878233D01*
X683867Y881806D01*
X685800Y886474D01*
X685800Y891526D01*
X683867Y896194D01*
X680294Y899767D01*
X675626Y901700D01*
X670574Y901700D01*
X668566Y900868D01*
X668298Y900811D01*
X667999Y900861D01*
X667744Y901025D01*
X667572Y901275D01*
X667512Y901572D01*
X667512Y921364D01*
X667568Y921650D01*
X667735Y921902D01*
X667913Y922080D01*
X669262Y925337D01*
X669262Y928863D01*
X667913Y932120D01*
X665420Y934613D01*
X662163Y935962D01*
X658637Y935962D01*
X655380Y934613D01*
X652887Y932120D01*
X651538Y928863D01*
X651538Y925337D01*
X652887Y922080D01*
X653065Y921902D01*
X653228Y921661D01*
X653288Y921364D01*
X653288Y909066D01*
X653237Y908791D01*
X653073Y908536D01*
X652823Y908364D01*
X652526Y908304D01*
X633077Y908304D01*
X630463Y907221D01*
X628463Y905221D01*
X627380Y902607D01*
X627380Y899033D01*
X627331Y898764D01*
X627170Y898508D01*
X626921Y898334D01*
X626624Y898271D01*
X626326Y898329D01*
X624321Y899160D01*
X623062Y899160D01*
X623062Y878840D01*
X624321Y878840D01*
X626326Y879671D01*
X626594Y879728D01*
X626893Y879677D01*
X627148Y879514D01*
X627320Y879264D01*
X627380Y878967D01*
X627380Y861010D01*
X628463Y858396D01*
X630463Y856395D01*
X633077Y855313D01*
X652526Y855313D01*
X652801Y855262D01*
X653056Y855098D01*
X653228Y854848D01*
X653288Y854551D01*
X653288Y831236D01*
X653232Y830950D01*
X653065Y830698D01*
X652887Y830520D01*
X651538Y827263D01*
X651538Y823737D01*
X652887Y820480D01*
X655380Y817987D01*
X658637Y816638D01*
G37*
G36*
X594374Y876300D02*
X599426Y876300D01*
X604094Y878233D01*
X607667Y881806D01*
X609600Y886474D01*
X609600Y891526D01*
X607667Y896194D01*
X604094Y899767D01*
X599426Y901700D01*
X594374Y901700D01*
X589706Y899767D01*
X586133Y896194D01*
X584200Y891526D01*
X584200Y886474D01*
X586133Y881806D01*
X589706Y878233D01*
X594374Y876300D01*
G37*
G36*
X264174Y876300D02*
X269226Y876300D01*
X273894Y878233D01*
X277467Y881806D01*
X279400Y886474D01*
X279400Y891526D01*
X277467Y896194D01*
X273894Y899767D01*
X269226Y901700D01*
X264174Y901700D01*
X259506Y899767D01*
X255933Y896194D01*
X254000Y891526D01*
X254000Y886474D01*
X255933Y881806D01*
X259506Y878233D01*
X264174Y876300D01*
G37*
G36*
X187974Y876300D02*
X193026Y876300D01*
X197694Y878233D01*
X201267Y881806D01*
X203200Y886474D01*
X203200Y891526D01*
X201267Y896194D01*
X197694Y899767D01*
X193026Y901700D01*
X187974Y901700D01*
X183306Y899767D01*
X179733Y896194D01*
X177800Y891526D01*
X177800Y886474D01*
X179733Y881806D01*
X183306Y878233D01*
X187974Y876300D01*
G37*
G36*
X216662Y889762D02*
X226060Y889762D01*
X226060Y891021D01*
X224513Y894755D01*
X221655Y897613D01*
X217921Y899160D01*
X216662Y899160D01*
X216662Y889762D01*
G37*
G36*
X242062Y889762D02*
X251460Y889762D01*
X251460Y891021D01*
X249913Y894755D01*
X247055Y897613D01*
X243321Y899160D01*
X242062Y899160D01*
X242062Y889762D01*
G37*
G36*
X612140Y889762D02*
X621538Y889762D01*
X621538Y899160D01*
X620279Y899160D01*
X616545Y897613D01*
X613687Y894755D01*
X612140Y891021D01*
X612140Y889762D01*
G37*
G36*
X231140Y889762D02*
X240538Y889762D01*
X240538Y899160D01*
X239279Y899160D01*
X235545Y897613D01*
X232687Y894755D01*
X231140Y891021D01*
X231140Y889762D01*
G37*
G36*
X205740Y889762D02*
X215138Y889762D01*
X215138Y899160D01*
X213879Y899160D01*
X210145Y897613D01*
X207287Y894755D01*
X205740Y891021D01*
X205740Y889762D01*
G37*
G36*
X216662Y878840D02*
X217921Y878840D01*
X221655Y880387D01*
X224513Y883245D01*
X226060Y886979D01*
X226060Y888238D01*
X216662Y888238D01*
X216662Y878840D01*
G37*
G36*
X213879Y878840D02*
X215138Y878840D01*
X215138Y888238D01*
X205740Y888238D01*
X205740Y886979D01*
X207287Y883245D01*
X210145Y880387D01*
X213879Y878840D01*
G37*
G36*
X648462Y878840D02*
X649721Y878840D01*
X653455Y880387D01*
X656313Y883245D01*
X657860Y886979D01*
X657860Y888238D01*
X648462Y888238D01*
X648462Y878840D01*
G37*
G36*
X620279Y878840D02*
X621538Y878840D01*
X621538Y888238D01*
X612140Y888238D01*
X612140Y886979D01*
X613687Y883245D01*
X616545Y880387D01*
X620279Y878840D01*
G37*
G36*
X242062Y878840D02*
X243321Y878840D01*
X247055Y880387D01*
X249913Y883245D01*
X251460Y886979D01*
X251460Y888238D01*
X242062Y888238D01*
X242062Y878840D01*
G37*
G36*
X239279Y878840D02*
X240538Y878840D01*
X240538Y888238D01*
X231140Y888238D01*
X231140Y886979D01*
X232687Y883245D01*
X235545Y880387D01*
X239279Y878840D01*
G37*
G36*
X696737Y715038D02*
X700263Y715038D01*
X703520Y716387D01*
X706013Y718880D01*
X707362Y722137D01*
X707362Y725663D01*
X706013Y728920D01*
X703520Y731413D01*
X700263Y732762D01*
X696737Y732762D01*
X693480Y731413D01*
X693302Y731235D01*
X693061Y731072D01*
X692764Y731012D01*
X452374Y731012D01*
X452099Y731063D01*
X451844Y731227D01*
X451672Y731477D01*
X451612Y731774D01*
X451612Y870564D01*
X451668Y870850D01*
X451835Y871102D01*
X452013Y871280D01*
X453362Y874537D01*
X453362Y878063D01*
X452013Y881320D01*
X449520Y883813D01*
X446263Y885162D01*
X442737Y885162D01*
X439480Y883813D01*
X436987Y881320D01*
X435638Y878063D01*
X435638Y874537D01*
X436987Y871280D01*
X437165Y871102D01*
X437328Y870861D01*
X437388Y870564D01*
X437388Y722485D01*
X438471Y719871D01*
X440471Y717871D01*
X443085Y716788D01*
X692764Y716788D01*
X693050Y716732D01*
X693302Y716565D01*
X693480Y716387D01*
X696737Y715038D01*
G37*
G36*
X239537Y842038D02*
X243063Y842038D01*
X246320Y843387D01*
X246498Y843565D01*
X246739Y843728D01*
X247036Y843788D01*
X286364Y843788D01*
X286650Y843732D01*
X286902Y843565D01*
X287080Y843387D01*
X290337Y842038D01*
X293863Y842038D01*
X297120Y843387D01*
X299613Y845880D01*
X300962Y849137D01*
X300962Y852663D01*
X299613Y855920D01*
X297120Y858413D01*
X293863Y859762D01*
X290337Y859762D01*
X287080Y858413D01*
X286902Y858235D01*
X286661Y858072D01*
X286364Y858012D01*
X247036Y858012D01*
X246750Y858068D01*
X246498Y858235D01*
X246320Y858413D01*
X243063Y859762D01*
X239537Y859762D01*
X236280Y858413D01*
X233787Y855920D01*
X232438Y852663D01*
X232438Y849137D01*
X233787Y845880D01*
X236280Y843387D01*
X239537Y842038D01*
G37*
G36*
X334309Y722630D02*
X341331Y722630D01*
X348114Y724448D01*
X354196Y727959D01*
X359161Y732924D01*
X362673Y739006D01*
X364490Y745789D01*
X364490Y752811D01*
X362673Y759594D01*
X359161Y765676D01*
X354196Y770641D01*
X348114Y774153D01*
X341331Y775970D01*
X334309Y775970D01*
X327526Y774153D01*
X321444Y770641D01*
X316479Y765676D01*
X312968Y759594D01*
X311150Y752811D01*
X311150Y745789D01*
X312968Y739006D01*
X316479Y732924D01*
X321444Y727959D01*
X327526Y724448D01*
X334309Y722630D01*
G37*
G36*
X599440Y750062D02*
X608838Y750062D01*
X608838Y759460D01*
X607579Y759460D01*
X603845Y757913D01*
X600987Y755055D01*
X599440Y751321D01*
X599440Y750062D01*
G37*
G36*
X610362Y750062D02*
X619760Y750062D01*
X619760Y751321D01*
X618213Y755055D01*
X615355Y757913D01*
X611621Y759460D01*
X610362Y759460D01*
X610362Y750062D01*
G37*
G36*
X610362Y739140D02*
X611621Y739140D01*
X615355Y740687D01*
X618213Y743545D01*
X619760Y747279D01*
X619760Y748538D01*
X610362Y748538D01*
X610362Y739140D01*
G37*
G36*
X607579Y739140D02*
X608838Y739140D01*
X608838Y748538D01*
X599440Y748538D01*
X599440Y747279D01*
X600987Y743545D01*
X603845Y740687D01*
X607579Y739140D01*
G37*
G36*
X797725Y635762D02*
X802475Y635762D01*
X806862Y637579D01*
X810221Y640938D01*
X812038Y645325D01*
X812038Y650075D01*
X810221Y654462D01*
X806862Y657821D01*
X802335Y659696D01*
X802109Y659840D01*
X801932Y660086D01*
X801864Y660382D01*
X801918Y660680D01*
X802083Y660935D01*
X802335Y661104D01*
X806862Y662979D01*
X810221Y666338D01*
X812038Y670725D01*
X812038Y675475D01*
X810221Y679862D01*
X806862Y683221D01*
X802335Y685096D01*
X802114Y685236D01*
X801934Y685481D01*
X801865Y685776D01*
X801915Y686075D01*
X802079Y686330D01*
X802329Y686502D01*
X802626Y686562D01*
X809062Y686562D01*
X812038Y689538D01*
X812038Y707462D01*
X809062Y710438D01*
X791138Y710438D01*
X788162Y707462D01*
X788162Y689538D01*
X791138Y686562D01*
X797574Y686562D01*
X797831Y686517D01*
X798091Y686360D01*
X798268Y686114D01*
X798336Y685818D01*
X798282Y685520D01*
X798117Y685266D01*
X797865Y685096D01*
X793338Y683221D01*
X789979Y679862D01*
X788162Y675475D01*
X788162Y670725D01*
X789979Y666338D01*
X793338Y662979D01*
X797865Y661104D01*
X798091Y660960D01*
X798268Y660714D01*
X798336Y660418D01*
X798282Y660120D01*
X798117Y659866D01*
X797865Y659696D01*
X793338Y657821D01*
X789979Y654462D01*
X788162Y650075D01*
X788162Y645325D01*
X789979Y640938D01*
X793338Y637579D01*
X797725Y635762D01*
G37*
G36*
X696151Y686689D02*
X700849Y686689D01*
X705190Y688487D01*
X708513Y691810D01*
X710311Y696151D01*
X710311Y700849D01*
X708513Y705190D01*
X705190Y708513D01*
X700849Y710311D01*
X696151Y710311D01*
X691810Y708513D01*
X688487Y705190D01*
X686689Y700849D01*
X686689Y696151D01*
X688487Y691810D01*
X691810Y688487D01*
X696151Y686689D01*
G37*
G36*
X664265Y661289D02*
X681935Y661289D01*
X684911Y664265D01*
X684911Y681935D01*
X681935Y684911D01*
X664265Y684911D01*
X661289Y681935D01*
X661289Y664265D01*
X664265Y661289D01*
G37*
G36*
X714629Y673862D02*
X723138Y673862D01*
X723138Y682371D01*
X722056Y682371D01*
X718648Y680960D01*
X716040Y678352D01*
X714629Y674944D01*
X714629Y673862D01*
G37*
G36*
X724662Y673862D02*
X733171Y673862D01*
X733171Y674944D01*
X731760Y678352D01*
X729152Y680960D01*
X725744Y682371D01*
X724662Y682371D01*
X724662Y673862D01*
G37*
G36*
X724662Y663829D02*
X725744Y663829D01*
X729152Y665240D01*
X731760Y667848D01*
X733171Y671256D01*
X733171Y672338D01*
X724662Y672338D01*
X724662Y663829D01*
G37*
G36*
X722056Y663829D02*
X723138Y663829D01*
X723138Y672338D01*
X714629Y672338D01*
X714629Y671256D01*
X716040Y667848D01*
X718648Y665240D01*
X722056Y663829D01*
G37*
G36*
X334309Y572770D02*
X341331Y572770D01*
X348114Y574588D01*
X354196Y578099D01*
X359161Y583064D01*
X362673Y589146D01*
X364490Y595929D01*
X364490Y602951D01*
X362673Y609734D01*
X359161Y615816D01*
X354196Y620781D01*
X348114Y624293D01*
X341331Y626110D01*
X334309Y626110D01*
X327526Y624293D01*
X321444Y620781D01*
X316479Y615816D01*
X312968Y609734D01*
X311150Y602951D01*
X311150Y595929D01*
X312968Y589146D01*
X316479Y583064D01*
X321444Y578099D01*
X327526Y574588D01*
X334309Y572770D01*
G37*
G36*
X607074Y586740D02*
X612126Y586740D01*
X616794Y588673D01*
X620367Y592246D01*
X622300Y596914D01*
X622300Y601966D01*
X620367Y606634D01*
X616794Y610207D01*
X612126Y612140D01*
X607074Y612140D01*
X602406Y610207D01*
X598833Y606634D01*
X596900Y601966D01*
X596900Y596914D01*
X598833Y592246D01*
X602406Y588673D01*
X607074Y586740D01*
G37*
G36*
X739303Y534212D02*
X742828Y534212D01*
X746086Y535562D01*
X748579Y538054D01*
X749928Y541312D01*
X749928Y544837D01*
X748579Y548094D01*
X746086Y550587D01*
X742828Y551936D01*
X739303Y551936D01*
X736046Y550587D01*
X733553Y548094D01*
X732204Y544837D01*
X732204Y541312D01*
X733553Y538054D01*
X736046Y535562D01*
X739303Y534212D01*
G37*
%LPD*%
D10*
X609600Y749300D03*
X609600Y599440D03*
D11*
X337820Y749300D03*
X337820Y599440D03*
D10*
X266700Y889000D03*
X241300Y889000D03*
X215900Y889000D03*
X190500Y889000D03*
X673100Y889000D03*
X647700Y889000D03*
X622300Y889000D03*
X596900Y889000D03*
X469900Y1553720D03*
X444500Y1553720D03*
X419100Y1553720D03*
X393700Y1553720D03*
D12*
X673100Y673100D03*
D13*
X698500Y698500D03*
X723900Y673100D03*
D14*
X800100Y698500D03*
D15*
X800100Y673100D03*
X800100Y647700D03*
D16*
X817880Y952500D02*
X833120Y952500D01*
X833120Y977900D02*
X817880Y977900D01*
X817880Y1003300D02*
X833120Y1003300D01*
X833120Y1028700D02*
X817880Y1028700D01*
X50800Y1028700D02*
X35560Y1028700D01*
X35560Y1003300D02*
X50800Y1003300D01*
X50800Y977900D02*
X35560Y977900D01*
X35560Y952500D02*
X50800Y952500D01*
D17*
X685800Y1143000D03*
D18*
X685800Y1092200D01*
D17*
X685800Y1092200D03*
X114300Y977900D03*
D18*
X419100Y977900D01*
D17*
X520700Y977900D03*
D18*
X419100Y977900D01*
D17*
X533400Y1079500D03*
D18*
X571500Y1079500D01*
D17*
X571500Y1079500D03*
X444500Y1511300D03*
D18*
X444500Y1473200D01*
X444500Y1054100D01*
X457200Y1054100D01*
D17*
X457200Y1054100D03*
X444500Y876300D03*
D18*
X444500Y838200D01*
X444500Y723900D01*
X698500Y723900D01*
D17*
X698500Y723900D03*
X203200Y1066800D03*
D18*
X203200Y1130300D01*
D17*
X203200Y1130300D03*
X660400Y927100D03*
X660400Y825500D03*
D18*
X660400Y862425D01*
X660400Y901192D02*
X660400Y927100D01*
X660400Y901192D02*
X634492Y901192D01*
X634492Y862425D02*
X660400Y862425D01*
X634492Y862425D02*
X634492Y901192D01*
D17*
X698500Y952500D03*
D18*
X723900Y952500D01*
X787400Y952500D01*
X787400Y1003300D01*
D17*
X787400Y1003300D03*
X292100Y850900D03*
D18*
X241300Y850900D01*
D17*
X241300Y850900D03*
X127000Y1028700D03*
D18*
X266700Y1028700D01*
D17*
X266700Y1028700D03*
X419100Y1041400D03*
D18*
X495300Y1041400D01*
X495300Y1092200D01*
D17*
X495300Y1092200D03*
X152400Y1092200D03*
D18*
X190500Y1092200D01*
D17*
X190500Y1092200D03*
X215900Y1092200D03*
D18*
X279400Y1092200D01*
D17*
X279400Y1092200D03*
D18*
X381000Y1028700D02*
X469900Y1028700D01*
X482600Y1028700D01*
X520700Y1028700D01*
X520700Y1092200D01*
D17*
X520700Y1092200D03*
X381000Y1054100D03*
D18*
X381000Y1028700D01*
D17*
X317500Y990600D03*
D18*
X317500Y1130300D01*
D17*
X317500Y1130300D03*
X609600Y1092200D03*
D18*
X609600Y1143000D01*
D17*
X609600Y1143000D03*
X741066Y543074D03*
M02*
