%TF.GenerationSoftware,KiCad,Pcbnew,10.0.1*%
%TF.CreationDate,2026-07-08T06:05:28-04:00*%
%TF.ProjectId,NE555Circuit,4e453535-3543-4697-9263-7569742e6b69,rev?*%
%TF.SameCoordinates,Original*%
%TF.FileFunction,Legend,Top*%
%TF.FilePolarity,Positive*%
%FSLAX46Y46*%
G04 Gerber Fmt 4.6, Leading zero omitted, Abs format (unit mm)*
G04 Created by KiCad (PCBNEW 10.0.1) date 2026-07-08 06:05:28*
%MOMM*%
%LPD*%
G01*
G04 APERTURE LIST*
%ADD10C,0.150000*%
%ADD11C,0.120000*%
G04 APERTURE END LIST*
D10*
X120804819Y-75833333D02*
X120328628Y-76166666D01*
X120804819Y-76404761D02*
X119804819Y-76404761D01*
X119804819Y-76404761D02*
X119804819Y-76023809D01*
X119804819Y-76023809D02*
X119852438Y-75928571D01*
X119852438Y-75928571D02*
X119900057Y-75880952D01*
X119900057Y-75880952D02*
X119995295Y-75833333D01*
X119995295Y-75833333D02*
X120138152Y-75833333D01*
X120138152Y-75833333D02*
X120233390Y-75880952D01*
X120233390Y-75880952D02*
X120281009Y-75928571D01*
X120281009Y-75928571D02*
X120328628Y-76023809D01*
X120328628Y-76023809D02*
X120328628Y-76404761D01*
X120281009Y-75404761D02*
X120281009Y-75071428D01*
X120804819Y-74928571D02*
X120804819Y-75404761D01*
X120804819Y-75404761D02*
X119804819Y-75404761D01*
X119804819Y-75404761D02*
X119804819Y-74928571D01*
X120281009Y-74166666D02*
X120281009Y-74499999D01*
X120804819Y-74499999D02*
X119804819Y-74499999D01*
X119804819Y-74499999D02*
X119804819Y-74023809D01*
X119804819Y-73499999D02*
X120042914Y-73499999D01*
X119947676Y-73738094D02*
X120042914Y-73499999D01*
X120042914Y-73499999D02*
X119947676Y-73261904D01*
X120233390Y-73642856D02*
X120042914Y-73499999D01*
X120042914Y-73499999D02*
X120233390Y-73357142D01*
X119804819Y-72738094D02*
X120042914Y-72738094D01*
X119947676Y-72976189D02*
X120042914Y-72738094D01*
X120042914Y-72738094D02*
X119947676Y-72499999D01*
X120233390Y-72880951D02*
X120042914Y-72738094D01*
X120042914Y-72738094D02*
X120233390Y-72595237D01*
X132373095Y-71914819D02*
X132373095Y-72724342D01*
X132373095Y-72724342D02*
X132420714Y-72819580D01*
X132420714Y-72819580D02*
X132468333Y-72867200D01*
X132468333Y-72867200D02*
X132563571Y-72914819D01*
X132563571Y-72914819D02*
X132754047Y-72914819D01*
X132754047Y-72914819D02*
X132849285Y-72867200D01*
X132849285Y-72867200D02*
X132896904Y-72819580D01*
X132896904Y-72819580D02*
X132944523Y-72724342D01*
X132944523Y-72724342D02*
X132944523Y-71914819D01*
X133944523Y-72914819D02*
X133373095Y-72914819D01*
X133658809Y-72914819D02*
X133658809Y-71914819D01*
X133658809Y-71914819D02*
X133563571Y-72057676D01*
X133563571Y-72057676D02*
X133468333Y-72152914D01*
X133468333Y-72152914D02*
X133373095Y-72200533D01*
X141954819Y-75166666D02*
X141478628Y-75499999D01*
X141954819Y-75738094D02*
X140954819Y-75738094D01*
X140954819Y-75738094D02*
X140954819Y-75357142D01*
X140954819Y-75357142D02*
X141002438Y-75261904D01*
X141002438Y-75261904D02*
X141050057Y-75214285D01*
X141050057Y-75214285D02*
X141145295Y-75166666D01*
X141145295Y-75166666D02*
X141288152Y-75166666D01*
X141288152Y-75166666D02*
X141383390Y-75214285D01*
X141383390Y-75214285D02*
X141431009Y-75261904D01*
X141431009Y-75261904D02*
X141478628Y-75357142D01*
X141478628Y-75357142D02*
X141478628Y-75738094D01*
X141954819Y-74214285D02*
X141954819Y-74785713D01*
X141954819Y-74499999D02*
X140954819Y-74499999D01*
X140954819Y-74499999D02*
X141097676Y-74595237D01*
X141097676Y-74595237D02*
X141192914Y-74690475D01*
X141192914Y-74690475D02*
X141240533Y-74785713D01*
X142104819Y-79254166D02*
X141628628Y-79587499D01*
X142104819Y-79825594D02*
X141104819Y-79825594D01*
X141104819Y-79825594D02*
X141104819Y-79444642D01*
X141104819Y-79444642D02*
X141152438Y-79349404D01*
X141152438Y-79349404D02*
X141200057Y-79301785D01*
X141200057Y-79301785D02*
X141295295Y-79254166D01*
X141295295Y-79254166D02*
X141438152Y-79254166D01*
X141438152Y-79254166D02*
X141533390Y-79301785D01*
X141533390Y-79301785D02*
X141581009Y-79349404D01*
X141581009Y-79349404D02*
X141628628Y-79444642D01*
X141628628Y-79444642D02*
X141628628Y-79825594D01*
X141200057Y-78873213D02*
X141152438Y-78825594D01*
X141152438Y-78825594D02*
X141104819Y-78730356D01*
X141104819Y-78730356D02*
X141104819Y-78492261D01*
X141104819Y-78492261D02*
X141152438Y-78397023D01*
X141152438Y-78397023D02*
X141200057Y-78349404D01*
X141200057Y-78349404D02*
X141295295Y-78301785D01*
X141295295Y-78301785D02*
X141390533Y-78301785D01*
X141390533Y-78301785D02*
X141533390Y-78349404D01*
X141533390Y-78349404D02*
X142104819Y-78920832D01*
X142104819Y-78920832D02*
X142104819Y-78301785D01*
X114179580Y-75566666D02*
X114227200Y-75614285D01*
X114227200Y-75614285D02*
X114274819Y-75757142D01*
X114274819Y-75757142D02*
X114274819Y-75852380D01*
X114274819Y-75852380D02*
X114227200Y-75995237D01*
X114227200Y-75995237D02*
X114131961Y-76090475D01*
X114131961Y-76090475D02*
X114036723Y-76138094D01*
X114036723Y-76138094D02*
X113846247Y-76185713D01*
X113846247Y-76185713D02*
X113703390Y-76185713D01*
X113703390Y-76185713D02*
X113512914Y-76138094D01*
X113512914Y-76138094D02*
X113417676Y-76090475D01*
X113417676Y-76090475D02*
X113322438Y-75995237D01*
X113322438Y-75995237D02*
X113274819Y-75852380D01*
X113274819Y-75852380D02*
X113274819Y-75757142D01*
X113274819Y-75757142D02*
X113322438Y-75614285D01*
X113322438Y-75614285D02*
X113370057Y-75566666D01*
X114274819Y-74614285D02*
X114274819Y-75185713D01*
X114274819Y-74899999D02*
X113274819Y-74899999D01*
X113274819Y-74899999D02*
X113417676Y-74995237D01*
X113417676Y-74995237D02*
X113512914Y-75090475D01*
X113512914Y-75090475D02*
X113560533Y-75185713D01*
X120359580Y-79142857D02*
X120407200Y-79190476D01*
X120407200Y-79190476D02*
X120454819Y-79333333D01*
X120454819Y-79333333D02*
X120454819Y-79428571D01*
X120454819Y-79428571D02*
X120407200Y-79571428D01*
X120407200Y-79571428D02*
X120311961Y-79666666D01*
X120311961Y-79666666D02*
X120216723Y-79714285D01*
X120216723Y-79714285D02*
X120026247Y-79761904D01*
X120026247Y-79761904D02*
X119883390Y-79761904D01*
X119883390Y-79761904D02*
X119692914Y-79714285D01*
X119692914Y-79714285D02*
X119597676Y-79666666D01*
X119597676Y-79666666D02*
X119502438Y-79571428D01*
X119502438Y-79571428D02*
X119454819Y-79428571D01*
X119454819Y-79428571D02*
X119454819Y-79333333D01*
X119454819Y-79333333D02*
X119502438Y-79190476D01*
X119502438Y-79190476D02*
X119550057Y-79142857D01*
X120454819Y-78190476D02*
X120454819Y-78761904D01*
X120454819Y-78476190D02*
X119454819Y-78476190D01*
X119454819Y-78476190D02*
X119597676Y-78571428D01*
X119597676Y-78571428D02*
X119692914Y-78666666D01*
X119692914Y-78666666D02*
X119740533Y-78761904D01*
X119454819Y-77571428D02*
X119454819Y-77476190D01*
X119454819Y-77476190D02*
X119502438Y-77380952D01*
X119502438Y-77380952D02*
X119550057Y-77333333D01*
X119550057Y-77333333D02*
X119645295Y-77285714D01*
X119645295Y-77285714D02*
X119835771Y-77238095D01*
X119835771Y-77238095D02*
X120073866Y-77238095D01*
X120073866Y-77238095D02*
X120264342Y-77285714D01*
X120264342Y-77285714D02*
X120359580Y-77333333D01*
X120359580Y-77333333D02*
X120407200Y-77380952D01*
X120407200Y-77380952D02*
X120454819Y-77476190D01*
X120454819Y-77476190D02*
X120454819Y-77571428D01*
X120454819Y-77571428D02*
X120407200Y-77666666D01*
X120407200Y-77666666D02*
X120359580Y-77714285D01*
X120359580Y-77714285D02*
X120264342Y-77761904D01*
X120264342Y-77761904D02*
X120073866Y-77809523D01*
X120073866Y-77809523D02*
X119835771Y-77809523D01*
X119835771Y-77809523D02*
X119645295Y-77761904D01*
X119645295Y-77761904D02*
X119550057Y-77714285D01*
X119550057Y-77714285D02*
X119502438Y-77666666D01*
X119502438Y-77666666D02*
X119454819Y-77571428D01*
X122761905Y-78954819D02*
X122761905Y-77954819D01*
X122761905Y-77954819D02*
X123000000Y-77954819D01*
X123000000Y-77954819D02*
X123142857Y-78002438D01*
X123142857Y-78002438D02*
X123238095Y-78097676D01*
X123238095Y-78097676D02*
X123285714Y-78192914D01*
X123285714Y-78192914D02*
X123333333Y-78383390D01*
X123333333Y-78383390D02*
X123333333Y-78526247D01*
X123333333Y-78526247D02*
X123285714Y-78716723D01*
X123285714Y-78716723D02*
X123238095Y-78811961D01*
X123238095Y-78811961D02*
X123142857Y-78907200D01*
X123142857Y-78907200D02*
X123000000Y-78954819D01*
X123000000Y-78954819D02*
X122761905Y-78954819D01*
X124285714Y-78954819D02*
X123714286Y-78954819D01*
X124000000Y-78954819D02*
X124000000Y-77954819D01*
X124000000Y-77954819D02*
X123904762Y-78097676D01*
X123904762Y-78097676D02*
X123809524Y-78192914D01*
X123809524Y-78192914D02*
X123714286Y-78240533D01*
X126476190Y-75954819D02*
X126142857Y-75478628D01*
X125904762Y-75954819D02*
X125904762Y-74954819D01*
X125904762Y-74954819D02*
X126285714Y-74954819D01*
X126285714Y-74954819D02*
X126380952Y-75002438D01*
X126380952Y-75002438D02*
X126428571Y-75050057D01*
X126428571Y-75050057D02*
X126476190Y-75145295D01*
X126476190Y-75145295D02*
X126476190Y-75288152D01*
X126476190Y-75288152D02*
X126428571Y-75383390D01*
X126428571Y-75383390D02*
X126380952Y-75431009D01*
X126380952Y-75431009D02*
X126285714Y-75478628D01*
X126285714Y-75478628D02*
X125904762Y-75478628D01*
X127380952Y-75954819D02*
X126904762Y-75954819D01*
X126904762Y-75954819D02*
X126904762Y-74954819D01*
X127714286Y-75431009D02*
X128047619Y-75431009D01*
X128190476Y-75954819D02*
X127714286Y-75954819D01*
X127714286Y-75954819D02*
X127714286Y-74954819D01*
X127714286Y-74954819D02*
X128190476Y-74954819D01*
X128619048Y-75954819D02*
X128619048Y-74954819D01*
X128619048Y-74954819D02*
X128857143Y-74954819D01*
X128857143Y-74954819D02*
X129000000Y-75002438D01*
X129000000Y-75002438D02*
X129095238Y-75097676D01*
X129095238Y-75097676D02*
X129142857Y-75192914D01*
X129142857Y-75192914D02*
X129190476Y-75383390D01*
X129190476Y-75383390D02*
X129190476Y-75526247D01*
X129190476Y-75526247D02*
X129142857Y-75716723D01*
X129142857Y-75716723D02*
X129095238Y-75811961D01*
X129095238Y-75811961D02*
X129000000Y-75907200D01*
X129000000Y-75907200D02*
X128857143Y-75954819D01*
X128857143Y-75954819D02*
X128619048Y-75954819D01*
X130142857Y-75954819D02*
X129571429Y-75954819D01*
X129857143Y-75954819D02*
X129857143Y-74954819D01*
X129857143Y-74954819D02*
X129761905Y-75097676D01*
X129761905Y-75097676D02*
X129666667Y-75192914D01*
X129666667Y-75192914D02*
X129571429Y-75240533D01*
%TO.C,REF\u002A\u002A*%
D11*
X121265000Y-74727064D02*
X121265000Y-74272936D01*
X122735000Y-74727064D02*
X122735000Y-74272936D01*
%TO.C,U1*%
X130535000Y-73390000D02*
X130295000Y-73060000D01*
X130775000Y-73060000D01*
X130535000Y-73390000D01*
G36*
X130535000Y-73390000D02*
G01*
X130295000Y-73060000D01*
X130775000Y-73060000D01*
X130535000Y-73390000D01*
G37*
X135195000Y-78420000D02*
X131075000Y-78420000D01*
X135195000Y-78325000D02*
X135195000Y-78420000D01*
X135195000Y-73300000D02*
X135195000Y-73395000D01*
X131075000Y-78420000D02*
X131075000Y-78325000D01*
X131075000Y-73395000D02*
X131075000Y-73300000D01*
X131075000Y-73300000D02*
X135195000Y-73300000D01*
%TO.C,R1*%
X140735000Y-75139564D02*
X140735000Y-74685436D01*
X139265000Y-75139564D02*
X139265000Y-74685436D01*
%TO.C,R2*%
X139265000Y-78860436D02*
X139265000Y-79314564D01*
X140735000Y-78860436D02*
X140735000Y-79314564D01*
%TO.C,C1*%
X116235000Y-75661252D02*
X116235000Y-75138748D01*
X114765000Y-75661252D02*
X114765000Y-75138748D01*
%TO.C,C10*%
X119735000Y-75188748D02*
X119735000Y-75711252D01*
X118265000Y-75188748D02*
X118265000Y-75711252D01*
%TO.C,D1*%
X126937500Y-77540000D02*
X124252500Y-77540000D01*
X124252500Y-79460000D02*
X126937500Y-79460000D01*
X124252500Y-77540000D02*
X124252500Y-79460000D01*
%TO.C,RLED1*%
X125735000Y-75639564D02*
X125735000Y-75185436D01*
X124265000Y-75639564D02*
X124265000Y-75185436D01*
%TD*%
M02*
