%TF.GenerationSoftware,KiCad,Pcbnew,10.0.1*%
%TF.CreationDate,2026-07-08T06:05:28-04:00*%
%TF.ProjectId,NE555Circuit,4e453535-3543-4697-9263-7569742e6b69,rev?*%
%TF.SameCoordinates,Original*%
%TF.FileFunction,Copper,L1,Top*%
%TF.FilePolarity,Positive*%
%FSLAX46Y46*%
G04 Gerber Fmt 4.6, Leading zero omitted, Abs format (unit mm)*
G04 Created by KiCad (PCBNEW 10.0.1) date 2026-07-08 06:05:28*
%MOMM*%
%LPD*%
G01*
G04 APERTURE LIST*
G04 Aperture macros list*
%AMRoundRect*
0 Rectangle with rounded corners*
0 $1 Rounding radius*
0 $2 $3 $4 $5 $6 $7 $8 $9 X,Y pos of 4 corners*
0 Add a 4 corners polygon primitive as box body*
4,1,4,$2,$3,$4,$5,$6,$7,$8,$9,$2,$3,0*
0 Add four circle primitives for the rounded corners*
1,1,$1+$1,$2,$3*
1,1,$1+$1,$4,$5*
1,1,$1+$1,$6,$7*
1,1,$1+$1,$8,$9*
0 Add four rect primitives between the rounded corners*
20,1,$1+$1,$2,$3,$4,$5,0*
20,1,$1+$1,$4,$5,$6,$7,0*
20,1,$1+$1,$6,$7,$8,$9,0*
20,1,$1+$1,$8,$9,$2,$3,0*%
G04 Aperture macros list end*
%TA.AperFunction,Conductor*%
%ADD10C,0.200000*%
%TD*%
%TA.AperFunction,SMDPad,CuDef*%
%ADD11RoundRect,0.250000X0.450000X-0.262500X0.450000X0.262500X-0.450000X0.262500X-0.450000X-0.262500X0*%
%TD*%
%TA.AperFunction,SMDPad,CuDef*%
%ADD12RoundRect,0.150000X-0.825000X-0.150000X0.825000X-0.150000X0.825000X0.150000X-0.825000X0.150000X0*%
%TD*%
%TA.AperFunction,SMDPad,CuDef*%
%ADD13RoundRect,0.250000X-0.450000X0.262500X-0.450000X-0.262500X0.450000X-0.262500X0.450000X0.262500X0*%
%TD*%
%TA.AperFunction,SMDPad,CuDef*%
%ADD14RoundRect,0.250000X0.475000X-0.250000X0.475000X0.250000X-0.475000X0.250000X-0.475000X-0.250000X0*%
%TD*%
%TA.AperFunction,SMDPad,CuDef*%
%ADD15RoundRect,0.250000X-0.475000X0.250000X-0.475000X-0.250000X0.475000X-0.250000X0.475000X0.250000X0*%
%TD*%
%TA.AperFunction,SMDPad,CuDef*%
%ADD16RoundRect,0.243750X-0.243750X-0.456250X0.243750X-0.456250X0.243750X0.456250X-0.243750X0.456250X0*%
%TD*%
%TA.AperFunction,Conductor*%
%ADD17C,0.406400*%
%TD*%
%TA.AperFunction,Conductor*%
%ADD18C,0.254000*%
%TD*%
%TA.AperFunction,Conductor*%
%ADD19C,0.304800*%
%TD*%
G04 APERTURE END LIST*
%TO.N,GND*%
D10*
X114500000Y-71000000D02*
X116500000Y-71000000D01*
X116500000Y-73000000D01*
X114500000Y-73000000D01*
X114500000Y-71000000D01*
%TA.AperFunction,Conductor*%
G36*
X114500000Y-71000000D02*
G01*
X116500000Y-71000000D01*
X116500000Y-73000000D01*
X114500000Y-73000000D01*
X114500000Y-71000000D01*
G37*
%TD.AperFunction*%
%TO.N,vcclink*%
X118000000Y-71000000D02*
X120000000Y-71000000D01*
X120000000Y-73000000D01*
X118000000Y-73000000D01*
X118000000Y-71000000D01*
%TA.AperFunction,Conductor*%
G36*
X118000000Y-71000000D02*
G01*
X120000000Y-71000000D01*
X120000000Y-73000000D01*
X118000000Y-73000000D01*
X118000000Y-71000000D01*
G37*
%TD.AperFunction*%
%TD*%
D11*
%TO.P,REF\u002A\u002A,1*%
%TO.N,vcclink*%
X122000000Y-75412500D03*
%TO.P,REF\u002A\u002A,2*%
X122000000Y-73587500D03*
%TD*%
D12*
%TO.P,U1,8,VCC_8*%
%TO.N,vcclink*%
X135610000Y-73955000D03*
%TO.P,U1,7,DISCH_7*%
%TO.N,Net-(U1-DISCH)*%
X135610000Y-75225000D03*
%TO.P,U1,6,THRES_6*%
%TO.N,Net-(U1-THRES)*%
X135610000Y-76495000D03*
%TO.P,U1,5,CONT_5*%
%TO.N,Net-(U1-CONT)*%
X135610000Y-77765000D03*
%TO.P,U1,4,~{RST}_4*%
%TO.N,vcclink*%
X130660000Y-77765000D03*
%TO.P,U1,3,OUT_3*%
%TO.N,Net-(D1-A)*%
X130660000Y-76495000D03*
%TO.P,U1,2,TRIG_2*%
%TO.N,Net-(U1-THRES)*%
X130660000Y-75225000D03*
%TO.P,U1,1,GND_1*%
%TO.N,GND*%
X130660000Y-73955000D03*
%TD*%
D11*
%TO.P,R1,2*%
%TO.N,Net-(U1-VCC)*%
X140000000Y-74000000D03*
%TO.P,R1,1*%
%TO.N,Net-(U1-DISCH)*%
X140000000Y-75825000D03*
%TD*%
D13*
%TO.P,R2,2*%
%TO.N,Net-(U1-THRES)*%
X140000000Y-80000000D03*
%TO.P,R2,1*%
%TO.N,Net-(U1-DISCH)*%
X140000000Y-78175000D03*
%TD*%
D14*
%TO.P,C1,2*%
%TO.N,GND*%
X115500000Y-74450000D03*
%TO.P,C1,1*%
%TO.N,Net-(U1-THRES)*%
X115500000Y-76350000D03*
%TD*%
D15*
%TO.P,C10,1*%
%TO.N,GND*%
X119000000Y-74500000D03*
%TO.P,C10,2*%
%TO.N,Net-(U1-CONT)*%
X119000000Y-76400000D03*
%TD*%
D16*
%TO.P,D1,2,A_2*%
%TO.N,Net-(D1-A)*%
X126875000Y-78500000D03*
%TO.P,D1,1,K_1*%
%TO.N,Net-(D1-K)*%
X125000000Y-78500000D03*
%TD*%
D11*
%TO.P,RLED1,2*%
%TO.N,GND*%
X125000000Y-74500000D03*
%TO.P,RLED1,1*%
%TO.N,Net-(D1-K)*%
X125000000Y-76325000D03*
%TD*%
%TO.N,vcclink*%
D17*
X122000000Y-73037500D02*
X122000000Y-73587500D01*
%TO.N,GND*%
D18*
X119000000Y-74500000D02*
X125000000Y-74500000D01*
%TO.N,Net-(U1-THRES)*%
D17*
X118500000Y-82000000D02*
X115500000Y-79000000D01*
X138000000Y-82000000D02*
X118500000Y-82000000D01*
X140000000Y-80000000D02*
X138000000Y-82000000D01*
X115500000Y-79000000D02*
X115500000Y-76350000D01*
%TO.N,Net-(U1-CONT)*%
X119000000Y-79500000D02*
X119000000Y-76400000D01*
X120500000Y-81000000D02*
X119000000Y-79500000D01*
X132375000Y-81000000D02*
X120500000Y-81000000D01*
X135610000Y-77765000D02*
X132375000Y-81000000D01*
%TO.N,vcclink*%
X134692500Y-73037500D02*
X135610000Y-73955000D01*
X122000000Y-73037500D02*
X134692500Y-73037500D01*
X128425000Y-80000000D02*
X122500000Y-80000000D01*
X122500000Y-80000000D02*
X122000000Y-79500000D01*
X130660000Y-77765000D02*
X128425000Y-80000000D01*
X122000000Y-79500000D02*
X122000000Y-75962500D01*
%TO.N,Net-(D1-K)*%
X125000000Y-76325000D02*
X125000000Y-78500000D01*
%TO.N,GND*%
X128545000Y-73955000D02*
X130660000Y-73955000D01*
X128000000Y-74500000D02*
X128545000Y-73955000D01*
X125000000Y-74500000D02*
X128000000Y-74500000D01*
%TO.N,Net-(U1-DISCH)*%
X137562500Y-75225000D02*
X138162500Y-75825000D01*
X138162500Y-75825000D02*
X140000000Y-75825000D01*
X135610000Y-75225000D02*
X137562500Y-75225000D01*
%TO.N,vcclink*%
X139955000Y-73955000D02*
X140000000Y-74000000D01*
X135610000Y-73955000D02*
X139955000Y-73955000D01*
%TO.N,Net-(D1-A)*%
X128880000Y-76495000D02*
X130660000Y-76495000D01*
X126875000Y-78500000D02*
X128880000Y-76495000D01*
%TO.N,Net-(U1-THRES)*%
D19*
X133920342Y-76495000D02*
X135610000Y-76495000D01*
X132650342Y-75225000D02*
X133920342Y-76495000D01*
X130660000Y-75225000D02*
X132650342Y-75225000D01*
%TO.N,Net-(U1-DISCH)*%
D17*
X140000000Y-75825000D02*
X140000000Y-78175000D01*
%TO.N,GND*%
X118950000Y-74450000D02*
X119000000Y-74500000D01*
X115500000Y-74450000D02*
X118950000Y-74450000D01*
X115500000Y-72000000D02*
X115500000Y-74450000D01*
%TO.N,vcclink*%
X119000000Y-72000000D02*
X120962500Y-72000000D01*
X120962500Y-72000000D02*
X122000000Y-73037500D01*
%TO.N,Net-(U1-THRES)*%
D19*
X135610000Y-76495000D02*
X136584999Y-76495000D01*
X136584999Y-76495000D02*
X137860000Y-77770001D01*
X137860000Y-77770001D02*
X137860000Y-79170000D01*
X137860000Y-79170000D02*
X138690000Y-80000000D01*
X138690000Y-80000000D02*
X140000000Y-80000000D01*
%TD*%
M02*
