G04 EAGLE Gerber RS-274X export*
G75*
%MOMM*%
%FSLAX34Y34*%
%LPD*%
%INTop Copper*%
%IPPOS*%
%AMOC8*
5,1,8,0,0,1.08239X$1,22.5*%
G01*
G04 Define Apertures*
%ADD10R,0.800000X0.550000*%
%ADD11R,1.250000X0.855600*%
%ADD12R,0.965200X0.939800*%
%ADD13R,1.701800X1.016000*%
%ADD14R,0.990600X0.406400*%
%ADD15C,1.524000*%
%ADD16C,0.508000*%
%ADD17C,0.406400*%
D10*
X139650Y174600D03*
X139650Y165100D03*
X139650Y155600D03*
X165150Y155600D03*
X165150Y174600D03*
D11*
X203200Y155822D03*
X203200Y174378D03*
X76200Y130422D03*
X76200Y148978D03*
D12*
X96393Y177800D03*
X81407Y177800D03*
D13*
X241300Y150622D03*
X241300Y179578D03*
D14*
X241300Y105791D03*
X241300Y122809D03*
D15*
X203200Y71120D02*
X203200Y55880D01*
X177800Y55880D02*
X177800Y71120D01*
X152400Y71120D02*
X152400Y55880D01*
X127000Y55880D02*
X127000Y71120D01*
D16*
X50800Y123578D02*
X50800Y152400D01*
X50800Y148978D02*
X76200Y148978D01*
X50800Y148978D02*
X50800Y123578D01*
X50800Y63500D01*
X127000Y63500D01*
X50800Y152400D02*
X50800Y177800D01*
X81407Y177800D01*
X127000Y165100D02*
X139650Y165100D01*
X127000Y114300D02*
X127000Y88900D01*
X127000Y114300D02*
X127000Y165100D01*
X114300Y88900D02*
X76200Y88900D01*
X76200Y130422D01*
X127000Y88900D02*
X177800Y88900D01*
X127000Y88900D02*
X114300Y88900D01*
X177800Y88900D02*
X177800Y63500D01*
X152400Y63500D01*
X177800Y88900D02*
X194733Y88900D01*
X203200Y88900D01*
X203200Y101600D02*
X203200Y155822D01*
D17*
X241300Y105791D02*
X241300Y88900D01*
X203200Y88900D01*
D16*
X203200Y101600D01*
X139650Y174600D02*
X99593Y174600D01*
X96393Y177800D01*
D17*
X241300Y150622D02*
X241300Y122809D01*
D16*
X241300Y179578D02*
X279400Y179578D01*
X279400Y63500D01*
X203200Y63500D01*
X203200Y174378D02*
X208400Y179578D01*
X241300Y179578D01*
X203200Y174378D02*
X201081Y172259D01*
X195771Y172259D01*
X179112Y155600D02*
X165150Y155600D01*
X179112Y155600D02*
X195771Y172259D01*
M02*
